<svg xmlns="http://www.w3.org/2000/svg" xmlns:xlink="http://www.w3.org/1999/xlink" width="2000" zoomAndPan="magnify" viewBox="0 0 1500 1499.999933" height="2000" preserveAspectRatio="xMidYMid meet" version="1.0"><defs><clipPath id="a24958c6f7"><path d="M 14 14 L 1487 14 L 1487 1486 L 14 1486 Z M 14 14 " clip-rule="nonzero"/></clipPath><clipPath id="34e91bbc9f"><path d="M 0 75 L 0 1425 C 0 1466.421875 33.578125 1500 75 1500 L 1425 1500 C 1466.421875 1500 1500 1466.421875 1500 1425 L 1500 75 C 1500 33.578125 1466.421875 0 1425 0 L 75 0 C 33.578125 0 0 33.578125 0 75 Z M 0 75 " clip-rule="nonzero"/></clipPath><clipPath id="649ef91f27"><path d="M 0 75 L 0 1425 C 0 1466.421875 33.578125 1500 75 1500 L 1425 1500 C 1466.421875 1500 1500 1466.421875 1500 1425 L 1500 75 C 1500 33.578125 1466.421875 0 1425 0 L 75 0 C 33.578125 0 0 33.578125 0 75 Z M 0 75 " clip-rule="nonzero"/></clipPath><clipPath id="ad2b8283fc"><path d="M 73.871094 77 L 1426.121094 77 L 1426.121094 1423 L 73.871094 1423 Z M 73.871094 77 " clip-rule="nonzero"/></clipPath></defs><g clip-path="url(#a24958c6f7)"><g clip-path="url(#34e91bbc9f)"><path fill="#ff0000" d="M 1481.808594 762.828125 C 1473.808594 775.96875 1460.210938 783.71875 1446.78125 791.21875 C 1452.460938 799.429688 1452.25 810.449219 1449.71875 820.109375 C 1447.191406 829.769531 1442.589844 838.800781 1440.019531 848.460938 C 1437.449219 858.121094 1438.109375 870.890625 1443.710938 879.128906 C 1436 879.460938 1429.53125 885.640625 1426.378906 892.730469 C 1423.269531 899.820312 1422.769531 907.691406 1422.109375 915.398438 C 1421.449219 923.109375 1420.410156 931.070312 1416.390625 937.660156 L 1416.558594 937.699219 C 1427.628906 942.089844 1439.148438 946.78125 1446.988281 955.769531 C 1449.269531 958.421875 1451.21875 961.410156 1452.421875 964.640625 C 1455.160156 972.101562 1454.039062 980.558594 1450.96875 987.851562 C 1447.898438 995.191406 1443.050781 1001.609375 1438.289062 1007.949219 C 1444.511719 1014.128906 1454.699219 1021.089844 1457.519531 1029.417969 C 1459.300781 1034.730469 1459.46875 1040.449219 1460.261719 1046 C 1463 1065.648438 1473.441406 1084.140625 1472.78125 1103.988281 L 1472.78125 1104.03125 C 1472.738281 1106.058594 1471.25 1107.761719 1469.511719 1108.800781 C 1467.769531 1109.839844 1465.820312 1110.417969 1464.039062 1111.328125 C 1457.859375 1114.480469 1454.589844 1121.488281 1453.300781 1128.328125 C 1452.011719 1135.167969 1452.21875 1142.21875 1450.769531 1149.011719 C 1447.832031 1162.851562 1437.21875 1174.089844 1428.011719 1184.871094 C 1433.03125 1191.171875 1438.121094 1197.550781 1440.980469 1205.058594 C 1443.839844 1212.558594 1444.171875 1221.46875 1439.898438 1228.269531 C 1434.679688 1236.601562 1422.121094 1240.578125 1412.621094 1243.070312 C 1419.628906 1249.871094 1427.050781 1257.371094 1428.449219 1267.03125 C 1429.398438 1273.75 1427.332031 1280.578125 1428.199219 1287.300781 C 1428.949219 1293.101562 1431.890625 1298.449219 1435.660156 1302.890625 C 1439.429688 1307.328125 1444.03125 1311.058594 1448.550781 1314.75 C 1440.339844 1327.058594 1441.171875 1344.679688 1445.03125 1358.980469 C 1448.890625 1373.28125 1455.71875 1386.628906 1459.5 1400.96875 C 1464.351562 1419.25 1464.019531 1438.859375 1458.628906 1456.96875 C 1434.050781 1462.808594 1405.570312 1462.859375 1381.648438 1454.691406 C 1370.671875 1450.917969 1360.140625 1445.738281 1348.78125 1443.289062 C 1337.421875 1440.839844 1323.738281 1441.21875 1314.5 1448.21875 C 1310.269531 1441.261719 1303.761719 1435.699219 1296.21875 1432.679688 C 1287.46875 1429.160156 1277.769531 1429.03125 1268.449219 1427.539062 C 1259.128906 1426.050781 1248.761719 1422.03125 1243.5 1414.191406 C 1241.261719 1424.007812 1236.660156 1433.300781 1230.148438 1441.007812 C 1227.832031 1443.75 1225.011719 1446.441406 1221.449219 1446.980469 C 1218.761719 1447.351562 1216.101562 1446.441406 1213.570312 1445.449219 C 1204.039062 1441.71875 1194.628906 1436 1186.25 1430.109375 C 1181.28125 1429.859375 1176.800781 1433.089844 1173.359375 1436.660156 C 1169.921875 1440.21875 1166.929688 1444.410156 1162.75 1447.058594 C 1152.011719 1453.820312 1137.421875 1448.550781 1125.609375 1453.148438 C 1115.910156 1456.917969 1107.699219 1466.078125 1102.398438 1475.039062 C 1099 1472.140625 1094.441406 1471.140625 1090.011719 1470.769531 C 1085.570312 1470.398438 1081.101562 1470.558594 1076.75 1469.570312 C 1070.238281 1468.121094 1064.519531 1464.257812 1058.179688 1462.230469 C 1049.191406 1459.328125 1039.320312 1460.199219 1030.371094 1457.261719 C 1020.210938 1453.941406 1012.261719 1446.070312 1004.710938 1438.480469 C 995.300781 1445.53125 990.949219 1447.101562 980 1451.449219 C 975.609375 1453.191406 970.839844 1454.71875 966.238281 1453.609375 C 962.429688 1452.660156 959.28125 1450 956.5 1447.230469 C 948.332031 1439.109375 941.738281 1428.660156 937.179688 1418.050781 C 925.238281 1424.179688 910.398438 1419.628906 897.589844 1423.691406 C 888.640625 1426.550781 880.640625 1434.140625 877.53125 1443.050781 C 871.058594 1436.871094 860.738281 1436.828125 852.199219 1439.488281 C 843.660156 1442.140625 835.949219 1446.988281 827.410156 1449.648438 C 815.839844 1453.210938 802.988281 1452.46875 791.929688 1447.539062 L 791.96875 1445.140625 C 787.78125 1461.058594 776.378906 1474.941406 761.589844 1482.121094 C 757.398438 1484.148438 752.761719 1485.679688 748.199219 1484.980469 C 744.351562 1484.359375 740.898438 1482.238281 737.75 1479.960938 C 726.179688 1471.710938 716.320312 1461.058594 708.941406 1448.871094 C 695.800781 1451.109375 682.410156 1453.351562 670.179688 1448.039062 C 663.921875 1445.351562 658.488281 1440.828125 652.109375 1438.460938 C 642.078125 1434.769531 630.058594 1437.167969 622.179688 1444.390625 C 620.601562 1436.71875 614.011719 1430.339844 606.878906 1427.148438 C 599.710938 1423.960938 591.789062 1423.089844 584 1422.261719 C 576.210938 1421.429688 568.289062 1420.519531 561.160156 1417.238281 C 559.921875 1428.640625 555.359375 1437.390625 547.648438 1445.878906 C 544.539062 1449.320312 540.769531 1452.46875 536.210938 1453.179688 C 533.269531 1453.640625 530.238281 1453.011719 527.378906 1452.230469 C 516.929688 1449.410156 507.03125 1444.691406 498.28125 1438.339844 C 484.019531 1443.230469 475.558594 1458.148438 460.851562 1461.429688 C 453.929688 1462.960938 446.550781 1461.601562 439.628906 1463.128906 C 434.199219 1464.328125 429.351562 1467.191406 424 1468.769531 C 414.589844 1471.550781 403.898438 1470.261719 395.480469 1475.28125 C 391.039062 1465.210938 380.230469 1457 369.660156 1453.96875 C 363.441406 1452.191406 356.851562 1452.058594 350.511719 1450.699219 C 338.410156 1448.128906 325.179688 1438.800781 317.851562 1428.859375 C 312.421875 1433.878906 311.421875 1434.828125 305 1438.558594 C 298.570312 1442.289062 291.03125 1444.488281 283.738281 1443.410156 C 277.070312 1442.417969 270.96875 1438.601562 266.699219 1433.417969 C 262.390625 1428.238281 258.910156 1419.621094 258.039062 1412.941406 C 252.441406 1421.890625 242.160156 1427.410156 231.679688 1428.480469 C 224.511719 1429.230469 217.210938 1428.070312 210.128906 1429.390625 C 200.21875 1431.261719 189.738281 1439.710938 185.589844 1448.871094 C 176.839844 1442.398438 165.070312 1441.570312 154.25 1443.070312 C 136.878906 1445.46875 120.71875 1453.058594 103.800781 1457.578125 C 84.28125 1462.800781 57 1462.929688 41.578125 1457 C 36.148438 1438.890625 35.859375 1419.28125 40.710938 1401 C 44.519531 1386.699219 51.359375 1373.308594 55.179688 1359.011719 C 59.039062 1344.710938 59.910156 1327.089844 51.660156 1314.78125 C 56.21875 1311.089844 60.78125 1307.398438 64.550781 1302.917969 C 68.320312 1298.441406 71.269531 1293.140625 72.011719 1287.328125 C 72.878906 1280.609375 70.769531 1273.78125 71.761719 1267.058594 C 73.171875 1257.398438 80.589844 1249.898438 87.589844 1243.101562 C 78.058594 1240.648438 65.539062 1236.628906 60.308594 1228.300781 C 56.039062 1221.5 56.371094 1212.589844 59.230469 1205.089844 C 62.089844 1197.589844 67.191406 1191.160156 72.199219 1184.898438 C 63 1174.121094 52.390625 1162.929688 49.441406 1149.039062 C 47.988281 1142.238281 48.238281 1135.199219 46.910156 1128.359375 C 45.621094 1121.519531 42.351562 1114.519531 36.171875 1111.359375 C 34.390625 1110.449219 32.398438 1109.871094 30.699219 1108.828125 C 28.960938 1107.789062 27.46875 1106.089844 27.429688 1104.058594 L 27.429688 1104.019531 C 26.730469 1084.210938 37.171875 1065.679688 39.949219 1046.03125 C 40.738281 1040.480469 40.898438 1034.761719 42.691406 1029.449219 C 45.511719 1021.121094 55.660156 1014.199219 61.921875 1007.980469 C 57.109375 1001.640625 52.300781 995.210938 49.238281 987.878906 C 46.179688 980.550781 45.011719 972.089844 47.789062 964.671875 C 48.988281 961.398438 50.941406 958.410156 53.21875 955.800781 C 61.011719 946.800781 72.578125 942.078125 83.648438 937.730469 L 83.820312 937.691406 C 79.800781 931.058594 78.800781 923.140625 78.101562 915.429688 C 77.441406 907.71875 76.941406 899.800781 73.828125 892.761719 C 70.71875 885.710938 64.25 879.5 56.5 879.160156 C 62.101562 870.871094 62.761719 858.140625 60.191406 848.488281 C 57.621094 838.839844 53.019531 829.800781 50.488281 820.140625 C 47.960938 810.480469 47.75 799.460938 53.429688 791.25 C 40 783.75 26.398438 776 18.398438 762.859375 C 15.371094 757.929688 13.300781 752.039062 14.339844 746.359375 C 15.128906 742.050781 17.609375 738.238281 20.308594 734.75 C 24.699219 729.070312 29.761719 723.929688 35.398438 719.449219 C 39.171875 716.46875 43.230469 713.691406 46.21875 709.921875 C 49.199219 706.148438 50.988281 701.011719 49.371094 696.449219 C 48.5 688.859375 48.75 679.738281 51.148438 672.449219 C 53.839844 664.28125 59.851562 657.488281 62.300781 649.238281 C 65.121094 639.828125 62.960938 628.71875 56.5 621.339844 C 61.019531 619.429688 65.699219 617.398438 68.941406 613.710938 C 71.839844 610.390625 73.289062 606.078125 74.410156 601.808594 C 77.558594 589.871094 78.640625 577.480469 79.71875 565.210938 C 79.839844 564.011719 79.929688 562.679688 79.261719 561.648438 C 78.640625 560.609375 74.660156 559.578125 73.910156 560.53125 C 60.308594 557.261719 49.160156 545.441406 46.679688 531.640625 C 44.191406 517.839844 50.578125 502.910156 62.21875 495.121094 C 52.058594 488.738281 44.929688 477.539062 41.289062 466.101562 C 37.648438 454.660156 36.480469 442.601562 34.660156 430.738281 C 32.839844 418.878906 30.179688 406.859375 24.011719 396.578125 C 33.671875 389.328125 44.070312 382.320312 47.261719 371.171875 C 49.621094 363.050781 49.078125 354.300781 51.03125 346.050781 C 53.679688 334.648438 61.191406 324.5 71.261719 318.609375 C 66.289062 312.308594 61.390625 304.140625 58.910156 296.519531 C 56.421875 288.890625 56.378906 280.148438 60.53125 273.269531 C 65.75 264.519531 77.398438 260.050781 87.351562 257.730469 L 87.761719 257.730469 C 82.828125 254.078125 83.03125 254.328125 79.46875 249.359375 C 75.160156 243.308594 73.289062 235.808594 72.171875 228.429688 C 71.050781 221.050781 70.550781 213.550781 68.480469 206.378906 C 68.648438 201.28125 65.910156 195.230469 61.640625 192.449219 C 58.820312 190.628906 55.128906 189.46875 53.761719 186.398438 C 52.890625 184.410156 53.300781 182.050781 54.421875 180.21875 C 55.539062 178.398438 57.570312 176.699219 59.480469 175.660156 C 58.859375 155.21875 50.53125 135.910156 45.261719 116.140625 C 38.75 91.890625 36.761719 66.480469 39.421875 41.53125 C 54.878906 35.601562 84.398438 37.050781 103.921875 42.28125 C 120.828125 46.800781 137 54.378906 154.371094 56.789062 C 165.148438 58.28125 176.921875 57.449219 185.710938 50.988281 C 189.859375 60.191406 200.339844 68.648438 210.25 70.46875 C 217.339844 71.800781 224.628906 70.640625 231.800781 71.378906 C 242.328125 72.460938 252.570312 77.96875 258.160156 86.921875 C 259.070312 80.25 262.550781 71.671875 266.820312 66.441406 C 271.128906 61.261719 277.21875 57.488281 283.859375 56.449219 C 291.199219 55.328125 298.699219 57.570312 305.121094 61.300781 C 311.550781 64.988281 312.539062 65.941406 317.96875 71 C 325.351562 61.050781 338.53125 51.71875 350.628906 49.148438 C 356.96875 47.820312 363.558594 47.660156 369.78125 45.878906 C 380.390625 42.851562 391.171875 34.691406 395.601562 24.570312 C 404.058594 29.589844 414.710938 28.261719 424.121094 31.078125 C 429.429688 32.660156 434.320312 35.519531 439.75 36.71875 C 446.710938 38.25 454.050781 36.890625 460.96875 38.421875 C 475.691406 41.691406 484.140625 56.660156 498.398438 61.511719 C 507.148438 55.171875 517.050781 50.398438 527.5 47.621094 C 530.398438 46.828125 533.390625 46.210938 536.328125 46.671875 C 540.890625 47.371094 544.699219 50.53125 547.769531 53.96875 C 555.441406 62.46875 560.039062 71.210938 561.28125 82.609375 C 568.410156 79.339844 576.328125 78.421875 584.121094 77.589844 C 591.910156 76.761719 599.832031 75.890625 607 72.699219 C 614.171875 69.511719 620.71875 63.121094 622.300781 55.460938 C 630.179688 62.710938 642.199219 65.078125 652.230469 61.390625 C 658.648438 59.03125 664.039062 54.511719 670.300781 51.808594 C 682.53125 46.550781 695.921875 48.78125 709.058594 50.980469 C 716.441406 38.789062 726.300781 28.179688 737.871094 19.890625 C 741.058594 17.609375 744.460938 15.5 748.320312 14.871094 C 752.921875 14.171875 757.558594 15.699219 761.710938 17.730469 C 776.511719 24.898438 787.910156 38.789062 792.089844 54.710938 L 792.050781 52.308594 C 803.121094 47.378906 815.96875 46.628906 827.53125 50.199219 C 836.070312 52.851562 843.78125 57.699219 852.320312 60.359375 C 860.859375 63.011719 871.140625 62.929688 877.648438 56.800781 C 880.71875 65.671875 888.71875 73.300781 897.710938 76.160156 C 910.519531 80.21875 925.359375 75.660156 937.300781 81.800781 C 941.859375 71.191406 948.449219 60.78125 956.621094 52.621094 C 959.398438 49.839844 962.550781 47.191406 966.359375 46.238281 C 970.960938 45.121094 975.730469 46.648438 980.121094 48.398438 C 991.019531 52.75 995.421875 54.328125 1004.832031 61.371094 C 1012.371094 53.78125 1020.289062 45.949219 1030.488281 42.589844 C 1039.441406 39.648438 1049.351562 40.519531 1058.300781 37.621094 C 1064.640625 35.589844 1070.359375 31.730469 1076.871094 30.28125 C 1081.21875 29.328125 1085.699219 29.488281 1090.128906 29.078125 C 1094.570312 28.710938 1099.128906 27.671875 1102.519531 24.808594 C 1107.832031 33.761719 1115.988281 42.96875 1125.730469 46.699219 C 1137.589844 51.261719 1152.179688 46 1162.871094 52.789062 C 1167.101562 55.441406 1170.039062 59.628906 1173.480469 63.191406 C 1176.921875 66.75 1181.398438 69.988281 1186.371094 69.738281 C 1194.738281 63.898438 1204.191406 58.171875 1213.691406 54.398438 C 1216.21875 53.410156 1218.871094 52.488281 1221.570312 52.871094 C 1225.128906 53.371094 1227.949219 56.058594 1230.269531 58.839844 C 1236.78125 66.550781 1241.378906 75.839844 1243.621094 85.660156 C 1248.878906 77.828125 1259.25 73.800781 1268.570312 72.308594 C 1277.898438 70.820312 1287.550781 70.691406 1296.339844 67.171875 C 1303.878906 64.140625 1310.390625 58.589844 1314.621094 51.628906 C 1323.859375 58.679688 1337.539062 59.050781 1348.898438 56.558594 C 1360.261719 54.109375 1370.789062 48.890625 1381.769531 45.160156 C 1405.691406 36.988281 1436.398438 35.671875 1461.03125 41.511719 C 1463.679688 66.460938 1461.691406 91.871094 1455.191406 116.121094 C 1449.878906 135.890625 1441.550781 155.171875 1440.96875 175.640625 C 1442.878906 176.628906 1444.871094 178.328125 1446.03125 180.199219 C 1447.191406 182.070312 1447.558594 184.429688 1446.691406 186.378906 C 1445.320312 189.488281 1441.628906 190.609375 1438.808594 192.429688 C 1434.539062 195.210938 1431.800781 201.261719 1431.96875 206.359375 C 1429.941406 213.53125 1429.441406 221.03125 1428.28125 228.410156 C 1427.121094 235.789062 1425.300781 243.25 1420.980469 249.339844 C 1417.421875 254.308594 1417.621094 254.070312 1412.691406 257.710938 L 1413.101562 257.710938 C 1423.050781 260.03125 1434.648438 264.511719 1439.921875 273.25 C 1444.019531 280.128906 1444.019531 288.878906 1441.539062 296.5 C 1439.050781 304.128906 1434.160156 312.289062 1429.191406 318.589844 C 1439.261719 324.480469 1446.769531 334.671875 1449.421875 346.03125 C 1451.332031 354.28125 1450.832031 362.980469 1453.191406 371.148438 C 1456.421875 382.261719 1466.789062 389.308594 1476.441406 396.558594 C 1470.21875 406.839844 1467.609375 418.859375 1465.789062 430.71875 C 1463.96875 442.578125 1462.808594 454.640625 1459.160156 466.078125 C 1455.511719 477.519531 1448.421875 488.710938 1438.230469 495.101562 C 1449.878906 502.890625 1456.21875 517.859375 1453.769531 531.621094 C 1451.320312 545.378906 1440.171875 557.238281 1426.539062 560.511719 C 1425.789062 559.558594 1421.808594 560.589844 1421.191406 561.628906 C 1420.570312 562.671875 1420.648438 563.949219 1420.730469 565.191406 C 1421.808594 577.5 1422.929688 589.851562 1426.039062 601.789062 C 1427.160156 606.058594 1428.609375 610.371094 1431.511719 613.691406 C 1434.742188 617.378906 1439.429688 619.410156 1443.949219 621.320312 C 1437.480469 628.699219 1435.332031 639.808594 1438.148438 649.21875 C 1440.601562 657.46875 1446.609375 664.269531 1449.300781 672.429688 C 1451.699219 679.679688 1451.949219 688.800781 1451.082031 696.429688 C 1449.460938 700.949219 1451.25 706.128906 1454.230469 709.898438 C 1457.210938 713.671875 1461.28125 716.410156 1465.050781 719.429688 C 1470.648438 723.910156 1475.738281 729.050781 1480.140625 734.730469 C 1482.832031 738.210938 1485.320312 742.03125 1486.109375 746.339844 C 1486.949219 752.011719 1484.839844 757.851562 1481.808594 762.828125 Z M 1481.808594 762.828125 " fill-opacity="1" fill-rule="nonzero"/></g></g><g clip-path="url(#649ef91f27)"><rect x="-150" width="1800" fill="#709775" y="-149.999993" height="1799.99992" fill-opacity="1"/></g><g clip-path="url(#ad2b8283fc)"><path fill="#f2eee8" d="M 1420.097656 464.492188 L 1118.679688 239.613281 C 1115.296875 214.644531 1106.820312 192.816406 1093.496094 174.722656 C 1085.632812 163.847656 1075.90625 154.253906 1064.578125 146.230469 L 1063.753906 145.644531 C 1061.859375 144.3125 1059.835938 142.898438 1057.355469 141.621094 L 1056.425781 141.007812 L 1056.050781 140.847656 C 1054.132812 139.996094 1052.1875 139.140625 1050.640625 138.636719 C 956.164062 98.339844 851.132812 77.074219 746.984375 77.074219 C 642.96875 77.074219 540.070312 98.285156 449.378906 138.421875 C 447.644531 139.195312 445.9375 139.941406 444.019531 140.714844 L 443.328125 140.980469 L 442.742188 141.433594 L 442.367188 141.808594 C 439.890625 143.246094 437.597656 144.898438 435.304688 146.550781 C 424.511719 154.148438 414.945312 163.582031 406.816406 174.640625 C 393.359375 192.949219 384.882812 214.589844 381.605469 239.1875 L 79.839844 464.492188 C 75.894531 467.425781 73.683594 472.113281 73.898438 477.042969 C 74.109375 481.949219 76.75 486.425781 80.933594 489.011719 L 241.15625 587.859375 L 104.464844 707.492188 C 98.949219 712.316406 97.804688 720.578125 101.878906 726.867188 C 244.886719 944.070312 407.800781 1132.355469 599.820312 1302.492188 C 605.949219 1308.035156 612.292969 1313.578125 618.554688 1318.855469 C 642.167969 1339.644531 666.792969 1360.457031 693.921875 1382.578125 L 717.136719 1401.074219 C 725.023438 1407.390625 733.125 1413.707031 741.042969 1419.835938 C 743.625 1421.808594 746.824219 1422.898438 750.074219 1422.898438 C 753.273438 1422.898438 756.339844 1421.886719 759.136719 1419.808594 C 767.027344 1413.707031 775.101562 1407.390625 782.800781 1401.261719 L 798.632812 1388.574219 C 801.003906 1386.65625 803.402344 1384.710938 805.988281 1382.765625 L 809.71875 1379.804688 L 811.613281 1378.128906 L 811.613281 1378.074219 C 833.652344 1360.085938 856.542969 1340.710938 881.488281 1318.910156 C 887.832031 1313.554688 893.988281 1308.007812 900.089844 1302.492188 C 1091.871094 1132.78125 1254.757812 944.496094 1398.164062 726.679688 C 1402.136719 720.550781 1400.988281 712.289062 1395.5 707.464844 L 1258.996094 587.832031 L 1419.03125 488.984375 C 1423.214844 486.398438 1425.855469 481.921875 1426.066406 477.019531 C 1426.253906 472.140625 1424.042969 467.449219 1420.097656 464.492188 Z M 1052.691406 174.828125 C 1058.929688 179.785156 1064.5 185.675781 1069.296875 192.390625 C 1079.128906 205.609375 1085.632812 221.8125 1088.617188 240.574219 C 1057.996094 314.128906 973.941406 420.597656 909.710938 482.160156 C 904.753906 446.824219 893.960938 414.894531 877.597656 387.019531 C 874.242188 381.421875 869.710938 374.09375 864.351562 366.953125 C 859.101562 359.835938 853.613281 353.199219 848.097656 347.28125 C 844.472656 343.257812 840.449219 339.234375 836.316406 335.289062 L 834.878906 333.984375 L 848.175781 323.882812 L 1050.507812 172.960938 C 1051.226562 173.546875 1051.945312 174.160156 1052.691406 174.828125 Z M 811.480469 314.15625 L 688.832031 314.15625 L 559.445312 217.65625 C 622.207031 207.847656 686.246094 202.863281 750.050781 202.863281 C 813.132812 202.863281 877.304688 207.714844 941 217.335938 Z M 833.304688 375.664062 L 811.558594 463.851562 C 811.34375 464.039062 810.890625 464.304688 810.171875 464.519531 C 803.882812 466.332031 796.421875 467.878906 786.132812 469.476562 C 777.339844 470.59375 768.144531 471.394531 759.804688 471.792969 C 758.738281 471.792969 757.671875 471.847656 756.605469 471.902344 C 755.699219 471.953125 754.792969 471.980469 753.914062 471.980469 L 746.238281 471.980469 C 745.332031 471.980469 741.496094 471.792969 740.695312 471.792969 C 740.640625 471.792969 740.613281 471.792969 740.5625 471.792969 C 731.875 471.394531 722.546875 470.59375 713.75 469.503906 C 703.570312 467.875 696.292969 466.359375 690.058594 464.492188 C 689.417969 464.304688 688.992188 464.09375 688.886719 464.09375 C 688.859375 464.09375 688.859375 464.09375 688.859375 464.121094 L 667.03125 375.664062 C 676.464844 364.285156 686.808594 354.238281 698.667969 344.992188 L 699.839844 344.003906 L 800.5 344.003906 L 801.804688 345.125 C 813.53125 354.238281 823.84375 364.257812 833.304688 375.664062 Z M 1068.628906 337.210938 C 1025.269531 552.039062 961.414062 780.621094 878.558594 1017.359375 L 878.132812 1011.65625 L 834.210938 483.253906 C 837.25 479.710938 839.410156 475.605469 840.394531 471.449219 L 855.746094 409.21875 C 871.921875 439.359375 880.929688 474.566406 882.554688 514.300781 C 882.929688 522.21875 889.484375 528.425781 897.425781 528.425781 C 900.972656 528.425781 904.300781 527.175781 907.074219 524.800781 C 950.273438 487.945312 1018.527344 412.308594 1068.628906 337.210938 Z M 746.984375 106.921875 C 839.996094 106.921875 934.179688 124.671875 1019.914062 158.277344 L 974.234375 192.417969 C 899.425781 179.519531 823.871094 172.988281 749.675781 172.988281 C 674.761719 172.988281 599.605469 179.652344 526.265625 192.816406 L 479.867188 158.011719 C 562.082031 124.5625 654.238281 106.921875 746.984375 106.921875 Z M 431.042969 192.335938 C 436 185.460938 441.78125 179.382812 448.632812 173.867188 C 448.949219 173.546875 449.324219 173.226562 449.695312 172.910156 L 467.125 185.941406 L 495.429688 206.96875 L 517.097656 223.332031 L 651.894531 323.882812 L 665.378906 334.039062 L 663.96875 335.316406 C 660.289062 338.648438 656.53125 342.460938 652.269531 347.203125 C 646.671875 353.199219 641.179688 359.835938 635.984375 366.898438 C 630.921875 373.640625 626.578125 380.25 622.6875 387.046875 C 606.109375 415.214844 595.316406 447.144531 590.546875 482.109375 C 526.316406 420.546875 442.289062 314.078125 411.695312 240.546875 C 414.679688 221.839844 421.15625 205.636719 431.042969 192.335938 Z M 664.339844 481.070312 L 621.140625 1015.652344 C 539.054688 781.527344 475.226562 553.320312 431.226562 336.570312 C 481.226562 411.832031 549.636719 487.757812 593.316406 525.070312 C 596.035156 527.386719 599.339844 528.613281 602.859375 528.613281 C 610.800781 528.613281 617.328125 522.402344 617.753906 513.957031 C 619.195312 474.9375 628.148438 439.839844 644.566406 409.246094 L 659.890625 471.421875 C 660.714844 474.914062 662.207031 478.164062 664.339844 481.070312 Z M 712.578125 1359.523438 C 684.753906 1336.765625 656 1312.433594 627.109375 1287.222656 C 620.847656 1281.757812 614.585938 1276.269531 608.453125 1270.539062 C 426.21875 1107.277344 270.871094 927.597656 133.621094 721.296875 L 275.75 596.972656 C 279.320312 593.828125 281.160156 589.324219 280.757812 584.578125 C 280.359375 579.835938 277.800781 575.679688 273.75 573.199219 L 115.046875 475.417969 L 388 271.703125 C 435.597656 527.574219 515.097656 812.441406 618.101562 1096.085938 C 620.128906 1102.027344 622.257812 1107.863281 624.417969 1113.78125 L 634.679688 1141.601562 C 663.78125 1219.875 692.722656 1294.042969 720.761719 1362.136719 L 723.238281 1368.078125 Z M 751.941406 1350.382812 C 751.328125 1351.957031 750.714844 1353.503906 750.074219 1355.074219 L 748.078125 1349.902344 C 715.882812 1271.285156 684.195312 1189.734375 653.839844 1107.410156 C 652.136719 1102.988281 650.589844 1098.402344 649.015625 1093.925781 L 647.738281 1090.222656 L 646.351562 1086.410156 L 648.03125 1054.03125 L 693.042969 496.445312 C 697.707031 497.378906 702.929688 498.207031 709.113281 499.058594 C 720.546875 500.628906 730.832031 501.484375 740.082031 501.617188 C 741.867188 501.828125 743.839844 501.855469 745.597656 501.855469 C 746.15625 501.855469 746.769531 501.910156 747.382812 501.9375 C 748.261719 501.988281 749.195312 502.042969 750.101562 502.042969 C 751.007812 502.042969 751.835938 501.988281 752.6875 501.9375 C 753.328125 501.882812 753.941406 501.855469 754.632812 501.855469 C 756.390625 501.855469 758.125 501.855469 759.644531 501.667969 C 769.53125 501.484375 780.109375 500.605469 791.171875 499.058594 C 796.179688 498.3125 800.816406 497.617188 805.242188 496.792969 L 851.613281 1055.28125 L 854.28125 1085.128906 L 851.878906 1091.582031 L 845.992188 1107.945312 C 816.515625 1188.269531 784.882812 1269.765625 751.941406 1350.382812 Z M 1226.320312 573.171875 C 1222.269531 575.679688 1219.710938 579.835938 1219.3125 584.554688 C 1218.914062 589.296875 1220.75 593.800781 1224.324219 596.945312 L 1366.289062 721.269531 C 1229.066406 927.757812 1073.71875 1107.464844 891.003906 1270.9375 C 885.085938 1276.296875 879.144531 1281.625 873.015625 1287.007812 C 844.5 1312.113281 815.6875 1336.5 787.199219 1359.632812 L 785.601562 1361.070312 L 782.667969 1363.417969 C 780.75 1364.933594 778.832031 1366.480469 777.046875 1368 C 777.84375 1366.082031 778.617188 1364.164062 779.363281 1362.242188 C 809.613281 1287.886719 838.449219 1213.851562 865.019531 1142.214844 L 866.9375 1137.207031 C 869.257812 1131.128906 871.550781 1125.132812 873.707031 1119.03125 L 881.570312 1097.417969 C 987.050781 806.871094 1064.417969 529.148438 1111.5625 271.78125 L 1384.867188 475.390625 Z M 1226.320312 573.171875 " fill-opacity="1" fill-rule="nonzero"/></g></svg>