<svg xmlns="http://www.w3.org/2000/svg" xmlns:xlink="http://www.w3.org/1999/xlink" width="2000" zoomAndPan="magnify" viewBox="0 0 1500 1499.999933" height="2000" preserveAspectRatio="xMidYMid meet" version="1.0"><defs><clipPath id="b03368b60b"><path d="M 138.789062 141.082031 L 1361.289062 141.082031 L 1361.289062 1359 L 138.789062 1359 Z M 138.789062 141.082031 " clip-rule="nonzero"/></clipPath></defs><path fill="#ff0000" d="M 1481.808594 762.828125 C 1473.808594 775.96875 1460.210938 783.71875 1446.78125 791.21875 C 1452.460938 799.429688 1452.25 810.449219 1449.71875 820.109375 C 1447.191406 829.769531 1442.589844 838.800781 1440.019531 848.460938 C 1437.449219 858.121094 1438.109375 870.890625 1443.710938 879.128906 C 1436 879.460938 1429.53125 885.640625 1426.378906 892.730469 C 1423.269531 899.820312 1422.769531 907.691406 1422.109375 915.398438 C 1421.449219 923.109375 1420.410156 931.070312 1416.390625 937.660156 L 1416.558594 937.699219 C 1427.628906 942.089844 1439.148438 946.78125 1446.988281 955.769531 C 1449.269531 958.421875 1451.21875 961.410156 1452.421875 964.640625 C 1455.160156 972.101562 1454.039062 980.558594 1450.96875 987.851562 C 1447.898438 995.191406 1443.050781 1001.609375 1438.289062 1007.949219 C 1444.511719 1014.128906 1454.699219 1021.089844 1457.519531 1029.417969 C 1459.300781 1034.730469 1459.46875 1040.449219 1460.261719 1046 C 1463 1065.648438 1473.441406 1084.140625 1472.78125 1103.988281 L 1472.78125 1104.03125 C 1472.738281 1106.058594 1471.25 1107.761719 1469.511719 1108.800781 C 1467.769531 1109.839844 1465.820312 1110.417969 1464.039062 1111.328125 C 1457.859375 1114.480469 1454.589844 1121.488281 1453.300781 1128.328125 C 1452.011719 1135.167969 1452.21875 1142.21875 1450.769531 1149.011719 C 1447.832031 1162.851562 1437.21875 1174.089844 1428.011719 1184.871094 C 1433.03125 1191.171875 1438.121094 1197.550781 1440.980469 1205.058594 C 1443.839844 1212.558594 1444.171875 1221.46875 1439.898438 1228.269531 C 1434.679688 1236.601562 1422.121094 1240.578125 1412.621094 1243.070312 C 1419.628906 1249.871094 1427.050781 1257.371094 1428.449219 1267.03125 C 1429.398438 1273.75 1427.332031 1280.578125 1428.199219 1287.300781 C 1428.949219 1293.101562 1431.890625 1298.449219 1435.660156 1302.890625 C 1439.429688 1307.328125 1444.03125 1311.058594 1448.550781 1314.75 C 1440.339844 1327.058594 1441.171875 1344.679688 1445.03125 1358.980469 C 1448.890625 1373.28125 1455.71875 1386.628906 1459.5 1400.96875 C 1464.351562 1419.25 1464.019531 1438.859375 1458.628906 1456.96875 C 1434.050781 1462.808594 1405.570312 1462.859375 1381.648438 1454.691406 C 1370.671875 1450.917969 1360.140625 1445.738281 1348.78125 1443.289062 C 1337.421875 1440.839844 1323.738281 1441.21875 1314.5 1448.21875 C 1310.269531 1441.261719 1303.761719 1435.699219 1296.21875 1432.679688 C 1287.46875 1429.160156 1277.769531 1429.03125 1268.449219 1427.539062 C 1259.128906 1426.050781 1248.761719 1422.03125 1243.5 1414.191406 C 1241.261719 1424.007812 1236.660156 1433.300781 1230.148438 1441.007812 C 1227.832031 1443.75 1225.011719 1446.441406 1221.449219 1446.980469 C 1218.761719 1447.351562 1216.101562 1446.441406 1213.570312 1445.449219 C 1204.039062 1441.71875 1194.628906 1436 1186.25 1430.109375 C 1181.28125 1429.859375 1176.800781 1433.089844 1173.359375 1436.660156 C 1169.921875 1440.21875 1166.929688 1444.410156 1162.75 1447.058594 C 1152.011719 1453.820312 1137.421875 1448.550781 1125.609375 1453.148438 C 1115.910156 1456.917969 1107.699219 1466.078125 1102.398438 1475.039062 C 1099 1472.140625 1094.441406 1471.140625 1090.011719 1470.769531 C 1085.570312 1470.398438 1081.101562 1470.558594 1076.75 1469.570312 C 1070.238281 1468.121094 1064.519531 1464.257812 1058.179688 1462.230469 C 1049.191406 1459.328125 1039.320312 1460.199219 1030.371094 1457.261719 C 1020.210938 1453.941406 1012.261719 1446.070312 1004.710938 1438.480469 C 995.300781 1445.53125 990.949219 1447.101562 980 1451.449219 C 975.609375 1453.191406 970.839844 1454.71875 966.238281 1453.609375 C 962.429688 1452.660156 959.28125 1450 956.5 1447.230469 C 948.332031 1439.109375 941.738281 1428.660156 937.179688 1418.050781 C 925.238281 1424.179688 910.398438 1419.628906 897.589844 1423.691406 C 888.640625 1426.550781 880.640625 1434.140625 877.53125 1443.050781 C 871.058594 1436.871094 860.738281 1436.828125 852.199219 1439.488281 C 843.660156 1442.140625 835.949219 1446.988281 827.410156 1449.648438 C 815.839844 1453.210938 802.988281 1452.46875 791.929688 1447.539062 L 791.96875 1445.140625 C 787.78125 1461.058594 776.378906 1474.941406 761.589844 1482.121094 C 757.398438 1484.148438 752.761719 1485.679688 748.199219 1484.980469 C 744.351562 1484.359375 740.898438 1482.238281 737.75 1479.960938 C 726.179688 1471.710938 716.320312 1461.058594 708.941406 1448.871094 C 695.800781 1451.109375 682.410156 1453.351562 670.179688 1448.039062 C 663.921875 1445.351562 658.488281 1440.828125 652.109375 1438.460938 C 642.078125 1434.769531 630.058594 1437.167969 622.179688 1444.390625 C 620.601562 1436.71875 614.011719 1430.339844 606.878906 1427.148438 C 599.710938 1423.960938 591.789062 1423.089844 584 1422.261719 C 576.210938 1421.429688 568.289062 1420.519531 561.160156 1417.238281 C 559.921875 1428.640625 555.359375 1437.390625 547.648438 1445.878906 C 544.539062 1449.320312 540.769531 1452.46875 536.210938 1453.179688 C 533.269531 1453.640625 530.238281 1453.011719 527.378906 1452.230469 C 516.929688 1449.410156 507.03125 1444.691406 498.28125 1438.339844 C 484.019531 1443.230469 475.558594 1458.148438 460.851562 1461.429688 C 453.929688 1462.960938 446.550781 1461.601562 439.628906 1463.128906 C 434.199219 1464.328125 429.351562 1467.191406 424 1468.769531 C 414.589844 1471.550781 403.898438 1470.261719 395.480469 1475.28125 C 391.039062 1465.210938 380.230469 1457 369.660156 1453.96875 C 363.441406 1452.191406 356.851562 1452.058594 350.511719 1450.699219 C 338.410156 1448.128906 325.179688 1438.800781 317.851562 1428.859375 C 312.421875 1433.878906 311.421875 1434.828125 305 1438.558594 C 298.570312 1442.289062 291.03125 1444.488281 283.738281 1443.410156 C 277.070312 1442.417969 270.96875 1438.601562 266.699219 1433.417969 C 262.390625 1428.238281 258.910156 1419.621094 258.039062 1412.941406 C 252.441406 1421.890625 242.160156 1427.410156 231.679688 1428.480469 C 224.511719 1429.230469 217.210938 1428.070312 210.128906 1429.390625 C 200.21875 1431.261719 189.738281 1439.710938 185.589844 1448.871094 C 176.839844 1442.398438 165.070312 1441.570312 154.25 1443.070312 C 136.878906 1445.46875 120.71875 1453.058594 103.800781 1457.578125 C 84.28125 1462.800781 57 1462.929688 41.578125 1457 C 36.148438 1438.890625 35.859375 1419.28125 40.710938 1401 C 44.519531 1386.699219 51.359375 1373.308594 55.179688 1359.011719 C 59.039062 1344.710938 59.910156 1327.089844 51.660156 1314.78125 C 56.21875 1311.089844 60.78125 1307.398438 64.550781 1302.917969 C 68.320312 1298.441406 71.269531 1293.140625 72.011719 1287.328125 C 72.878906 1280.609375 70.769531 1273.78125 71.761719 1267.058594 C 73.171875 1257.398438 80.589844 1249.898438 87.589844 1243.101562 C 78.058594 1240.648438 65.539062 1236.628906 60.308594 1228.300781 C 56.039062 1221.5 56.371094 1212.589844 59.230469 1205.089844 C 62.089844 1197.589844 67.191406 1191.160156 72.199219 1184.898438 C 63 1174.121094 52.390625 1162.929688 49.441406 1149.039062 C 47.988281 1142.238281 48.238281 1135.199219 46.910156 1128.359375 C 45.621094 1121.519531 42.351562 1114.519531 36.171875 1111.359375 C 34.390625 1110.449219 32.398438 1109.871094 30.699219 1108.828125 C 28.960938 1107.789062 27.46875 1106.089844 27.429688 1104.058594 L 27.429688 1104.019531 C 26.730469 1084.210938 37.171875 1065.679688 39.949219 1046.03125 C 40.738281 1040.480469 40.898438 1034.761719 42.691406 1029.449219 C 45.511719 1021.121094 55.660156 1014.199219 61.921875 1007.980469 C 57.109375 1001.640625 52.300781 995.210938 49.238281 987.878906 C 46.179688 980.550781 45.011719 972.089844 47.789062 964.671875 C 48.988281 961.398438 50.941406 958.410156 53.21875 955.800781 C 61.011719 946.800781 72.578125 942.078125 83.648438 937.730469 L 83.820312 937.691406 C 79.800781 931.058594 78.800781 923.140625 78.101562 915.429688 C 77.441406 907.71875 76.941406 899.800781 73.828125 892.761719 C 70.71875 885.710938 64.25 879.5 56.5 879.160156 C 62.101562 870.871094 62.761719 858.140625 60.191406 848.488281 C 57.621094 838.839844 53.019531 829.800781 50.488281 820.140625 C 47.960938 810.480469 47.75 799.460938 53.429688 791.25 C 40 783.75 26.398438 776 18.398438 762.859375 C 15.371094 757.929688 13.300781 752.039062 14.339844 746.359375 C 15.128906 742.050781 17.609375 738.238281 20.308594 734.75 C 24.699219 729.070312 29.761719 723.929688 35.398438 719.449219 C 39.171875 716.46875 43.230469 713.691406 46.21875 709.921875 C 49.199219 706.148438 50.988281 701.011719 49.371094 696.449219 C 48.5 688.859375 48.75 679.738281 51.148438 672.449219 C 53.839844 664.28125 59.851562 657.488281 62.300781 649.238281 C 65.121094 639.828125 62.960938 628.71875 56.5 621.339844 C 61.019531 619.429688 65.699219 617.398438 68.941406 613.710938 C 71.839844 610.390625 73.289062 606.078125 74.410156 601.808594 C 77.558594 589.871094 78.640625 577.480469 79.71875 565.210938 C 79.839844 564.011719 79.929688 562.679688 79.261719 561.648438 C 78.640625 560.609375 74.660156 559.578125 73.910156 560.53125 C 60.308594 557.261719 49.160156 545.441406 46.679688 531.640625 C 44.191406 517.839844 50.578125 502.910156 62.21875 495.121094 C 52.058594 488.738281 44.929688 477.539062 41.289062 466.101562 C 37.648438 454.660156 36.480469 442.601562 34.660156 430.738281 C 32.839844 418.878906 30.179688 406.859375 24.011719 396.578125 C 33.671875 389.328125 44.070312 382.320312 47.261719 371.171875 C 49.621094 363.050781 49.078125 354.300781 51.03125 346.050781 C 53.679688 334.648438 61.191406 324.5 71.261719 318.609375 C 66.289062 312.308594 61.390625 304.140625 58.910156 296.519531 C 56.421875 288.890625 56.378906 280.148438 60.53125 273.269531 C 65.75 264.519531 77.398438 260.050781 87.351562 257.730469 L 87.761719 257.730469 C 82.828125 254.078125 83.03125 254.328125 79.46875 249.359375 C 75.160156 243.308594 73.289062 235.808594 72.171875 228.429688 C 71.050781 221.050781 70.550781 213.550781 68.480469 206.378906 C 68.648438 201.28125 65.910156 195.230469 61.640625 192.449219 C 58.820312 190.628906 55.128906 189.46875 53.761719 186.398438 C 52.890625 184.410156 53.300781 182.050781 54.421875 180.21875 C 55.539062 178.398438 57.570312 176.699219 59.480469 175.660156 C 58.859375 155.21875 50.53125 135.910156 45.261719 116.140625 C 38.75 91.890625 36.761719 66.480469 39.421875 41.53125 C 54.878906 35.601562 84.398438 37.050781 103.921875 42.28125 C 120.828125 46.800781 137 54.378906 154.371094 56.789062 C 165.148438 58.28125 176.921875 57.449219 185.710938 50.988281 C 189.859375 60.191406 200.339844 68.648438 210.25 70.46875 C 217.339844 71.800781 224.628906 70.640625 231.800781 71.378906 C 242.328125 72.460938 252.570312 77.96875 258.160156 86.921875 C 259.070312 80.25 262.550781 71.671875 266.820312 66.441406 C 271.128906 61.261719 277.21875 57.488281 283.859375 56.449219 C 291.199219 55.328125 298.699219 57.570312 305.121094 61.300781 C 311.550781 64.988281 312.539062 65.941406 317.96875 71 C 325.351562 61.050781 338.53125 51.71875 350.628906 49.148438 C 356.96875 47.820312 363.558594 47.660156 369.78125 45.878906 C 380.390625 42.851562 391.171875 34.691406 395.601562 24.570312 C 404.058594 29.589844 414.710938 28.261719 424.121094 31.078125 C 429.429688 32.660156 434.320312 35.519531 439.75 36.71875 C 446.710938 38.25 454.050781 36.890625 460.96875 38.421875 C 475.691406 41.691406 484.140625 56.660156 498.398438 61.511719 C 507.148438 55.171875 517.050781 50.398438 527.5 47.621094 C 530.398438 46.828125 533.390625 46.210938 536.328125 46.671875 C 540.890625 47.371094 544.699219 50.53125 547.769531 53.96875 C 555.441406 62.46875 560.039062 71.210938 561.28125 82.609375 C 568.410156 79.339844 576.328125 78.421875 584.121094 77.589844 C 591.910156 76.761719 599.832031 75.890625 607 72.699219 C 614.171875 69.511719 620.71875 63.121094 622.300781 55.460938 C 630.179688 62.710938 642.199219 65.078125 652.230469 61.390625 C 658.648438 59.03125 664.039062 54.511719 670.300781 51.808594 C 682.53125 46.550781 695.921875 48.78125 709.058594 50.980469 C 716.441406 38.789062 726.300781 28.179688 737.871094 19.890625 C 741.058594 17.609375 744.460938 15.5 748.320312 14.871094 C 752.921875 14.171875 757.558594 15.699219 761.710938 17.730469 C 776.511719 24.898438 787.910156 38.789062 792.089844 54.710938 L 792.050781 52.308594 C 803.121094 47.378906 815.96875 46.628906 827.53125 50.199219 C 836.070312 52.851562 843.78125 57.699219 852.320312 60.359375 C 860.859375 63.011719 871.140625 62.929688 877.648438 56.800781 C 880.71875 65.671875 888.71875 73.300781 897.710938 76.160156 C 910.519531 80.21875 925.359375 75.660156 937.300781 81.800781 C 941.859375 71.191406 948.449219 60.78125 956.621094 52.621094 C 959.398438 49.839844 962.550781 47.191406 966.359375 46.238281 C 970.960938 45.121094 975.730469 46.648438 980.121094 48.398438 C 991.019531 52.75 995.421875 54.328125 1004.832031 61.371094 C 1012.371094 53.78125 1020.289062 45.949219 1030.488281 42.589844 C 1039.441406 39.648438 1049.351562 40.519531 1058.300781 37.621094 C 1064.640625 35.589844 1070.359375 31.730469 1076.871094 30.28125 C 1081.21875 29.328125 1085.699219 29.488281 1090.128906 29.078125 C 1094.570312 28.710938 1099.128906 27.671875 1102.519531 24.808594 C 1107.832031 33.761719 1115.988281 42.96875 1125.730469 46.699219 C 1137.589844 51.261719 1152.179688 46 1162.871094 52.789062 C 1167.101562 55.441406 1170.039062 59.628906 1173.480469 63.191406 C 1176.921875 66.75 1181.398438 69.988281 1186.371094 69.738281 C 1194.738281 63.898438 1204.191406 58.171875 1213.691406 54.398438 C 1216.21875 53.410156 1218.871094 52.488281 1221.570312 52.871094 C 1225.128906 53.371094 1227.949219 56.058594 1230.269531 58.839844 C 1236.78125 66.550781 1241.378906 75.839844 1243.621094 85.660156 C 1248.878906 77.828125 1259.25 73.800781 1268.570312 72.308594 C 1277.898438 70.820312 1287.550781 70.691406 1296.339844 67.171875 C 1303.878906 64.140625 1310.390625 58.589844 1314.621094 51.628906 C 1323.859375 58.679688 1337.539062 59.050781 1348.898438 56.558594 C 1360.261719 54.109375 1370.789062 48.890625 1381.769531 45.160156 C 1405.691406 36.988281 1436.398438 35.671875 1461.03125 41.511719 C 1463.679688 66.460938 1461.691406 91.871094 1455.191406 116.121094 C 1449.878906 135.890625 1441.550781 155.171875 1440.96875 175.640625 C 1442.878906 176.628906 1444.871094 178.328125 1446.03125 180.199219 C 1447.191406 182.070312 1447.558594 184.429688 1446.691406 186.378906 C 1445.320312 189.488281 1441.628906 190.609375 1438.808594 192.429688 C 1434.539062 195.210938 1431.800781 201.261719 1431.96875 206.359375 C 1429.941406 213.53125 1429.441406 221.03125 1428.28125 228.410156 C 1427.121094 235.789062 1425.300781 243.25 1420.980469 249.339844 C 1417.421875 254.308594 1417.621094 254.070312 1412.691406 257.710938 L 1413.101562 257.710938 C 1423.050781 260.03125 1434.648438 264.511719 1439.921875 273.25 C 1444.019531 280.128906 1444.019531 288.878906 1441.539062 296.5 C 1439.050781 304.128906 1434.160156 312.289062 1429.191406 318.589844 C 1439.261719 324.480469 1446.769531 334.671875 1449.421875 346.03125 C 1451.332031 354.28125 1450.832031 362.980469 1453.191406 371.148438 C 1456.421875 382.261719 1466.789062 389.308594 1476.441406 396.558594 C 1470.21875 406.839844 1467.609375 418.859375 1465.789062 430.71875 C 1463.96875 442.578125 1462.808594 454.640625 1459.160156 466.078125 C 1455.511719 477.519531 1448.421875 488.710938 1438.230469 495.101562 C 1449.878906 502.890625 1456.21875 517.859375 1453.769531 531.621094 C 1451.320312 545.378906 1440.171875 557.238281 1426.539062 560.511719 C 1425.789062 559.558594 1421.808594 560.589844 1421.191406 561.628906 C 1420.570312 562.671875 1420.648438 563.949219 1420.730469 565.191406 C 1421.808594 577.5 1422.929688 589.851562 1426.039062 601.789062 C 1427.160156 606.058594 1428.609375 610.371094 1431.511719 613.691406 C 1434.742188 617.378906 1439.429688 619.410156 1443.949219 621.320312 C 1437.480469 628.699219 1435.332031 639.808594 1438.148438 649.21875 C 1440.601562 657.46875 1446.609375 664.269531 1449.300781 672.429688 C 1451.699219 679.679688 1451.949219 688.800781 1451.082031 696.429688 C 1449.460938 700.949219 1451.25 706.128906 1454.230469 709.898438 C 1457.210938 713.671875 1461.28125 716.410156 1465.050781 719.429688 C 1470.648438 723.910156 1475.738281 729.050781 1480.140625 734.730469 C 1482.832031 738.210938 1485.320312 742.03125 1486.109375 746.339844 C 1486.949219 752.011719 1484.839844 757.851562 1481.808594 762.828125 Z M 1481.808594 762.828125 " fill-opacity="1" fill-rule="nonzero"/><rect x="-150" width="1800" fill="#709775" y="-149.999993" height="1799.99992" fill-opacity="1"/><g clip-path="url(#b03368b60b)"><path fill="#f2eee8" d="M 1355.761719 491.90625 L 1083.285156 288.617188 C 1080.226562 266.042969 1072.5625 246.3125 1060.519531 229.953125 C 1053.410156 220.125 1044.617188 211.453125 1034.378906 204.199219 L 1033.632812 203.671875 C 1031.921875 202.464844 1030.089844 201.1875 1027.847656 200.03125 L 1027.007812 199.476562 L 1026.667969 199.332031 C 1024.933594 198.5625 1023.175781 197.792969 1021.777344 197.332031 C 936.371094 160.90625 841.425781 141.683594 747.277344 141.683594 C 653.246094 141.683594 560.226562 160.859375 478.242188 197.140625 C 476.675781 197.839844 475.136719 198.515625 473.402344 199.214844 L 472.773438 199.453125 L 472.246094 199.863281 L 471.90625 200.199219 C 469.667969 201.5 467.59375 202.996094 465.523438 204.488281 C 455.765625 211.355469 447.117188 219.882812 439.769531 229.882812 C 427.601562 246.433594 419.941406 265.996094 416.976562 288.230469 L 144.1875 491.90625 C 140.621094 494.554688 138.621094 498.792969 138.8125 503.25 C 139.007812 507.683594 141.390625 511.730469 145.175781 514.070312 L 290.015625 603.425781 L 166.445312 711.574219 C 161.460938 715.933594 160.425781 723.402344 164.109375 729.089844 C 293.386719 925.4375 440.660156 1095.644531 614.242188 1249.445312 C 619.78125 1254.457031 625.515625 1259.46875 631.179688 1264.238281 C 652.523438 1283.03125 674.785156 1301.847656 699.308594 1321.84375 L 720.292969 1338.5625 C 727.425781 1344.273438 734.75 1349.980469 741.902344 1355.523438 C 744.242188 1357.304688 747.132812 1358.292969 750.070312 1358.292969 C 752.960938 1358.292969 755.734375 1357.378906 758.261719 1355.5 C 765.394531 1349.980469 772.691406 1344.273438 779.65625 1338.730469 L 793.964844 1327.261719 C 796.109375 1325.527344 798.277344 1323.769531 800.617188 1322.011719 L 803.988281 1319.335938 L 805.699219 1317.820312 L 805.699219 1317.769531 C 825.621094 1301.507812 846.316406 1283.996094 868.867188 1264.289062 C 874.601562 1259.445312 880.167969 1254.433594 885.683594 1249.445312 C 1059.046875 1096.03125 1206.296875 925.820312 1335.9375 728.917969 C 1339.523438 723.378906 1338.488281 715.910156 1333.527344 711.550781 L 1210.128906 603.402344 L 1354.800781 514.042969 C 1358.582031 511.707031 1360.96875 507.660156 1361.160156 503.226562 C 1361.328125 498.820312 1359.328125 494.578125 1355.761719 491.90625 Z M 1023.632812 230.050781 C 1029.269531 234.53125 1034.304688 239.855469 1038.644531 245.925781 C 1047.53125 257.875 1053.410156 272.523438 1056.109375 289.484375 C 1028.429688 355.976562 952.441406 452.226562 894.382812 507.878906 C 889.898438 475.929688 880.144531 447.070312 865.351562 421.871094 C 862.316406 416.808594 858.21875 410.183594 853.375 403.726562 C 848.628906 397.296875 843.667969 391.296875 838.679688 385.949219 C 835.40625 382.3125 831.765625 378.671875 828.03125 375.105469 L 826.730469 373.925781 L 838.753906 364.796875 L 1021.65625 228.363281 C 1022.308594 228.894531 1022.957031 229.449219 1023.632812 230.050781 Z M 805.578125 356.003906 L 694.707031 356.003906 L 577.742188 268.765625 C 634.480469 259.898438 692.371094 255.394531 750.046875 255.394531 C 807.074219 255.394531 865.085938 259.78125 922.664062 268.476562 Z M 825.308594 411.605469 L 805.652344 491.324219 C 805.457031 491.496094 805.046875 491.734375 804.398438 491.929688 C 798.710938 493.566406 791.964844 494.964844 782.667969 496.410156 C 774.71875 497.421875 766.40625 498.144531 758.863281 498.503906 C 757.902344 498.503906 756.9375 498.554688 755.972656 498.601562 C 755.15625 498.648438 754.335938 498.675781 753.539062 498.675781 L 746.601562 498.675781 C 745.78125 498.675781 742.3125 498.503906 741.589844 498.503906 C 741.542969 498.503906 741.519531 498.503906 741.46875 498.503906 C 733.617188 498.144531 725.183594 497.421875 717.234375 496.433594 C 708.03125 494.964844 701.453125 493.589844 695.816406 491.902344 C 695.238281 491.734375 694.851562 491.542969 694.757812 491.542969 C 694.730469 491.542969 694.730469 491.542969 694.730469 491.566406 L 675 411.605469 C 683.53125 401.320312 692.878906 392.238281 703.597656 383.875 L 704.65625 382.984375 L 795.652344 382.984375 L 796.832031 383.996094 C 807.433594 392.238281 816.757812 401.296875 825.308594 411.605469 Z M 1038.039062 376.84375 C 998.84375 571.046875 941.117188 777.679688 866.21875 991.6875 L 865.832031 986.53125 L 826.128906 508.863281 C 828.875 505.660156 830.828125 501.949219 831.71875 498.191406 L 845.59375 441.9375 C 860.21875 469.1875 868.363281 501.011719 869.832031 536.933594 C 870.167969 544.085938 876.09375 549.699219 883.273438 549.699219 C 886.480469 549.699219 889.492188 548.566406 891.996094 546.425781 C 931.046875 513.105469 992.746094 444.734375 1038.039062 376.84375 Z M 747.277344 168.664062 C 831.355469 168.664062 916.496094 184.710938 994 215.089844 L 952.707031 245.949219 C 885.082031 234.289062 816.78125 228.386719 749.710938 228.386719 C 681.988281 228.386719 614.050781 234.410156 547.75 246.3125 L 505.804688 214.847656 C 580.128906 184.613281 663.4375 168.664062 747.277344 168.664062 Z M 461.667969 245.878906 C 466.148438 239.664062 471.378906 234.171875 477.570312 229.183594 C 477.859375 228.894531 478.195312 228.605469 478.53125 228.316406 L 494.289062 240.097656 L 519.875 259.105469 L 539.460938 273.898438 L 661.316406 364.796875 L 673.507812 373.976562 L 672.230469 375.132812 C 668.90625 378.144531 665.507812 381.589844 661.652344 385.875 C 656.59375 391.296875 651.632812 397.296875 646.933594 403.679688 C 642.355469 409.773438 638.429688 415.75 634.914062 421.894531 C 619.925781 447.359375 610.171875 476.21875 605.859375 507.828125 C 547.796875 452.175781 471.835938 355.929688 444.175781 289.460938 C 446.875 272.546875 452.730469 257.902344 461.667969 245.878906 Z M 672.566406 506.890625 L 633.515625 990.148438 C 559.3125 778.5 501.613281 572.203125 461.835938 376.265625 C 507.03125 444.300781 568.875 512.9375 608.363281 546.664062 C 610.820312 548.761719 613.808594 549.871094 616.988281 549.871094 C 624.167969 549.871094 630.070312 544.253906 630.457031 536.617188 C 631.757812 501.347656 639.851562 469.621094 654.691406 441.960938 L 668.542969 498.167969 C 669.292969 501.324219 670.640625 504.261719 672.566406 506.890625 Z M 716.175781 1301.003906 C 691.023438 1280.429688 665.027344 1258.433594 638.910156 1235.640625 C 633.25 1230.703125 627.589844 1225.742188 622.046875 1220.5625 C 457.308594 1072.972656 316.875 910.546875 192.804688 724.054688 L 321.285156 611.664062 C 324.511719 608.820312 326.175781 604.75 325.816406 600.460938 C 325.453125 596.171875 323.140625 592.414062 319.476562 590.175781 L 176.011719 501.78125 L 422.761719 317.625 C 465.789062 548.929688 537.652344 806.445312 630.769531 1062.855469 C 632.597656 1068.226562 634.527344 1073.503906 636.476562 1078.851562 L 645.753906 1104.003906 C 672.0625 1174.761719 698.226562 1241.808594 723.570312 1303.363281 L 725.8125 1308.738281 Z M 751.757812 1292.738281 C 751.203125 1294.160156 750.648438 1295.558594 750.070312 1296.980469 L 748.265625 1292.304688 C 719.160156 1221.234375 690.515625 1147.515625 663.074219 1073.09375 C 661.535156 1069.097656 660.136719 1064.953125 658.714844 1060.90625 L 657.558594 1057.554688 L 656.304688 1054.109375 L 657.824219 1024.839844 L 698.515625 520.789062 C 702.730469 521.632812 707.453125 522.378906 713.042969 523.152344 C 723.378906 524.574219 732.675781 525.34375 741.035156 525.464844 C 742.652344 525.65625 744.433594 525.679688 746.023438 525.679688 C 746.53125 525.679688 747.082031 525.730469 747.636719 525.753906 C 748.433594 525.800781 749.277344 525.851562 750.09375 525.851562 C 750.914062 525.851562 751.660156 525.800781 752.433594 525.753906 C 753.011719 525.707031 753.5625 525.679688 754.191406 525.679688 C 755.78125 525.679688 757.347656 525.679688 758.71875 525.511719 C 767.65625 525.34375 777.222656 524.546875 787.21875 523.152344 C 791.75 522.476562 795.941406 521.851562 799.941406 521.105469 L 841.859375 1025.972656 L 844.269531 1052.953125 L 842.101562 1058.785156 L 836.777344 1073.578125 C 810.132812 1146.191406 781.535156 1219.863281 751.757812 1292.738281 Z M 1180.589844 590.152344 C 1176.929688 592.414062 1174.617188 596.171875 1174.253906 600.4375 C 1173.894531 604.726562 1175.554688 608.796875 1178.785156 611.640625 L 1307.121094 724.027344 C 1183.074219 910.691406 1042.640625 1073.144531 877.46875 1220.921875 C 872.121094 1225.765625 866.746094 1230.582031 861.207031 1235.449219 C 835.429688 1258.144531 809.386719 1280.1875 783.632812 1301.101562 L 782.183594 1302.402344 L 779.535156 1304.519531 C 777.800781 1305.894531 776.066406 1307.292969 774.453125 1308.664062 C 775.175781 1306.929688 775.875 1305.195312 776.546875 1303.460938 C 803.890625 1236.246094 829.960938 1169.316406 853.980469 1104.558594 L 855.714844 1100.03125 C 857.808594 1094.535156 859.882812 1089.117188 861.832031 1083.597656 L 868.941406 1064.058594 C 964.296875 801.410156 1034.234375 550.351562 1076.851562 317.695312 L 1323.914062 501.757812 Z M 1180.589844 590.152344 " fill-opacity="1" fill-rule="nonzero"/></g></svg>