<svg xmlns="http://www.w3.org/2000/svg" xmlns:xlink="http://www.w3.org/1999/xlink" width="2000" zoomAndPan="magnify" viewBox="0 0 1500 1499.999933" height="2000" preserveAspectRatio="xMidYMid meet" version="1.0"><path fill="#ff0000" d="M 1481.808594 762.828125 C 1473.808594 775.96875 1460.210938 783.71875 1446.78125 791.21875 C 1452.460938 799.429688 1452.25 810.449219 1449.71875 820.109375 C 1447.191406 829.769531 1442.589844 838.800781 1440.019531 848.460938 C 1437.449219 858.121094 1438.109375 870.890625 1443.710938 879.128906 C 1436 879.460938 1429.53125 885.640625 1426.378906 892.730469 C 1423.269531 899.820312 1422.769531 907.691406 1422.109375 915.398438 C 1421.449219 923.109375 1420.410156 931.070312 1416.390625 937.660156 L 1416.558594 937.699219 C 1427.628906 942.089844 1439.148438 946.78125 1446.988281 955.769531 C 1449.269531 958.421875 1451.21875 961.410156 1452.421875 964.640625 C 1455.160156 972.101562 1454.039062 980.558594 1450.96875 987.851562 C 1447.898438 995.191406 1443.050781 1001.609375 1438.289062 1007.949219 C 1444.511719 1014.128906 1454.699219 1021.089844 1457.519531 1029.417969 C 1459.300781 1034.730469 1459.46875 1040.449219 1460.261719 1046 C 1463 1065.648438 1473.441406 1084.140625 1472.78125 1103.988281 L 1472.78125 1104.03125 C 1472.738281 1106.058594 1471.25 1107.761719 1469.511719 1108.800781 C 1467.769531 1109.839844 1465.820312 1110.417969 1464.039062 1111.328125 C 1457.859375 1114.480469 1454.589844 1121.488281 1453.300781 1128.328125 C 1452.011719 1135.167969 1452.21875 1142.21875 1450.769531 1149.011719 C 1447.832031 1162.851562 1437.21875 1174.089844 1428.011719 1184.871094 C 1433.03125 1191.171875 1438.121094 1197.550781 1440.980469 1205.058594 C 1443.839844 1212.558594 1444.171875 1221.46875 1439.898438 1228.269531 C 1434.679688 1236.601562 1422.121094 1240.578125 1412.621094 1243.070312 C 1419.628906 1249.871094 1427.050781 1257.371094 1428.449219 1267.03125 C 1429.398438 1273.75 1427.332031 1280.578125 1428.199219 1287.300781 C 1428.949219 1293.101562 1431.890625 1298.449219 1435.660156 1302.890625 C 1439.429688 1307.328125 1444.03125 1311.058594 1448.550781 1314.75 C 1440.339844 1327.058594 1441.171875 1344.679688 1445.03125 1358.980469 C 1448.890625 1373.28125 1455.71875 1386.628906 1459.5 1400.96875 C 1464.351562 1419.25 1464.019531 1438.859375 1458.628906 1456.96875 C 1434.050781 1462.808594 1405.570312 1462.859375 1381.648438 1454.691406 C 1370.671875 1450.917969 1360.140625 1445.738281 1348.78125 1443.289062 C 1337.421875 1440.839844 1323.738281 1441.21875 1314.5 1448.21875 C 1310.269531 1441.261719 1303.761719 1435.699219 1296.21875 1432.679688 C 1287.46875 1429.160156 1277.769531 1429.03125 1268.449219 1427.539062 C 1259.128906 1426.050781 1248.761719 1422.03125 1243.5 1414.191406 C 1241.261719 1424.007812 1236.660156 1433.300781 1230.148438 1441.007812 C 1227.832031 1443.75 1225.011719 1446.441406 1221.449219 1446.980469 C 1218.761719 1447.351562 1216.101562 1446.441406 1213.570312 1445.449219 C 1204.039062 1441.71875 1194.628906 1436 1186.25 1430.109375 C 1181.28125 1429.859375 1176.800781 1433.089844 1173.359375 1436.660156 C 1169.921875 1440.21875 1166.929688 1444.410156 1162.75 1447.058594 C 1152.011719 1453.820312 1137.421875 1448.550781 1125.609375 1453.148438 C 1115.910156 1456.917969 1107.699219 1466.078125 1102.398438 1475.039062 C 1099 1472.140625 1094.441406 1471.140625 1090.011719 1470.769531 C 1085.570312 1470.398438 1081.101562 1470.558594 1076.75 1469.570312 C 1070.238281 1468.121094 1064.519531 1464.257812 1058.179688 1462.230469 C 1049.191406 1459.328125 1039.320312 1460.199219 1030.371094 1457.261719 C 1020.210938 1453.941406 1012.261719 1446.070312 1004.710938 1438.480469 C 995.300781 1445.53125 990.949219 1447.101562 980 1451.449219 C 975.609375 1453.191406 970.839844 1454.71875 966.238281 1453.609375 C 962.429688 1452.660156 959.28125 1450 956.5 1447.230469 C 948.332031 1439.109375 941.738281 1428.660156 937.179688 1418.050781 C 925.238281 1424.179688 910.398438 1419.628906 897.589844 1423.691406 C 888.640625 1426.550781 880.640625 1434.140625 877.53125 1443.050781 C 871.058594 1436.871094 860.738281 1436.828125 852.199219 1439.488281 C 843.660156 1442.140625 835.949219 1446.988281 827.410156 1449.648438 C 815.839844 1453.210938 802.988281 1452.46875 791.929688 1447.539062 L 791.96875 1445.140625 C 787.78125 1461.058594 776.378906 1474.941406 761.589844 1482.121094 C 757.398438 1484.148438 752.761719 1485.679688 748.199219 1484.980469 C 744.351562 1484.359375 740.898438 1482.238281 737.75 1479.960938 C 726.179688 1471.710938 716.320312 1461.058594 708.941406 1448.871094 C 695.800781 1451.109375 682.410156 1453.351562 670.179688 1448.039062 C 663.921875 1445.351562 658.488281 1440.828125 652.109375 1438.460938 C 642.078125 1434.769531 630.058594 1437.167969 622.179688 1444.390625 C 620.601562 1436.71875 614.011719 1430.339844 606.878906 1427.148438 C 599.710938 1423.960938 591.789062 1423.089844 584 1422.261719 C 576.210938 1421.429688 568.289062 1420.519531 561.160156 1417.238281 C 559.921875 1428.640625 555.359375 1437.390625 547.648438 1445.878906 C 544.539062 1449.320312 540.769531 1452.46875 536.210938 1453.179688 C 533.269531 1453.640625 530.238281 1453.011719 527.378906 1452.230469 C 516.929688 1449.410156 507.03125 1444.691406 498.28125 1438.339844 C 484.019531 1443.230469 475.558594 1458.148438 460.851562 1461.429688 C 453.929688 1462.960938 446.550781 1461.601562 439.628906 1463.128906 C 434.199219 1464.328125 429.351562 1467.191406 424 1468.769531 C 414.589844 1471.550781 403.898438 1470.261719 395.480469 1475.28125 C 391.039062 1465.210938 380.230469 1457 369.660156 1453.96875 C 363.441406 1452.191406 356.851562 1452.058594 350.511719 1450.699219 C 338.410156 1448.128906 325.179688 1438.800781 317.851562 1428.859375 C 312.421875 1433.878906 311.421875 1434.828125 305 1438.558594 C 298.570312 1442.289062 291.03125 1444.488281 283.738281 1443.410156 C 277.070312 1442.417969 270.96875 1438.601562 266.699219 1433.417969 C 262.390625 1428.238281 258.910156 1419.621094 258.039062 1412.941406 C 252.441406 1421.890625 242.160156 1427.410156 231.679688 1428.480469 C 224.511719 1429.230469 217.210938 1428.070312 210.128906 1429.390625 C 200.21875 1431.261719 189.738281 1439.710938 185.589844 1448.871094 C 176.839844 1442.398438 165.070312 1441.570312 154.25 1443.070312 C 136.878906 1445.46875 120.71875 1453.058594 103.800781 1457.578125 C 84.28125 1462.800781 57 1462.929688 41.578125 1457 C 36.148438 1438.890625 35.859375 1419.28125 40.710938 1401 C 44.519531 1386.699219 51.359375 1373.308594 55.179688 1359.011719 C 59.039062 1344.710938 59.910156 1327.089844 51.660156 1314.78125 C 56.21875 1311.089844 60.78125 1307.398438 64.550781 1302.917969 C 68.320312 1298.441406 71.269531 1293.140625 72.011719 1287.328125 C 72.878906 1280.609375 70.769531 1273.78125 71.761719 1267.058594 C 73.171875 1257.398438 80.589844 1249.898438 87.589844 1243.101562 C 78.058594 1240.648438 65.539062 1236.628906 60.308594 1228.300781 C 56.039062 1221.5 56.371094 1212.589844 59.230469 1205.089844 C 62.089844 1197.589844 67.191406 1191.160156 72.199219 1184.898438 C 63 1174.121094 52.390625 1162.929688 49.441406 1149.039062 C 47.988281 1142.238281 48.238281 1135.199219 46.910156 1128.359375 C 45.621094 1121.519531 42.351562 1114.519531 36.171875 1111.359375 C 34.390625 1110.449219 32.398438 1109.871094 30.699219 1108.828125 C 28.960938 1107.789062 27.46875 1106.089844 27.429688 1104.058594 L 27.429688 1104.019531 C 26.730469 1084.210938 37.171875 1065.679688 39.949219 1046.03125 C 40.738281 1040.480469 40.898438 1034.761719 42.691406 1029.449219 C 45.511719 1021.121094 55.660156 1014.199219 61.921875 1007.980469 C 57.109375 1001.640625 52.300781 995.210938 49.238281 987.878906 C 46.179688 980.550781 45.011719 972.089844 47.789062 964.671875 C 48.988281 961.398438 50.941406 958.410156 53.21875 955.800781 C 61.011719 946.800781 72.578125 942.078125 83.648438 937.730469 L 83.820312 937.691406 C 79.800781 931.058594 78.800781 923.140625 78.101562 915.429688 C 77.441406 907.71875 76.941406 899.800781 73.828125 892.761719 C 70.71875 885.710938 64.25 879.5 56.5 879.160156 C 62.101562 870.871094 62.761719 858.140625 60.191406 848.488281 C 57.621094 838.839844 53.019531 829.800781 50.488281 820.140625 C 47.960938 810.480469 47.75 799.460938 53.429688 791.25 C 40 783.75 26.398438 776 18.398438 762.859375 C 15.371094 757.929688 13.300781 752.039062 14.339844 746.359375 C 15.128906 742.050781 17.609375 738.238281 20.308594 734.75 C 24.699219 729.070312 29.761719 723.929688 35.398438 719.449219 C 39.171875 716.46875 43.230469 713.691406 46.21875 709.921875 C 49.199219 706.148438 50.988281 701.011719 49.371094 696.449219 C 48.5 688.859375 48.75 679.738281 51.148438 672.449219 C 53.839844 664.28125 59.851562 657.488281 62.300781 649.238281 C 65.121094 639.828125 62.960938 628.71875 56.5 621.339844 C 61.019531 619.429688 65.699219 617.398438 68.941406 613.710938 C 71.839844 610.390625 73.289062 606.078125 74.410156 601.808594 C 77.558594 589.871094 78.640625 577.480469 79.71875 565.210938 C 79.839844 564.011719 79.929688 562.679688 79.261719 561.648438 C 78.640625 560.609375 74.660156 559.578125 73.910156 560.53125 C 60.308594 557.261719 49.160156 545.441406 46.679688 531.640625 C 44.191406 517.839844 50.578125 502.910156 62.21875 495.121094 C 52.058594 488.738281 44.929688 477.539062 41.289062 466.101562 C 37.648438 454.660156 36.480469 442.601562 34.660156 430.738281 C 32.839844 418.878906 30.179688 406.859375 24.011719 396.578125 C 33.671875 389.328125 44.070312 382.320312 47.261719 371.171875 C 49.621094 363.050781 49.078125 354.300781 51.03125 346.050781 C 53.679688 334.648438 61.191406 324.5 71.261719 318.609375 C 66.289062 312.308594 61.390625 304.140625 58.910156 296.519531 C 56.421875 288.890625 56.378906 280.148438 60.53125 273.269531 C 65.75 264.519531 77.398438 260.050781 87.351562 257.730469 L 87.761719 257.730469 C 82.828125 254.078125 83.03125 254.328125 79.46875 249.359375 C 75.160156 243.308594 73.289062 235.808594 72.171875 228.429688 C 71.050781 221.050781 70.550781 213.550781 68.480469 206.378906 C 68.648438 201.28125 65.910156 195.230469 61.640625 192.449219 C 58.820312 190.628906 55.128906 189.46875 53.761719 186.398438 C 52.890625 184.410156 53.300781 182.050781 54.421875 180.21875 C 55.539062 178.398438 57.570312 176.699219 59.480469 175.660156 C 58.859375 155.21875 50.53125 135.910156 45.261719 116.140625 C 38.75 91.890625 36.761719 66.480469 39.421875 41.53125 C 54.878906 35.601562 84.398438 37.050781 103.921875 42.28125 C 120.828125 46.800781 137 54.378906 154.371094 56.789062 C 165.148438 58.28125 176.921875 57.449219 185.710938 50.988281 C 189.859375 60.191406 200.339844 68.648438 210.25 70.46875 C 217.339844 71.800781 224.628906 70.640625 231.800781 71.378906 C 242.328125 72.460938 252.570312 77.96875 258.160156 86.921875 C 259.070312 80.25 262.550781 71.671875 266.820312 66.441406 C 271.128906 61.261719 277.21875 57.488281 283.859375 56.449219 C 291.199219 55.328125 298.699219 57.570312 305.121094 61.300781 C 311.550781 64.988281 312.539062 65.941406 317.96875 71 C 325.351562 61.050781 338.53125 51.71875 350.628906 49.148438 C 356.96875 47.820312 363.558594 47.660156 369.78125 45.878906 C 380.390625 42.851562 391.171875 34.691406 395.601562 24.570312 C 404.058594 29.589844 414.710938 28.261719 424.121094 31.078125 C 429.429688 32.660156 434.320312 35.519531 439.75 36.71875 C 446.710938 38.25 454.050781 36.890625 460.96875 38.421875 C 475.691406 41.691406 484.140625 56.660156 498.398438 61.511719 C 507.148438 55.171875 517.050781 50.398438 527.5 47.621094 C 530.398438 46.828125 533.390625 46.210938 536.328125 46.671875 C 540.890625 47.371094 544.699219 50.53125 547.769531 53.96875 C 555.441406 62.46875 560.039062 71.210938 561.28125 82.609375 C 568.410156 79.339844 576.328125 78.421875 584.121094 77.589844 C 591.910156 76.761719 599.832031 75.890625 607 72.699219 C 614.171875 69.511719 620.71875 63.121094 622.300781 55.460938 C 630.179688 62.710938 642.199219 65.078125 652.230469 61.390625 C 658.648438 59.03125 664.039062 54.511719 670.300781 51.808594 C 682.53125 46.550781 695.921875 48.78125 709.058594 50.980469 C 716.441406 38.789062 726.300781 28.179688 737.871094 19.890625 C 741.058594 17.609375 744.460938 15.5 748.320312 14.871094 C 752.921875 14.171875 757.558594 15.699219 761.710938 17.730469 C 776.511719 24.898438 787.910156 38.789062 792.089844 54.710938 L 792.050781 52.308594 C 803.121094 47.378906 815.96875 46.628906 827.53125 50.199219 C 836.070312 52.851562 843.78125 57.699219 852.320312 60.359375 C 860.859375 63.011719 871.140625 62.929688 877.648438 56.800781 C 880.71875 65.671875 888.71875 73.300781 897.710938 76.160156 C 910.519531 80.21875 925.359375 75.660156 937.300781 81.800781 C 941.859375 71.191406 948.449219 60.78125 956.621094 52.621094 C 959.398438 49.839844 962.550781 47.191406 966.359375 46.238281 C 970.960938 45.121094 975.730469 46.648438 980.121094 48.398438 C 991.019531 52.75 995.421875 54.328125 1004.832031 61.371094 C 1012.371094 53.78125 1020.289062 45.949219 1030.488281 42.589844 C 1039.441406 39.648438 1049.351562 40.519531 1058.300781 37.621094 C 1064.640625 35.589844 1070.359375 31.730469 1076.871094 30.28125 C 1081.21875 29.328125 1085.699219 29.488281 1090.128906 29.078125 C 1094.570312 28.710938 1099.128906 27.671875 1102.519531 24.808594 C 1107.832031 33.761719 1115.988281 42.96875 1125.730469 46.699219 C 1137.589844 51.261719 1152.179688 46 1162.871094 52.789062 C 1167.101562 55.441406 1170.039062 59.628906 1173.480469 63.191406 C 1176.921875 66.75 1181.398438 69.988281 1186.371094 69.738281 C 1194.738281 63.898438 1204.191406 58.171875 1213.691406 54.398438 C 1216.21875 53.410156 1218.871094 52.488281 1221.570312 52.871094 C 1225.128906 53.371094 1227.949219 56.058594 1230.269531 58.839844 C 1236.78125 66.550781 1241.378906 75.839844 1243.621094 85.660156 C 1248.878906 77.828125 1259.25 73.800781 1268.570312 72.308594 C 1277.898438 70.820312 1287.550781 70.691406 1296.339844 67.171875 C 1303.878906 64.140625 1310.390625 58.589844 1314.621094 51.628906 C 1323.859375 58.679688 1337.539062 59.050781 1348.898438 56.558594 C 1360.261719 54.109375 1370.789062 48.890625 1381.769531 45.160156 C 1405.691406 36.988281 1436.398438 35.671875 1461.03125 41.511719 C 1463.679688 66.460938 1461.691406 91.871094 1455.191406 116.121094 C 1449.878906 135.890625 1441.550781 155.171875 1440.96875 175.640625 C 1442.878906 176.628906 1444.871094 178.328125 1446.03125 180.199219 C 1447.191406 182.070312 1447.558594 184.429688 1446.691406 186.378906 C 1445.320312 189.488281 1441.628906 190.609375 1438.808594 192.429688 C 1434.539062 195.210938 1431.800781 201.261719 1431.96875 206.359375 C 1429.941406 213.53125 1429.441406 221.03125 1428.28125 228.410156 C 1427.121094 235.789062 1425.300781 243.25 1420.980469 249.339844 C 1417.421875 254.308594 1417.621094 254.070312 1412.691406 257.710938 L 1413.101562 257.710938 C 1423.050781 260.03125 1434.648438 264.511719 1439.921875 273.25 C 1444.019531 280.128906 1444.019531 288.878906 1441.539062 296.5 C 1439.050781 304.128906 1434.160156 312.289062 1429.191406 318.589844 C 1439.261719 324.480469 1446.769531 334.671875 1449.421875 346.03125 C 1451.332031 354.28125 1450.832031 362.980469 1453.191406 371.148438 C 1456.421875 382.261719 1466.789062 389.308594 1476.441406 396.558594 C 1470.21875 406.839844 1467.609375 418.859375 1465.789062 430.71875 C 1463.96875 442.578125 1462.808594 454.640625 1459.160156 466.078125 C 1455.511719 477.519531 1448.421875 488.710938 1438.230469 495.101562 C 1449.878906 502.890625 1456.21875 517.859375 1453.769531 531.621094 C 1451.320312 545.378906 1440.171875 557.238281 1426.539062 560.511719 C 1425.789062 559.558594 1421.808594 560.589844 1421.191406 561.628906 C 1420.570312 562.671875 1420.648438 563.949219 1420.730469 565.191406 C 1421.808594 577.5 1422.929688 589.851562 1426.039062 601.789062 C 1427.160156 606.058594 1428.609375 610.371094 1431.511719 613.691406 C 1434.742188 617.378906 1439.429688 619.410156 1443.949219 621.320312 C 1437.480469 628.699219 1435.332031 639.808594 1438.148438 649.21875 C 1440.601562 657.46875 1446.609375 664.269531 1449.300781 672.429688 C 1451.699219 679.679688 1451.949219 688.800781 1451.082031 696.429688 C 1449.460938 700.949219 1451.25 706.128906 1454.230469 709.898438 C 1457.210938 713.671875 1461.28125 716.410156 1465.050781 719.429688 C 1470.648438 723.910156 1475.738281 729.050781 1480.140625 734.730469 C 1482.832031 738.210938 1485.320312 742.03125 1486.109375 746.339844 C 1486.949219 752.011719 1484.839844 757.851562 1481.808594 762.828125 Z M 1481.808594 762.828125 " fill-opacity="1" fill-rule="nonzero"/><rect x="-150" width="1800" fill="#709775" y="-149.999993" height="1799.99992" fill-opacity="1"/><path fill="#f2eee8" d="M 1480.226562 383.660156 L 1091.589844 188.183594 C 1082.046875 85.910156 1040.316406 55.5 1015.636719 46.773438 C 992.523438 22.226562 971.523438 0.0664062 749.726562 0.613281 C 497.726562 0 499.363281 30.683594 484.089844 46.773438 C 459.410156 55.433594 417.613281 86.046875 408.066406 188.183594 L 19.773438 383.660156 C 18.324219 384.390625 16.933594 385.214844 15.601562 386.140625 C 14.269531 387.0625 13.003906 388.070312 11.808594 389.167969 C 10.617188 390.265625 9.503906 391.441406 8.472656 392.691406 C 7.4375 393.941406 6.496094 395.257812 5.648438 396.636719 C 4.796875 398.019531 4.046875 399.449219 3.390625 400.933594 C 2.738281 402.417969 2.191406 403.941406 1.75 405.5 C 1.304688 407.0625 0.972656 408.644531 0.75 410.25 C 0.523438 411.855469 0.410156 413.46875 0.410156 415.089844 L 0.410156 1464.476562 C 0.410156 1465.625 0.46875 1466.773438 0.585938 1467.917969 C 0.699219 1469.058594 0.871094 1470.195312 1.09375 1471.324219 C 1.320312 1472.449219 1.601562 1473.5625 1.9375 1474.664062 C 2.269531 1475.761719 2.660156 1476.84375 3.101562 1477.902344 C 3.542969 1478.964844 4.03125 1480.003906 4.574219 1481.015625 C 5.117188 1482.03125 5.707031 1483.015625 6.347656 1483.96875 C 6.988281 1484.925781 7.671875 1485.847656 8.398438 1486.734375 C 9.128906 1487.625 9.902344 1488.472656 10.714844 1489.285156 C 11.527344 1490.097656 12.375 1490.871094 13.265625 1491.597656 C 14.152344 1492.328125 15.074219 1493.011719 16.03125 1493.652344 C 16.984375 1494.292969 17.96875 1494.882812 18.984375 1495.425781 C 19.996094 1495.96875 21.035156 1496.457031 22.097656 1496.898438 C 23.15625 1497.339844 24.238281 1497.730469 25.335938 1498.0625 C 26.4375 1498.398438 27.550781 1498.679688 28.675781 1498.90625 C 29.804688 1499.128906 30.941406 1499.300781 32.082031 1499.414062 C 33.226562 1499.53125 34.375 1499.589844 35.523438 1499.589844 L 1464.476562 1499.589844 C 1465.625 1499.589844 1466.773438 1499.53125 1467.917969 1499.414062 C 1469.0625 1499.300781 1470.195312 1499.128906 1471.324219 1498.90625 C 1472.449219 1498.679688 1473.5625 1498.398438 1474.664062 1498.0625 C 1475.761719 1497.726562 1476.84375 1497.339844 1477.902344 1496.898438 C 1478.964844 1496.457031 1480.003906 1495.96875 1481.015625 1495.425781 C 1482.027344 1494.882812 1483.011719 1494.289062 1483.96875 1493.652344 C 1484.925781 1493.011719 1485.847656 1492.328125 1486.734375 1491.597656 C 1487.621094 1490.871094 1488.472656 1490.097656 1489.285156 1489.285156 C 1490.097656 1488.472656 1490.871094 1487.621094 1491.597656 1486.734375 C 1492.328125 1485.847656 1493.011719 1484.925781 1493.652344 1483.96875 C 1494.292969 1483.011719 1494.882812 1482.027344 1495.425781 1481.015625 C 1495.96875 1480.003906 1496.457031 1478.964844 1496.898438 1477.902344 C 1497.339844 1476.84375 1497.726562 1475.761719 1498.0625 1474.664062 C 1498.398438 1473.5625 1498.679688 1472.449219 1498.90625 1471.324219 C 1499.128906 1470.195312 1499.300781 1469.058594 1499.414062 1467.917969 C 1499.53125 1466.773438 1499.589844 1465.625 1499.589844 1464.476562 L 1499.589844 415.089844 C 1499.589844 413.46875 1499.476562 411.855469 1499.25 410.25 C 1499.027344 408.644531 1498.695312 407.0625 1498.25 405.5 C 1497.808594 403.941406 1497.261719 402.417969 1496.609375 400.933594 C 1495.957031 399.449219 1495.203125 398.019531 1494.351562 396.636719 C 1493.503906 395.257812 1492.5625 393.941406 1491.527344 392.691406 C 1490.496094 391.441406 1489.382812 390.265625 1488.191406 389.167969 C 1486.996094 388.070312 1485.730469 387.0625 1484.398438 386.140625 C 1483.066406 385.214844 1481.675781 384.390625 1480.226562 383.660156 Z M 990.476562 229.910156 C 997.296875 221.183594 1003.226562 212.660156 1008.886719 204.136719 C 1012.433594 198.75 1015.703125 193.433594 1018.976562 188.183594 C 1019.796875 186.886719 1020.816406 185.453125 1021.566406 184.089844 C 1022.214844 197.980469 1022.332031 211.875 1021.917969 225.777344 C 1021.503906 239.675781 1020.5625 253.539062 1019.089844 267.367188 C 1017.621094 281.195312 1015.625 294.945312 1013.105469 308.621094 C 1010.585938 322.296875 1007.546875 335.855469 1003.996094 349.300781 C 1000.441406 362.742188 996.378906 376.03125 991.8125 389.167969 C 987.246094 402.300781 982.1875 415.242188 976.632812 427.992188 C 971.078125 440.738281 965.046875 453.257812 958.539062 465.546875 C 952.027344 477.832031 945.0625 489.855469 937.636719 501.613281 C 899.113281 472.296875 851.589844 437.183594 811.566406 410.726562 C 873.433594 359.105469 930.25 302.421875 982.023438 240.683594 C 985.226562 237.066406 987.75 233.523438 990.476562 229.910156 Z M 531.816406 98.113281 C 553.976562 64.023438 681.816406 71.726562 750 70.839844 C 943.839844 69.816406 957.546875 81.816406 968.183594 98.113281 C 1003.433594 152.660156 799.910156 328.773438 750 370.433594 C 701.046875 329.523438 497.316406 152.183594 531.816406 98.113281 Z M 807.273438 493.023438 L 777.476562 550.839844 L 722.933594 550.839844 L 693.136719 493.023438 C 707.933594 482.523438 734.589844 464.046875 750.339844 454.839844 C 767.726562 465.203125 795.203125 484.636719 807.203125 493.023438 Z M 478.363281 184.089844 C 492.941406 205.464844 508.296875 226.265625 524.425781 246.488281 C 540.558594 266.714844 557.421875 286.3125 575.019531 305.277344 C 592.617188 324.242188 610.894531 342.523438 629.859375 360.125 C 648.820312 377.722656 668.414062 394.59375 688.636719 410.726562 C 648.273438 437.453125 601.226562 472.089844 562.566406 501.613281 C 555.15625 489.847656 548.195312 477.820312 541.695312 465.527344 C 535.195312 453.234375 529.167969 440.714844 523.613281 427.964844 C 518.0625 415.214844 513 402.273438 508.425781 389.140625 C 503.855469 376.007812 499.789062 362.722656 496.222656 349.28125 C 492.660156 335.839844 489.609375 322.28125 487.070312 308.609375 C 484.535156 294.9375 482.519531 281.1875 481.023438 267.363281 C 479.527344 253.539062 478.558594 239.675781 478.117188 225.777344 C 477.671875 211.878906 477.753906 197.984375 478.363281 184.089844 Z M 70.636719 1429.296875 L 70.636719 436.703125 L 375.953125 283.023438 L 187.5 668.183594 C 186.972656 669.238281 186.5 670.316406 186.082031 671.421875 C 185.664062 672.527344 185.300781 673.648438 184.996094 674.789062 C 184.691406 675.929688 184.441406 677.082031 184.253906 678.246094 C 184.066406 679.410156 183.933594 680.582031 183.863281 681.761719 C 183.792969 682.941406 183.78125 684.121094 183.828125 685.296875 C 183.878906 686.476562 183.984375 687.652344 184.152344 688.820312 C 184.316406 689.988281 184.542969 691.148438 184.824219 692.292969 C 185.109375 693.4375 185.449219 694.566406 185.847656 695.679688 C 186.242188 696.792969 186.695312 697.878906 187.203125 698.945312 C 187.707031 700.011719 188.269531 701.050781 188.878906 702.058594 C 189.492188 703.070312 190.152344 704.046875 190.863281 704.988281 C 191.570312 705.933594 192.328125 706.835938 193.128906 707.703125 C 193.929688 708.570312 194.773438 709.394531 195.65625 710.179688 C 196.542969 710.960938 197.464844 711.695312 198.421875 712.382812 C 199.382812 713.074219 200.371094 713.710938 201.394531 714.300781 C 202.417969 714.890625 203.46875 715.425781 204.546875 715.910156 L 359.316406 785.113281 L 278.933594 914.660156 C 277.566406 916.882812 276.460938 919.226562 275.613281 921.695312 C 274.765625 924.164062 274.199219 926.691406 273.910156 929.285156 C 273.621094 931.878906 273.617188 934.472656 273.902344 937.066406 C 274.183594 939.660156 274.75 942.191406 275.589844 944.660156 L 442.5 1428.75 Z M 516.816406 1429.296875 L 347.726562 937.773438 L 440.453125 787.773438 C 441.777344 785.648438 442.859375 783.40625 443.699219 781.050781 C 444.542969 778.691406 445.125 776.273438 445.445312 773.792969 C 445.769531 771.3125 445.828125 768.824219 445.617188 766.328125 C 445.410156 763.835938 444.9375 761.394531 444.203125 759 C 443.457031 756.609375 442.472656 754.320312 441.242188 752.136719 C 440.015625 749.953125 438.574219 747.921875 436.917969 746.042969 C 435.257812 744.160156 433.425781 742.476562 431.414062 740.984375 C 429.402344 739.488281 427.257812 738.222656 424.976562 737.183594 L 266.589844 666.546875 L 422.726562 347.726562 C 433.671875 386.066406 447.132812 423.5 463.113281 460.03125 C 479.09375 496.558594 497.449219 531.851562 518.183594 565.910156 C 553.363281 873.816406 496.703125 378.410156 616.976562 1429.566406 Z M 625.296875 884.660156 L 589.226562 569.589844 C 609.683594 554.113281 609.683594 554.183594 635.25 534.886719 L 664.839844 592.296875 Z M 812.386719 1429.296875 L 687.613281 1429.296875 L 657.816406 1168.636719 L 731.863281 621.136719 L 768.136719 621.136719 L 842.183594 1168.636719 Z M 835.160156 592.296875 L 864.75 534.886719 C 887.933594 552.066406 901.976562 562.839844 910.773438 569.523438 L 874.703125 884.660156 Z M 983.183594 1429.296875 L 883.089844 1429.296875 L 981.816406 565.910156 C 1002.816406 531.992188 1021.308594 496.757812 1037.296875 460.210938 C 1053.289062 423.664062 1066.613281 386.167969 1077.273438 347.726562 L 1233.273438 666.613281 L 1075.160156 737.453125 C 1072.878906 738.496094 1070.734375 739.761719 1068.722656 741.253906 C 1066.710938 742.75 1064.875 744.433594 1063.21875 746.316406 C 1061.5625 748.195312 1060.121094 750.226562 1058.894531 752.410156 C 1057.664062 754.59375 1056.679688 756.882812 1055.933594 759.273438 C 1055.199219 761.664062 1054.726562 764.109375 1054.519531 766.601562 C 1054.308594 769.097656 1054.367188 771.582031 1054.6875 774.066406 C 1055.011719 776.546875 1055.59375 778.964844 1056.4375 781.324219 C 1057.277344 783.679688 1058.359375 785.921875 1059.683594 788.046875 L 1152.410156 938.046875 Z M 1429.363281 1429.296875 L 1057.5 1429.296875 L 1224.410156 945.203125 C 1225.25 942.734375 1225.816406 940.203125 1226.097656 937.609375 C 1226.382812 935.015625 1226.378906 932.425781 1226.089844 929.832031 C 1225.800781 927.238281 1225.234375 924.707031 1224.386719 922.242188 C 1223.539062 919.773438 1222.433594 917.429688 1221.066406 915.203125 L 1140.683594 785.660156 L 1295.453125 715.910156 C 1296.535156 715.429688 1297.585938 714.894531 1298.613281 714.308594 C 1299.640625 713.722656 1300.632812 713.085938 1301.597656 712.402344 C 1302.558594 711.714844 1303.484375 710.980469 1304.371094 710.199219 C 1305.257812 709.421875 1306.105469 708.597656 1306.910156 707.734375 C 1307.714844 706.867188 1308.476562 705.964844 1309.1875 705.019531 C 1309.902344 704.078125 1310.566406 703.101562 1311.179688 702.09375 C 1311.796875 701.085938 1312.359375 700.046875 1312.871094 698.980469 C 1313.378906 697.914062 1313.835938 696.824219 1314.234375 695.714844 C 1314.636719 694.601562 1314.980469 693.472656 1315.265625 692.324219 C 1315.550781 691.179688 1315.78125 690.019531 1315.949219 688.851562 C 1316.117188 687.679688 1316.226562 686.507812 1316.277344 685.324219 C 1316.328125 684.144531 1316.320312 682.964844 1316.253906 681.785156 C 1316.183594 680.605469 1316.054688 679.429688 1315.867188 678.265625 C 1315.679688 677.097656 1315.4375 675.941406 1315.132812 674.800781 C 1314.828125 673.65625 1314.46875 672.535156 1314.050781 671.429688 C 1313.632812 670.320312 1313.164062 669.238281 1312.636719 668.183594 L 1124.046875 283.023438 L 1429.363281 436.703125 Z M 1429.363281 1429.296875 " fill-opacity="1" fill-rule="nonzero"/></svg>