<svg xmlns="http://www.w3.org/2000/svg" xmlns:xlink="http://www.w3.org/1999/xlink" width="2000" zoomAndPan="magnify" viewBox="0 0 1500 1499.999933" height="2000" preserveAspectRatio="xMidYMid meet" version="1.0"><path fill="#ff0000" d="M 1481.808594 762.828125 C 1473.808594 775.96875 1460.210938 783.71875 1446.78125 791.21875 C 1452.460938 799.429688 1452.25 810.449219 1449.71875 820.109375 C 1447.191406 829.769531 1442.589844 838.800781 1440.019531 848.460938 C 1437.449219 858.121094 1438.109375 870.890625 1443.710938 879.128906 C 1436 879.460938 1429.53125 885.640625 1426.378906 892.730469 C 1423.269531 899.820312 1422.769531 907.691406 1422.109375 915.398438 C 1421.449219 923.109375 1420.410156 931.070312 1416.390625 937.660156 L 1416.558594 937.699219 C 1427.628906 942.089844 1439.148438 946.78125 1446.988281 955.769531 C 1449.269531 958.421875 1451.21875 961.410156 1452.421875 964.640625 C 1455.160156 972.101562 1454.039062 980.558594 1450.96875 987.851562 C 1447.898438 995.191406 1443.050781 1001.609375 1438.289062 1007.949219 C 1444.511719 1014.128906 1454.699219 1021.089844 1457.519531 1029.417969 C 1459.300781 1034.730469 1459.46875 1040.449219 1460.261719 1046 C 1463 1065.648438 1473.441406 1084.140625 1472.78125 1103.988281 L 1472.78125 1104.03125 C 1472.738281 1106.058594 1471.25 1107.761719 1469.511719 1108.800781 C 1467.769531 1109.839844 1465.820312 1110.417969 1464.039062 1111.328125 C 1457.859375 1114.480469 1454.589844 1121.488281 1453.300781 1128.328125 C 1452.011719 1135.167969 1452.21875 1142.21875 1450.769531 1149.011719 C 1447.832031 1162.851562 1437.21875 1174.089844 1428.011719 1184.871094 C 1433.03125 1191.171875 1438.121094 1197.550781 1440.980469 1205.058594 C 1443.839844 1212.558594 1444.171875 1221.46875 1439.898438 1228.269531 C 1434.679688 1236.601562 1422.121094 1240.578125 1412.621094 1243.070312 C 1419.628906 1249.871094 1427.050781 1257.371094 1428.449219 1267.03125 C 1429.398438 1273.75 1427.332031 1280.578125 1428.199219 1287.300781 C 1428.949219 1293.101562 1431.890625 1298.449219 1435.660156 1302.890625 C 1439.429688 1307.328125 1444.03125 1311.058594 1448.550781 1314.75 C 1440.339844 1327.058594 1441.171875 1344.679688 1445.03125 1358.980469 C 1448.890625 1373.28125 1455.71875 1386.628906 1459.5 1400.96875 C 1464.351562 1419.25 1464.019531 1438.859375 1458.628906 1456.96875 C 1434.050781 1462.808594 1405.570312 1462.859375 1381.648438 1454.691406 C 1370.671875 1450.917969 1360.140625 1445.738281 1348.78125 1443.289062 C 1337.421875 1440.839844 1323.738281 1441.21875 1314.5 1448.21875 C 1310.269531 1441.261719 1303.761719 1435.699219 1296.21875 1432.679688 C 1287.46875 1429.160156 1277.769531 1429.03125 1268.449219 1427.539062 C 1259.128906 1426.050781 1248.761719 1422.03125 1243.5 1414.191406 C 1241.261719 1424.007812 1236.660156 1433.300781 1230.148438 1441.007812 C 1227.832031 1443.75 1225.011719 1446.441406 1221.449219 1446.980469 C 1218.761719 1447.351562 1216.101562 1446.441406 1213.570312 1445.449219 C 1204.039062 1441.71875 1194.628906 1436 1186.25 1430.109375 C 1181.28125 1429.859375 1176.800781 1433.089844 1173.359375 1436.660156 C 1169.921875 1440.21875 1166.929688 1444.410156 1162.75 1447.058594 C 1152.011719 1453.820312 1137.421875 1448.550781 1125.609375 1453.148438 C 1115.910156 1456.917969 1107.699219 1466.078125 1102.398438 1475.039062 C 1099 1472.140625 1094.441406 1471.140625 1090.011719 1470.769531 C 1085.570312 1470.398438 1081.101562 1470.558594 1076.75 1469.570312 C 1070.238281 1468.121094 1064.519531 1464.257812 1058.179688 1462.230469 C 1049.191406 1459.328125 1039.320312 1460.199219 1030.371094 1457.261719 C 1020.210938 1453.941406 1012.261719 1446.070312 1004.710938 1438.480469 C 995.300781 1445.53125 990.949219 1447.101562 980 1451.449219 C 975.609375 1453.191406 970.839844 1454.71875 966.238281 1453.609375 C 962.429688 1452.660156 959.28125 1450 956.5 1447.230469 C 948.332031 1439.109375 941.738281 1428.660156 937.179688 1418.050781 C 925.238281 1424.179688 910.398438 1419.628906 897.589844 1423.691406 C 888.640625 1426.550781 880.640625 1434.140625 877.53125 1443.050781 C 871.058594 1436.871094 860.738281 1436.828125 852.199219 1439.488281 C 843.660156 1442.140625 835.949219 1446.988281 827.410156 1449.648438 C 815.839844 1453.210938 802.988281 1452.46875 791.929688 1447.539062 L 791.96875 1445.140625 C 787.78125 1461.058594 776.378906 1474.941406 761.589844 1482.121094 C 757.398438 1484.148438 752.761719 1485.679688 748.199219 1484.980469 C 744.351562 1484.359375 740.898438 1482.238281 737.75 1479.960938 C 726.179688 1471.710938 716.320312 1461.058594 708.941406 1448.871094 C 695.800781 1451.109375 682.410156 1453.351562 670.179688 1448.039062 C 663.921875 1445.351562 658.488281 1440.828125 652.109375 1438.460938 C 642.078125 1434.769531 630.058594 1437.167969 622.179688 1444.390625 C 620.601562 1436.71875 614.011719 1430.339844 606.878906 1427.148438 C 599.710938 1423.960938 591.789062 1423.089844 584 1422.261719 C 576.210938 1421.429688 568.289062 1420.519531 561.160156 1417.238281 C 559.921875 1428.640625 555.359375 1437.390625 547.648438 1445.878906 C 544.539062 1449.320312 540.769531 1452.46875 536.210938 1453.179688 C 533.269531 1453.640625 530.238281 1453.011719 527.378906 1452.230469 C 516.929688 1449.410156 507.03125 1444.691406 498.28125 1438.339844 C 484.019531 1443.230469 475.558594 1458.148438 460.851562 1461.429688 C 453.929688 1462.960938 446.550781 1461.601562 439.628906 1463.128906 C 434.199219 1464.328125 429.351562 1467.191406 424 1468.769531 C 414.589844 1471.550781 403.898438 1470.261719 395.480469 1475.28125 C 391.039062 1465.210938 380.230469 1457 369.660156 1453.96875 C 363.441406 1452.191406 356.851562 1452.058594 350.511719 1450.699219 C 338.410156 1448.128906 325.179688 1438.800781 317.851562 1428.859375 C 312.421875 1433.878906 311.421875 1434.828125 305 1438.558594 C 298.570312 1442.289062 291.03125 1444.488281 283.738281 1443.410156 C 277.070312 1442.417969 270.96875 1438.601562 266.699219 1433.417969 C 262.390625 1428.238281 258.910156 1419.621094 258.039062 1412.941406 C 252.441406 1421.890625 242.160156 1427.410156 231.679688 1428.480469 C 224.511719 1429.230469 217.210938 1428.070312 210.128906 1429.390625 C 200.21875 1431.261719 189.738281 1439.710938 185.589844 1448.871094 C 176.839844 1442.398438 165.070312 1441.570312 154.25 1443.070312 C 136.878906 1445.46875 120.71875 1453.058594 103.800781 1457.578125 C 84.28125 1462.800781 57 1462.929688 41.578125 1457 C 36.148438 1438.890625 35.859375 1419.28125 40.710938 1401 C 44.519531 1386.699219 51.359375 1373.308594 55.179688 1359.011719 C 59.039062 1344.710938 59.910156 1327.089844 51.660156 1314.78125 C 56.21875 1311.089844 60.78125 1307.398438 64.550781 1302.917969 C 68.320312 1298.441406 71.269531 1293.140625 72.011719 1287.328125 C 72.878906 1280.609375 70.769531 1273.78125 71.761719 1267.058594 C 73.171875 1257.398438 80.589844 1249.898438 87.589844 1243.101562 C 78.058594 1240.648438 65.539062 1236.628906 60.308594 1228.300781 C 56.039062 1221.5 56.371094 1212.589844 59.230469 1205.089844 C 62.089844 1197.589844 67.191406 1191.160156 72.199219 1184.898438 C 63 1174.121094 52.390625 1162.929688 49.441406 1149.039062 C 47.988281 1142.238281 48.238281 1135.199219 46.910156 1128.359375 C 45.621094 1121.519531 42.351562 1114.519531 36.171875 1111.359375 C 34.390625 1110.449219 32.398438 1109.871094 30.699219 1108.828125 C 28.960938 1107.789062 27.46875 1106.089844 27.429688 1104.058594 L 27.429688 1104.019531 C 26.730469 1084.210938 37.171875 1065.679688 39.949219 1046.03125 C 40.738281 1040.480469 40.898438 1034.761719 42.691406 1029.449219 C 45.511719 1021.121094 55.660156 1014.199219 61.921875 1007.980469 C 57.109375 1001.640625 52.300781 995.210938 49.238281 987.878906 C 46.179688 980.550781 45.011719 972.089844 47.789062 964.671875 C 48.988281 961.398438 50.941406 958.410156 53.21875 955.800781 C 61.011719 946.800781 72.578125 942.078125 83.648438 937.730469 L 83.820312 937.691406 C 79.800781 931.058594 78.800781 923.140625 78.101562 915.429688 C 77.441406 907.71875 76.941406 899.800781 73.828125 892.761719 C 70.71875 885.710938 64.25 879.5 56.5 879.160156 C 62.101562 870.871094 62.761719 858.140625 60.191406 848.488281 C 57.621094 838.839844 53.019531 829.800781 50.488281 820.140625 C 47.960938 810.480469 47.75 799.460938 53.429688 791.25 C 40 783.75 26.398438 776 18.398438 762.859375 C 15.371094 757.929688 13.300781 752.039062 14.339844 746.359375 C 15.128906 742.050781 17.609375 738.238281 20.308594 734.75 C 24.699219 729.070312 29.761719 723.929688 35.398438 719.449219 C 39.171875 716.46875 43.230469 713.691406 46.21875 709.921875 C 49.199219 706.148438 50.988281 701.011719 49.371094 696.449219 C 48.5 688.859375 48.75 679.738281 51.148438 672.449219 C 53.839844 664.28125 59.851562 657.488281 62.300781 649.238281 C 65.121094 639.828125 62.960938 628.71875 56.5 621.339844 C 61.019531 619.429688 65.699219 617.398438 68.941406 613.710938 C 71.839844 610.390625 73.289062 606.078125 74.410156 601.808594 C 77.558594 589.871094 78.640625 577.480469 79.71875 565.210938 C 79.839844 564.011719 79.929688 562.679688 79.261719 561.648438 C 78.640625 560.609375 74.660156 559.578125 73.910156 560.53125 C 60.308594 557.261719 49.160156 545.441406 46.679688 531.640625 C 44.191406 517.839844 50.578125 502.910156 62.21875 495.121094 C 52.058594 488.738281 44.929688 477.539062 41.289062 466.101562 C 37.648438 454.660156 36.480469 442.601562 34.660156 430.738281 C 32.839844 418.878906 30.179688 406.859375 24.011719 396.578125 C 33.671875 389.328125 44.070312 382.320312 47.261719 371.171875 C 49.621094 363.050781 49.078125 354.300781 51.03125 346.050781 C 53.679688 334.648438 61.191406 324.5 71.261719 318.609375 C 66.289062 312.308594 61.390625 304.140625 58.910156 296.519531 C 56.421875 288.890625 56.378906 280.148438 60.53125 273.269531 C 65.75 264.519531 77.398438 260.050781 87.351562 257.730469 L 87.761719 257.730469 C 82.828125 254.078125 83.03125 254.328125 79.46875 249.359375 C 75.160156 243.308594 73.289062 235.808594 72.171875 228.429688 C 71.050781 221.050781 70.550781 213.550781 68.480469 206.378906 C 68.648438 201.28125 65.910156 195.230469 61.640625 192.449219 C 58.820312 190.628906 55.128906 189.46875 53.761719 186.398438 C 52.890625 184.410156 53.300781 182.050781 54.421875 180.21875 C 55.539062 178.398438 57.570312 176.699219 59.480469 175.660156 C 58.859375 155.21875 50.53125 135.910156 45.261719 116.140625 C 38.75 91.890625 36.761719 66.480469 39.421875 41.53125 C 54.878906 35.601562 84.398438 37.050781 103.921875 42.28125 C 120.828125 46.800781 137 54.378906 154.371094 56.789062 C 165.148438 58.28125 176.921875 57.449219 185.710938 50.988281 C 189.859375 60.191406 200.339844 68.648438 210.25 70.46875 C 217.339844 71.800781 224.628906 70.640625 231.800781 71.378906 C 242.328125 72.460938 252.570312 77.96875 258.160156 86.921875 C 259.070312 80.25 262.550781 71.671875 266.820312 66.441406 C 271.128906 61.261719 277.21875 57.488281 283.859375 56.449219 C 291.199219 55.328125 298.699219 57.570312 305.121094 61.300781 C 311.550781 64.988281 312.539062 65.941406 317.96875 71 C 325.351562 61.050781 338.53125 51.71875 350.628906 49.148438 C 356.96875 47.820312 363.558594 47.660156 369.78125 45.878906 C 380.390625 42.851562 391.171875 34.691406 395.601562 24.570312 C 404.058594 29.589844 414.710938 28.261719 424.121094 31.078125 C 429.429688 32.660156 434.320312 35.519531 439.75 36.71875 C 446.710938 38.25 454.050781 36.890625 460.96875 38.421875 C 475.691406 41.691406 484.140625 56.660156 498.398438 61.511719 C 507.148438 55.171875 517.050781 50.398438 527.5 47.621094 C 530.398438 46.828125 533.390625 46.210938 536.328125 46.671875 C 540.890625 47.371094 544.699219 50.53125 547.769531 53.96875 C 555.441406 62.46875 560.039062 71.210938 561.28125 82.609375 C 568.410156 79.339844 576.328125 78.421875 584.121094 77.589844 C 591.910156 76.761719 599.832031 75.890625 607 72.699219 C 614.171875 69.511719 620.71875 63.121094 622.300781 55.460938 C 630.179688 62.710938 642.199219 65.078125 652.230469 61.390625 C 658.648438 59.03125 664.039062 54.511719 670.300781 51.808594 C 682.53125 46.550781 695.921875 48.78125 709.058594 50.980469 C 716.441406 38.789062 726.300781 28.179688 737.871094 19.890625 C 741.058594 17.609375 744.460938 15.5 748.320312 14.871094 C 752.921875 14.171875 757.558594 15.699219 761.710938 17.730469 C 776.511719 24.898438 787.910156 38.789062 792.089844 54.710938 L 792.050781 52.308594 C 803.121094 47.378906 815.96875 46.628906 827.53125 50.199219 C 836.070312 52.851562 843.78125 57.699219 852.320312 60.359375 C 860.859375 63.011719 871.140625 62.929688 877.648438 56.800781 C 880.71875 65.671875 888.71875 73.300781 897.710938 76.160156 C 910.519531 80.21875 925.359375 75.660156 937.300781 81.800781 C 941.859375 71.191406 948.449219 60.78125 956.621094 52.621094 C 959.398438 49.839844 962.550781 47.191406 966.359375 46.238281 C 970.960938 45.121094 975.730469 46.648438 980.121094 48.398438 C 991.019531 52.75 995.421875 54.328125 1004.832031 61.371094 C 1012.371094 53.78125 1020.289062 45.949219 1030.488281 42.589844 C 1039.441406 39.648438 1049.351562 40.519531 1058.300781 37.621094 C 1064.640625 35.589844 1070.359375 31.730469 1076.871094 30.28125 C 1081.21875 29.328125 1085.699219 29.488281 1090.128906 29.078125 C 1094.570312 28.710938 1099.128906 27.671875 1102.519531 24.808594 C 1107.832031 33.761719 1115.988281 42.96875 1125.730469 46.699219 C 1137.589844 51.261719 1152.179688 46 1162.871094 52.789062 C 1167.101562 55.441406 1170.039062 59.628906 1173.480469 63.191406 C 1176.921875 66.75 1181.398438 69.988281 1186.371094 69.738281 C 1194.738281 63.898438 1204.191406 58.171875 1213.691406 54.398438 C 1216.21875 53.410156 1218.871094 52.488281 1221.570312 52.871094 C 1225.128906 53.371094 1227.949219 56.058594 1230.269531 58.839844 C 1236.78125 66.550781 1241.378906 75.839844 1243.621094 85.660156 C 1248.878906 77.828125 1259.25 73.800781 1268.570312 72.308594 C 1277.898438 70.820312 1287.550781 70.691406 1296.339844 67.171875 C 1303.878906 64.140625 1310.390625 58.589844 1314.621094 51.628906 C 1323.859375 58.679688 1337.539062 59.050781 1348.898438 56.558594 C 1360.261719 54.109375 1370.789062 48.890625 1381.769531 45.160156 C 1405.691406 36.988281 1436.398438 35.671875 1461.03125 41.511719 C 1463.679688 66.460938 1461.691406 91.871094 1455.191406 116.121094 C 1449.878906 135.890625 1441.550781 155.171875 1440.96875 175.640625 C 1442.878906 176.628906 1444.871094 178.328125 1446.03125 180.199219 C 1447.191406 182.070312 1447.558594 184.429688 1446.691406 186.378906 C 1445.320312 189.488281 1441.628906 190.609375 1438.808594 192.429688 C 1434.539062 195.210938 1431.800781 201.261719 1431.96875 206.359375 C 1429.941406 213.53125 1429.441406 221.03125 1428.28125 228.410156 C 1427.121094 235.789062 1425.300781 243.25 1420.980469 249.339844 C 1417.421875 254.308594 1417.621094 254.070312 1412.691406 257.710938 L 1413.101562 257.710938 C 1423.050781 260.03125 1434.648438 264.511719 1439.921875 273.25 C 1444.019531 280.128906 1444.019531 288.878906 1441.539062 296.5 C 1439.050781 304.128906 1434.160156 312.289062 1429.191406 318.589844 C 1439.261719 324.480469 1446.769531 334.671875 1449.421875 346.03125 C 1451.332031 354.28125 1450.832031 362.980469 1453.191406 371.148438 C 1456.421875 382.261719 1466.789062 389.308594 1476.441406 396.558594 C 1470.21875 406.839844 1467.609375 418.859375 1465.789062 430.71875 C 1463.96875 442.578125 1462.808594 454.640625 1459.160156 466.078125 C 1455.511719 477.519531 1448.421875 488.710938 1438.230469 495.101562 C 1449.878906 502.890625 1456.21875 517.859375 1453.769531 531.621094 C 1451.320312 545.378906 1440.171875 557.238281 1426.539062 560.511719 C 1425.789062 559.558594 1421.808594 560.589844 1421.191406 561.628906 C 1420.570312 562.671875 1420.648438 563.949219 1420.730469 565.191406 C 1421.808594 577.5 1422.929688 589.851562 1426.039062 601.789062 C 1427.160156 606.058594 1428.609375 610.371094 1431.511719 613.691406 C 1434.742188 617.378906 1439.429688 619.410156 1443.949219 621.320312 C 1437.480469 628.699219 1435.332031 639.808594 1438.148438 649.21875 C 1440.601562 657.46875 1446.609375 664.269531 1449.300781 672.429688 C 1451.699219 679.679688 1451.949219 688.800781 1451.082031 696.429688 C 1449.460938 700.949219 1451.25 706.128906 1454.230469 709.898438 C 1457.210938 713.671875 1461.28125 716.410156 1465.050781 719.429688 C 1470.648438 723.910156 1475.738281 729.050781 1480.140625 734.730469 C 1482.832031 738.210938 1485.320312 742.03125 1486.109375 746.339844 C 1486.949219 752.011719 1484.839844 757.851562 1481.808594 762.828125 Z M 1481.808594 762.828125 " fill-opacity="1" fill-rule="nonzero"/><rect x="-150" width="1800" fill="#709775" y="-149.999993" height="1799.99992" fill-opacity="1"/><path fill="#f2eee8" d="M 1493.296875 431.296875 L 1158.316406 181.382812 C 1154.554688 153.628906 1145.136719 129.371094 1130.328125 109.261719 C 1121.589844 97.175781 1110.78125 86.515625 1098.191406 77.601562 L 1097.273438 76.949219 C 1095.171875 75.46875 1092.921875 73.898438 1090.167969 72.476562 L 1089.128906 71.796875 L 1088.714844 71.617188 C 1086.582031 70.667969 1084.421875 69.722656 1082.703125 69.160156 C 977.707031 24.375 860.984375 0.742188 745.238281 0.742188 C 629.636719 0.742188 515.28125 24.316406 414.492188 68.921875 C 412.566406 69.78125 410.671875 70.609375 408.539062 71.46875 L 407.769531 71.765625 L 407.117188 72.269531 L 406.703125 72.683594 C 403.949219 74.28125 401.402344 76.121094 398.855469 77.957031 C 386.859375 86.398438 376.226562 96.882812 367.195312 109.171875 C 352.238281 129.519531 342.816406 153.570312 339.175781 180.90625 L 3.8125 431.296875 C -0.570312 434.554688 -3.03125 439.769531 -2.792969 445.246094 C -2.554688 450.695312 0.375 455.671875 5.027344 458.546875 L 183.089844 568.398438 L 31.179688 701.351562 C 25.046875 706.714844 23.773438 715.894531 28.304688 722.886719 C 187.234375 964.269531 368.289062 1173.523438 581.6875 1362.601562 C 588.5 1368.761719 595.546875 1374.921875 602.507812 1380.789062 C 628.75 1403.890625 656.117188 1427.019531 686.265625 1451.605469 L 712.0625 1472.160156 C 720.832031 1479.179688 729.835938 1486.199219 738.632812 1493.011719 C 741.503906 1495.203125 745.058594 1496.417969 748.671875 1496.417969 C 752.226562 1496.417969 755.632812 1495.289062 758.742188 1492.980469 C 767.507812 1486.199219 776.484375 1479.179688 785.042969 1472.367188 L 802.636719 1458.269531 C 805.273438 1456.136719 807.9375 1453.972656 810.808594 1451.8125 L 814.957031 1448.523438 L 817.058594 1446.65625 L 817.058594 1446.597656 C 841.554688 1426.605469 866.996094 1405.074219 894.71875 1380.847656 C 901.765625 1374.894531 908.609375 1368.734375 915.390625 1362.601562 C 1128.523438 1173.996094 1309.546875 964.746094 1468.921875 722.679688 C 1473.332031 715.867188 1472.058594 706.683594 1465.957031 701.324219 L 1314.253906 568.367188 L 1492.109375 458.515625 C 1496.761719 455.644531 1499.691406 450.667969 1499.929688 445.21875 C 1500.136719 439.796875 1497.679688 434.585938 1493.296875 431.296875 Z M 1084.984375 109.378906 C 1091.914062 114.890625 1098.105469 121.433594 1103.433594 128.898438 C 1114.363281 143.589844 1121.589844 161.597656 1124.910156 182.449219 C 1090.878906 264.191406 997.460938 382.515625 926.082031 450.933594 C 920.574219 411.660156 908.578125 376.179688 890.394531 345.199219 C 886.660156 338.976562 881.625 330.832031 875.671875 322.894531 C 869.839844 314.988281 863.738281 307.613281 857.605469 301.039062 C 853.578125 296.566406 849.105469 292.09375 844.515625 287.710938 L 842.917969 286.257812 L 857.695312 275.03125 L 1082.554688 107.308594 C 1083.355469 107.957031 1084.152344 108.640625 1084.984375 109.378906 Z M 816.910156 264.222656 L 680.609375 264.222656 L 536.816406 156.976562 C 606.566406 146.078125 677.738281 140.539062 748.640625 140.539062 C 818.746094 140.539062 890.066406 145.929688 960.855469 156.621094 Z M 841.167969 332.582031 L 817 430.585938 C 816.761719 430.792969 816.261719 431.089844 815.460938 431.328125 C 808.46875 433.339844 800.175781 435.058594 788.746094 436.835938 C 778.972656 438.078125 768.753906 438.96875 759.484375 439.414062 C 758.296875 439.414062 757.113281 439.472656 755.929688 439.53125 C 754.921875 439.589844 753.914062 439.621094 752.9375 439.621094 L 744.40625 439.621094 C 743.398438 439.621094 739.136719 439.414062 738.246094 439.414062 C 738.1875 439.414062 738.15625 439.414062 738.097656 439.414062 C 728.441406 438.96875 718.078125 438.078125 708.304688 436.863281 C 696.988281 435.058594 688.902344 433.371094 681.972656 431.296875 C 681.261719 431.089844 680.789062 430.851562 680.667969 430.851562 C 680.640625 430.851562 680.640625 430.851562 680.640625 430.882812 L 656.382812 332.582031 C 666.867188 319.933594 678.359375 308.769531 691.539062 298.492188 L 692.84375 297.394531 L 804.710938 297.394531 L 806.160156 298.636719 C 819.191406 308.769531 830.65625 319.902344 841.167969 332.582031 Z M 1102.695312 289.84375 C 1054.507812 528.59375 983.542969 782.625 891.460938 1045.71875 L 890.984375 1039.382812 L 842.175781 452.148438 C 845.550781 448.207031 847.953125 443.648438 849.046875 439.027344 L 866.105469 369.871094 C 884.085938 403.367188 894.097656 442.492188 895.902344 486.652344 C 896.316406 495.449219 903.601562 502.351562 912.429688 502.351562 C 916.367188 502.351562 920.070312 500.957031 923.152344 498.324219 C 971.160156 457.359375 1047.011719 373.304688 1102.695312 289.84375 Z M 745.238281 33.914062 C 848.601562 33.914062 953.273438 53.640625 1048.554688 90.988281 L 997.789062 128.929688 C 914.652344 114.59375 830.683594 107.335938 748.226562 107.335938 C 664.972656 107.335938 581.449219 114.742188 499.941406 129.371094 L 448.375 90.691406 C 539.746094 53.519531 642.164062 33.914062 745.238281 33.914062 Z M 394.117188 128.839844 C 399.625 121.199219 406.050781 114.445312 413.664062 108.3125 C 414.019531 107.957031 414.433594 107.601562 414.847656 107.246094 L 434.21875 121.730469 L 465.671875 145.097656 L 489.753906 163.285156 L 639.558594 275.03125 L 654.546875 286.316406 L 652.976562 287.738281 C 648.890625 291.441406 644.714844 295.675781 639.972656 300.949219 C 633.753906 307.613281 627.652344 314.988281 621.878906 322.835938 C 616.25 330.328125 611.421875 337.675781 607.097656 345.226562 C 588.675781 376.535156 576.679688 412.015625 571.378906 450.875 C 500 382.457031 406.613281 264.132812 372.613281 182.417969 C 375.929688 161.625 383.128906 143.617188 394.117188 128.839844 Z M 653.390625 449.71875 L 605.378906 1043.824219 C 514.15625 783.632812 443.222656 530.011719 394.324219 289.132812 C 449.886719 372.773438 525.914062 457.152344 574.460938 498.617188 C 577.480469 501.195312 581.152344 502.558594 585.0625 502.558594 C 593.890625 502.558594 601.144531 495.65625 601.617188 486.269531 C 603.21875 442.90625 613.171875 403.902344 631.414062 369.898438 L 648.445312 438.996094 C 649.363281 442.878906 651.023438 446.492188 653.390625 449.71875 Z M 707 1425.984375 C 676.078125 1400.691406 644.121094 1373.648438 612.015625 1345.632812 C 605.054688 1339.558594 598.09375 1333.457031 591.28125 1327.089844 C 388.753906 1145.652344 216.113281 945.96875 63.582031 716.695312 L 221.53125 578.527344 C 225.5 575.03125 227.546875 570.027344 227.101562 564.753906 C 226.65625 559.484375 223.8125 554.863281 219.3125 552.109375 L 42.9375 443.441406 L 346.28125 217.042969 C 399.179688 501.402344 487.53125 817.988281 602.003906 1133.210938 C 604.253906 1139.816406 606.625 1146.304688 609.023438 1152.878906 L 620.425781 1183.800781 C 652.769531 1270.785156 684.933594 1353.214844 716.09375 1428.886719 L 718.847656 1435.492188 Z M 750.746094 1415.824219 C 750.0625 1417.574219 749.382812 1419.292969 748.671875 1421.039062 L 746.449219 1415.292969 C 710.671875 1327.917969 675.457031 1237.289062 641.722656 1145.800781 C 639.828125 1140.882812 638.109375 1135.789062 636.359375 1130.8125 L 634.9375 1126.695312 L 633.398438 1122.460938 L 635.265625 1086.476562 L 685.289062 466.808594 C 690.472656 467.84375 696.277344 468.765625 703.148438 469.710938 C 715.855469 471.457031 727.289062 472.40625 737.566406 472.554688 C 739.550781 472.792969 741.742188 472.820312 743.695312 472.820312 C 744.316406 472.820312 745 472.878906 745.679688 472.910156 C 746.65625 472.96875 747.695312 473.027344 748.703125 473.027344 C 749.707031 473.027344 750.625 472.96875 751.574219 472.910156 C 752.285156 472.851562 752.964844 472.820312 753.738281 472.820312 C 755.691406 472.820312 757.617188 472.820312 759.304688 472.613281 C 770.292969 472.40625 782.050781 471.429688 794.34375 469.710938 C 799.910156 468.882812 805.0625 468.113281 809.980469 467.195312 L 861.515625 1087.867188 L 864.476562 1121.039062 L 861.8125 1128.207031 L 855.265625 1146.390625 C 822.507812 1235.660156 787.351562 1326.230469 750.746094 1415.824219 Z M 1277.945312 552.078125 C 1273.441406 554.863281 1270.597656 559.484375 1270.15625 564.726562 C 1269.710938 569.996094 1271.753906 575.003906 1275.722656 578.496094 L 1433.496094 716.664062 C 1280.996094 946.144531 1108.351562 1145.859375 905.292969 1327.535156 C 898.714844 1333.488281 892.113281 1339.410156 885.300781 1345.394531 C 853.609375 1373.292969 821.589844 1400.394531 789.929688 1426.101562 L 788.152344 1427.703125 L 784.894531 1430.308594 C 782.761719 1431.996094 780.628906 1433.714844 778.644531 1435.402344 C 779.535156 1433.269531 780.394531 1431.136719 781.222656 1429.003906 C 814.839844 1346.371094 846.886719 1264.09375 876.414062 1184.480469 L 878.546875 1178.914062 C 881.125 1172.160156 883.671875 1165.496094 886.070312 1158.710938 L 894.808594 1134.691406 C 1012.035156 811.796875 1098.015625 503.148438 1150.410156 217.128906 L 1454.140625 443.410156 Z M 1277.945312 552.078125 " fill-opacity="1" fill-rule="nonzero"/></svg>