<svg xmlns="http://www.w3.org/2000/svg" xmlns:xlink="http://www.w3.org/1999/xlink" width="2000" zoomAndPan="magnify" viewBox="0 0 1500 1499.999933" height="2000" preserveAspectRatio="xMidYMid meet" version="1.0"><path fill="#ff0000" d="M 1481.808594 762.828125 C 1473.808594 775.96875 1460.210938 783.71875 1446.78125 791.21875 C 1452.460938 799.429688 1452.25 810.449219 1449.71875 820.109375 C 1447.191406 829.769531 1442.589844 838.800781 1440.019531 848.460938 C 1437.449219 858.121094 1438.109375 870.890625 1443.710938 879.128906 C 1436 879.460938 1429.53125 885.640625 1426.378906 892.730469 C 1423.269531 899.820312 1422.769531 907.691406 1422.109375 915.398438 C 1421.449219 923.109375 1420.410156 931.070312 1416.390625 937.660156 L 1416.558594 937.699219 C 1427.628906 942.089844 1439.148438 946.78125 1446.988281 955.769531 C 1449.269531 958.421875 1451.21875 961.410156 1452.421875 964.640625 C 1455.160156 972.101562 1454.039062 980.558594 1450.96875 987.851562 C 1447.898438 995.191406 1443.050781 1001.609375 1438.289062 1007.949219 C 1444.511719 1014.128906 1454.699219 1021.089844 1457.519531 1029.417969 C 1459.300781 1034.730469 1459.46875 1040.449219 1460.261719 1046 C 1463 1065.648438 1473.441406 1084.140625 1472.78125 1103.988281 L 1472.78125 1104.03125 C 1472.738281 1106.058594 1471.25 1107.761719 1469.511719 1108.800781 C 1467.769531 1109.839844 1465.820312 1110.417969 1464.039062 1111.328125 C 1457.859375 1114.480469 1454.589844 1121.488281 1453.300781 1128.328125 C 1452.011719 1135.167969 1452.21875 1142.21875 1450.769531 1149.011719 C 1447.832031 1162.851562 1437.21875 1174.089844 1428.011719 1184.871094 C 1433.03125 1191.171875 1438.121094 1197.550781 1440.980469 1205.058594 C 1443.839844 1212.558594 1444.171875 1221.46875 1439.898438 1228.269531 C 1434.679688 1236.601562 1422.121094 1240.578125 1412.621094 1243.070312 C 1419.628906 1249.871094 1427.050781 1257.371094 1428.449219 1267.03125 C 1429.398438 1273.75 1427.332031 1280.578125 1428.199219 1287.300781 C 1428.949219 1293.101562 1431.890625 1298.449219 1435.660156 1302.890625 C 1439.429688 1307.328125 1444.03125 1311.058594 1448.550781 1314.75 C 1440.339844 1327.058594 1441.171875 1344.679688 1445.03125 1358.980469 C 1448.890625 1373.28125 1455.71875 1386.628906 1459.5 1400.96875 C 1464.351562 1419.25 1464.019531 1438.859375 1458.628906 1456.96875 C 1434.050781 1462.808594 1405.570312 1462.859375 1381.648438 1454.691406 C 1370.671875 1450.917969 1360.140625 1445.738281 1348.78125 1443.289062 C 1337.421875 1440.839844 1323.738281 1441.21875 1314.5 1448.21875 C 1310.269531 1441.261719 1303.761719 1435.699219 1296.21875 1432.679688 C 1287.46875 1429.160156 1277.769531 1429.03125 1268.449219 1427.539062 C 1259.128906 1426.050781 1248.761719 1422.03125 1243.5 1414.191406 C 1241.261719 1424.007812 1236.660156 1433.300781 1230.148438 1441.007812 C 1227.832031 1443.75 1225.011719 1446.441406 1221.449219 1446.980469 C 1218.761719 1447.351562 1216.101562 1446.441406 1213.570312 1445.449219 C 1204.039062 1441.71875 1194.628906 1436 1186.25 1430.109375 C 1181.28125 1429.859375 1176.800781 1433.089844 1173.359375 1436.660156 C 1169.921875 1440.21875 1166.929688 1444.410156 1162.75 1447.058594 C 1152.011719 1453.820312 1137.421875 1448.550781 1125.609375 1453.148438 C 1115.910156 1456.917969 1107.699219 1466.078125 1102.398438 1475.039062 C 1099 1472.140625 1094.441406 1471.140625 1090.011719 1470.769531 C 1085.570312 1470.398438 1081.101562 1470.558594 1076.75 1469.570312 C 1070.238281 1468.121094 1064.519531 1464.257812 1058.179688 1462.230469 C 1049.191406 1459.328125 1039.320312 1460.199219 1030.371094 1457.261719 C 1020.210938 1453.941406 1012.261719 1446.070312 1004.710938 1438.480469 C 995.300781 1445.53125 990.949219 1447.101562 980 1451.449219 C 975.609375 1453.191406 970.839844 1454.71875 966.238281 1453.609375 C 962.429688 1452.660156 959.28125 1450 956.5 1447.230469 C 948.332031 1439.109375 941.738281 1428.660156 937.179688 1418.050781 C 925.238281 1424.179688 910.398438 1419.628906 897.589844 1423.691406 C 888.640625 1426.550781 880.640625 1434.140625 877.53125 1443.050781 C 871.058594 1436.871094 860.738281 1436.828125 852.199219 1439.488281 C 843.660156 1442.140625 835.949219 1446.988281 827.410156 1449.648438 C 815.839844 1453.210938 802.988281 1452.46875 791.929688 1447.539062 L 791.96875 1445.140625 C 787.78125 1461.058594 776.378906 1474.941406 761.589844 1482.121094 C 757.398438 1484.148438 752.761719 1485.679688 748.199219 1484.980469 C 744.351562 1484.359375 740.898438 1482.238281 737.75 1479.960938 C 726.179688 1471.710938 716.320312 1461.058594 708.941406 1448.871094 C 695.800781 1451.109375 682.410156 1453.351562 670.179688 1448.039062 C 663.921875 1445.351562 658.488281 1440.828125 652.109375 1438.460938 C 642.078125 1434.769531 630.058594 1437.167969 622.179688 1444.390625 C 620.601562 1436.71875 614.011719 1430.339844 606.878906 1427.148438 C 599.710938 1423.960938 591.789062 1423.089844 584 1422.261719 C 576.210938 1421.429688 568.289062 1420.519531 561.160156 1417.238281 C 559.921875 1428.640625 555.359375 1437.390625 547.648438 1445.878906 C 544.539062 1449.320312 540.769531 1452.46875 536.210938 1453.179688 C 533.269531 1453.640625 530.238281 1453.011719 527.378906 1452.230469 C 516.929688 1449.410156 507.03125 1444.691406 498.28125 1438.339844 C 484.019531 1443.230469 475.558594 1458.148438 460.851562 1461.429688 C 453.929688 1462.960938 446.550781 1461.601562 439.628906 1463.128906 C 434.199219 1464.328125 429.351562 1467.191406 424 1468.769531 C 414.589844 1471.550781 403.898438 1470.261719 395.480469 1475.28125 C 391.039062 1465.210938 380.230469 1457 369.660156 1453.96875 C 363.441406 1452.191406 356.851562 1452.058594 350.511719 1450.699219 C 338.410156 1448.128906 325.179688 1438.800781 317.851562 1428.859375 C 312.421875 1433.878906 311.421875 1434.828125 305 1438.558594 C 298.570312 1442.289062 291.03125 1444.488281 283.738281 1443.410156 C 277.070312 1442.417969 270.96875 1438.601562 266.699219 1433.417969 C 262.390625 1428.238281 258.910156 1419.621094 258.039062 1412.941406 C 252.441406 1421.890625 242.160156 1427.410156 231.679688 1428.480469 C 224.511719 1429.230469 217.210938 1428.070312 210.128906 1429.390625 C 200.21875 1431.261719 189.738281 1439.710938 185.589844 1448.871094 C 176.839844 1442.398438 165.070312 1441.570312 154.25 1443.070312 C 136.878906 1445.46875 120.71875 1453.058594 103.800781 1457.578125 C 84.28125 1462.800781 57 1462.929688 41.578125 1457 C 36.148438 1438.890625 35.859375 1419.28125 40.710938 1401 C 44.519531 1386.699219 51.359375 1373.308594 55.179688 1359.011719 C 59.039062 1344.710938 59.910156 1327.089844 51.660156 1314.78125 C 56.21875 1311.089844 60.78125 1307.398438 64.550781 1302.917969 C 68.320312 1298.441406 71.269531 1293.140625 72.011719 1287.328125 C 72.878906 1280.609375 70.769531 1273.78125 71.761719 1267.058594 C 73.171875 1257.398438 80.589844 1249.898438 87.589844 1243.101562 C 78.058594 1240.648438 65.539062 1236.628906 60.308594 1228.300781 C 56.039062 1221.5 56.371094 1212.589844 59.230469 1205.089844 C 62.089844 1197.589844 67.191406 1191.160156 72.199219 1184.898438 C 63 1174.121094 52.390625 1162.929688 49.441406 1149.039062 C 47.988281 1142.238281 48.238281 1135.199219 46.910156 1128.359375 C 45.621094 1121.519531 42.351562 1114.519531 36.171875 1111.359375 C 34.390625 1110.449219 32.398438 1109.871094 30.699219 1108.828125 C 28.960938 1107.789062 27.46875 1106.089844 27.429688 1104.058594 L 27.429688 1104.019531 C 26.730469 1084.210938 37.171875 1065.679688 39.949219 1046.03125 C 40.738281 1040.480469 40.898438 1034.761719 42.691406 1029.449219 C 45.511719 1021.121094 55.660156 1014.199219 61.921875 1007.980469 C 57.109375 1001.640625 52.300781 995.210938 49.238281 987.878906 C 46.179688 980.550781 45.011719 972.089844 47.789062 964.671875 C 48.988281 961.398438 50.941406 958.410156 53.21875 955.800781 C 61.011719 946.800781 72.578125 942.078125 83.648438 937.730469 L 83.820312 937.691406 C 79.800781 931.058594 78.800781 923.140625 78.101562 915.429688 C 77.441406 907.71875 76.941406 899.800781 73.828125 892.761719 C 70.71875 885.710938 64.25 879.5 56.5 879.160156 C 62.101562 870.871094 62.761719 858.140625 60.191406 848.488281 C 57.621094 838.839844 53.019531 829.800781 50.488281 820.140625 C 47.960938 810.480469 47.75 799.460938 53.429688 791.25 C 40 783.75 26.398438 776 18.398438 762.859375 C 15.371094 757.929688 13.300781 752.039062 14.339844 746.359375 C 15.128906 742.050781 17.609375 738.238281 20.308594 734.75 C 24.699219 729.070312 29.761719 723.929688 35.398438 719.449219 C 39.171875 716.46875 43.230469 713.691406 46.21875 709.921875 C 49.199219 706.148438 50.988281 701.011719 49.371094 696.449219 C 48.5 688.859375 48.75 679.738281 51.148438 672.449219 C 53.839844 664.28125 59.851562 657.488281 62.300781 649.238281 C 65.121094 639.828125 62.960938 628.71875 56.5 621.339844 C 61.019531 619.429688 65.699219 617.398438 68.941406 613.710938 C 71.839844 610.390625 73.289062 606.078125 74.410156 601.808594 C 77.558594 589.871094 78.640625 577.480469 79.71875 565.210938 C 79.839844 564.011719 79.929688 562.679688 79.261719 561.648438 C 78.640625 560.609375 74.660156 559.578125 73.910156 560.53125 C 60.308594 557.261719 49.160156 545.441406 46.679688 531.640625 C 44.191406 517.839844 50.578125 502.910156 62.21875 495.121094 C 52.058594 488.738281 44.929688 477.539062 41.289062 466.101562 C 37.648438 454.660156 36.480469 442.601562 34.660156 430.738281 C 32.839844 418.878906 30.179688 406.859375 24.011719 396.578125 C 33.671875 389.328125 44.070312 382.320312 47.261719 371.171875 C 49.621094 363.050781 49.078125 354.300781 51.03125 346.050781 C 53.679688 334.648438 61.191406 324.5 71.261719 318.609375 C 66.289062 312.308594 61.390625 304.140625 58.910156 296.519531 C 56.421875 288.890625 56.378906 280.148438 60.53125 273.269531 C 65.75 264.519531 77.398438 260.050781 87.351562 257.730469 L 87.761719 257.730469 C 82.828125 254.078125 83.03125 254.328125 79.46875 249.359375 C 75.160156 243.308594 73.289062 235.808594 72.171875 228.429688 C 71.050781 221.050781 70.550781 213.550781 68.480469 206.378906 C 68.648438 201.28125 65.910156 195.230469 61.640625 192.449219 C 58.820312 190.628906 55.128906 189.46875 53.761719 186.398438 C 52.890625 184.410156 53.300781 182.050781 54.421875 180.21875 C 55.539062 178.398438 57.570312 176.699219 59.480469 175.660156 C 58.859375 155.21875 50.53125 135.910156 45.261719 116.140625 C 38.75 91.890625 36.761719 66.480469 39.421875 41.53125 C 54.878906 35.601562 84.398438 37.050781 103.921875 42.28125 C 120.828125 46.800781 137 54.378906 154.371094 56.789062 C 165.148438 58.28125 176.921875 57.449219 185.710938 50.988281 C 189.859375 60.191406 200.339844 68.648438 210.25 70.46875 C 217.339844 71.800781 224.628906 70.640625 231.800781 71.378906 C 242.328125 72.460938 252.570312 77.96875 258.160156 86.921875 C 259.070312 80.25 262.550781 71.671875 266.820312 66.441406 C 271.128906 61.261719 277.21875 57.488281 283.859375 56.449219 C 291.199219 55.328125 298.699219 57.570312 305.121094 61.300781 C 311.550781 64.988281 312.539062 65.941406 317.96875 71 C 325.351562 61.050781 338.53125 51.71875 350.628906 49.148438 C 356.96875 47.820312 363.558594 47.660156 369.78125 45.878906 C 380.390625 42.851562 391.171875 34.691406 395.601562 24.570312 C 404.058594 29.589844 414.710938 28.261719 424.121094 31.078125 C 429.429688 32.660156 434.320312 35.519531 439.75 36.71875 C 446.710938 38.25 454.050781 36.890625 460.96875 38.421875 C 475.691406 41.691406 484.140625 56.660156 498.398438 61.511719 C 507.148438 55.171875 517.050781 50.398438 527.5 47.621094 C 530.398438 46.828125 533.390625 46.210938 536.328125 46.671875 C 540.890625 47.371094 544.699219 50.53125 547.769531 53.96875 C 555.441406 62.46875 560.039062 71.210938 561.28125 82.609375 C 568.410156 79.339844 576.328125 78.421875 584.121094 77.589844 C 591.910156 76.761719 599.832031 75.890625 607 72.699219 C 614.171875 69.511719 620.71875 63.121094 622.300781 55.460938 C 630.179688 62.710938 642.199219 65.078125 652.230469 61.390625 C 658.648438 59.03125 664.039062 54.511719 670.300781 51.808594 C 682.53125 46.550781 695.921875 48.78125 709.058594 50.980469 C 716.441406 38.789062 726.300781 28.179688 737.871094 19.890625 C 741.058594 17.609375 744.460938 15.5 748.320312 14.871094 C 752.921875 14.171875 757.558594 15.699219 761.710938 17.730469 C 776.511719 24.898438 787.910156 38.789062 792.089844 54.710938 L 792.050781 52.308594 C 803.121094 47.378906 815.96875 46.628906 827.53125 50.199219 C 836.070312 52.851562 843.78125 57.699219 852.320312 60.359375 C 860.859375 63.011719 871.140625 62.929688 877.648438 56.800781 C 880.71875 65.671875 888.71875 73.300781 897.710938 76.160156 C 910.519531 80.21875 925.359375 75.660156 937.300781 81.800781 C 941.859375 71.191406 948.449219 60.78125 956.621094 52.621094 C 959.398438 49.839844 962.550781 47.191406 966.359375 46.238281 C 970.960938 45.121094 975.730469 46.648438 980.121094 48.398438 C 991.019531 52.75 995.421875 54.328125 1004.832031 61.371094 C 1012.371094 53.78125 1020.289062 45.949219 1030.488281 42.589844 C 1039.441406 39.648438 1049.351562 40.519531 1058.300781 37.621094 C 1064.640625 35.589844 1070.359375 31.730469 1076.871094 30.28125 C 1081.21875 29.328125 1085.699219 29.488281 1090.128906 29.078125 C 1094.570312 28.710938 1099.128906 27.671875 1102.519531 24.808594 C 1107.832031 33.761719 1115.988281 42.96875 1125.730469 46.699219 C 1137.589844 51.261719 1152.179688 46 1162.871094 52.789062 C 1167.101562 55.441406 1170.039062 59.628906 1173.480469 63.191406 C 1176.921875 66.75 1181.398438 69.988281 1186.371094 69.738281 C 1194.738281 63.898438 1204.191406 58.171875 1213.691406 54.398438 C 1216.21875 53.410156 1218.871094 52.488281 1221.570312 52.871094 C 1225.128906 53.371094 1227.949219 56.058594 1230.269531 58.839844 C 1236.78125 66.550781 1241.378906 75.839844 1243.621094 85.660156 C 1248.878906 77.828125 1259.25 73.800781 1268.570312 72.308594 C 1277.898438 70.820312 1287.550781 70.691406 1296.339844 67.171875 C 1303.878906 64.140625 1310.390625 58.589844 1314.621094 51.628906 C 1323.859375 58.679688 1337.539062 59.050781 1348.898438 56.558594 C 1360.261719 54.109375 1370.789062 48.890625 1381.769531 45.160156 C 1405.691406 36.988281 1436.398438 35.671875 1461.03125 41.511719 C 1463.679688 66.460938 1461.691406 91.871094 1455.191406 116.121094 C 1449.878906 135.890625 1441.550781 155.171875 1440.96875 175.640625 C 1442.878906 176.628906 1444.871094 178.328125 1446.03125 180.199219 C 1447.191406 182.070312 1447.558594 184.429688 1446.691406 186.378906 C 1445.320312 189.488281 1441.628906 190.609375 1438.808594 192.429688 C 1434.539062 195.210938 1431.800781 201.261719 1431.96875 206.359375 C 1429.941406 213.53125 1429.441406 221.03125 1428.28125 228.410156 C 1427.121094 235.789062 1425.300781 243.25 1420.980469 249.339844 C 1417.421875 254.308594 1417.621094 254.070312 1412.691406 257.710938 L 1413.101562 257.710938 C 1423.050781 260.03125 1434.648438 264.511719 1439.921875 273.25 C 1444.019531 280.128906 1444.019531 288.878906 1441.539062 296.5 C 1439.050781 304.128906 1434.160156 312.289062 1429.191406 318.589844 C 1439.261719 324.480469 1446.769531 334.671875 1449.421875 346.03125 C 1451.332031 354.28125 1450.832031 362.980469 1453.191406 371.148438 C 1456.421875 382.261719 1466.789062 389.308594 1476.441406 396.558594 C 1470.21875 406.839844 1467.609375 418.859375 1465.789062 430.71875 C 1463.96875 442.578125 1462.808594 454.640625 1459.160156 466.078125 C 1455.511719 477.519531 1448.421875 488.710938 1438.230469 495.101562 C 1449.878906 502.890625 1456.21875 517.859375 1453.769531 531.621094 C 1451.320312 545.378906 1440.171875 557.238281 1426.539062 560.511719 C 1425.789062 559.558594 1421.808594 560.589844 1421.191406 561.628906 C 1420.570312 562.671875 1420.648438 563.949219 1420.730469 565.191406 C 1421.808594 577.5 1422.929688 589.851562 1426.039062 601.789062 C 1427.160156 606.058594 1428.609375 610.371094 1431.511719 613.691406 C 1434.742188 617.378906 1439.429688 619.410156 1443.949219 621.320312 C 1437.480469 628.699219 1435.332031 639.808594 1438.148438 649.21875 C 1440.601562 657.46875 1446.609375 664.269531 1449.300781 672.429688 C 1451.699219 679.679688 1451.949219 688.800781 1451.082031 696.429688 C 1449.460938 700.949219 1451.25 706.128906 1454.230469 709.898438 C 1457.210938 713.671875 1461.28125 716.410156 1465.050781 719.429688 C 1470.648438 723.910156 1475.738281 729.050781 1480.140625 734.730469 C 1482.832031 738.210938 1485.320312 742.03125 1486.109375 746.339844 C 1486.949219 752.011719 1484.839844 757.851562 1481.808594 762.828125 Z M 1481.808594 762.828125 " fill-opacity="1" fill-rule="nonzero"/><rect x="-150" width="1800" fill="#709775" y="-149.999993" height="1799.99992" fill-opacity="1"/><path fill="#f2eee8" d="M 1407.203125 420.292969 L 1057.433594 244.363281 C 1048.839844 152.316406 1011.285156 124.949219 989.074219 117.09375 C 968.269531 95.003906 949.371094 75.0625 749.753906 75.550781 C 522.953125 75 524.425781 102.613281 510.683594 117.09375 C 488.46875 124.886719 450.851562 152.441406 442.261719 244.363281 L 92.796875 420.292969 C 91.492188 420.949219 90.242188 421.695312 89.042969 422.523438 C 87.839844 423.355469 86.703125 424.265625 85.628906 425.253906 C 84.554688 426.238281 83.550781 427.296875 82.625 428.421875 C 81.695312 429.546875 80.847656 430.730469 80.082031 431.972656 C 79.316406 433.214844 78.640625 434.503906 78.054688 435.839844 C 77.464844 437.175781 76.972656 438.546875 76.574219 439.949219 C 76.175781 441.355469 75.875 442.78125 75.671875 444.226562 C 75.472656 445.671875 75.371094 447.121094 75.367188 448.582031 L 75.367188 1393.03125 C 75.371094 1394.0625 75.421875 1395.097656 75.527344 1396.125 C 75.628906 1397.15625 75.78125 1398.175781 75.984375 1399.191406 C 76.1875 1400.203125 76.441406 1401.207031 76.742188 1402.195312 C 77.042969 1403.1875 77.394531 1404.160156 77.789062 1405.113281 C 78.1875 1406.070312 78.628906 1407.003906 79.117188 1407.914062 C 79.605469 1408.828125 80.136719 1409.710938 80.714844 1410.570312 C 81.289062 1411.433594 81.902344 1412.261719 82.558594 1413.0625 C 83.214844 1413.859375 83.910156 1414.625 84.640625 1415.359375 C 85.375 1416.089844 86.140625 1416.78125 86.9375 1417.441406 C 87.738281 1418.097656 88.566406 1418.710938 89.425781 1419.285156 C 90.289062 1419.863281 91.171875 1420.394531 92.085938 1420.882812 C 92.996094 1421.371094 93.929688 1421.8125 94.886719 1422.210938 C 95.839844 1422.605469 96.8125 1422.957031 97.804688 1423.257812 C 98.792969 1423.558594 99.796875 1423.8125 100.808594 1424.015625 C 101.824219 1424.21875 102.84375 1424.371094 103.875 1424.472656 C 104.902344 1424.578125 105.9375 1424.628906 106.96875 1424.632812 L 1393.03125 1424.632812 C 1394.0625 1424.628906 1395.097656 1424.578125 1396.125 1424.472656 C 1397.15625 1424.371094 1398.175781 1424.21875 1399.191406 1424.015625 C 1400.203125 1423.8125 1401.207031 1423.558594 1402.195312 1423.257812 C 1403.1875 1422.957031 1404.15625 1422.605469 1405.113281 1422.210938 C 1406.070312 1421.8125 1407.003906 1421.371094 1407.914062 1420.882812 C 1408.828125 1420.394531 1409.710938 1419.863281 1410.570312 1419.285156 C 1411.433594 1418.710938 1412.261719 1418.097656 1413.0625 1417.4375 C 1413.859375 1416.78125 1414.625 1416.089844 1415.359375 1415.359375 C 1416.089844 1414.625 1416.78125 1413.859375 1417.441406 1413.0625 C 1418.097656 1412.261719 1418.710938 1411.433594 1419.285156 1410.570312 C 1419.863281 1409.710938 1420.394531 1408.828125 1420.882812 1407.914062 C 1421.371094 1407.003906 1421.8125 1406.070312 1422.210938 1405.113281 C 1422.605469 1404.15625 1422.957031 1403.1875 1423.257812 1402.195312 C 1423.558594 1401.207031 1423.8125 1400.203125 1424.015625 1399.191406 C 1424.21875 1398.175781 1424.371094 1397.15625 1424.472656 1396.125 C 1424.578125 1395.09375 1424.628906 1394.0625 1424.632812 1393.03125 L 1424.632812 448.582031 C 1424.628906 447.121094 1424.527344 445.671875 1424.328125 444.226562 C 1424.125 442.78125 1423.824219 441.355469 1423.425781 439.949219 C 1423.027344 438.546875 1422.535156 437.175781 1421.945312 435.839844 C 1421.359375 434.503906 1420.683594 433.214844 1419.917969 431.972656 C 1419.152344 430.730469 1418.304688 429.546875 1417.375 428.421875 C 1416.449219 427.296875 1415.445312 426.238281 1414.371094 425.253906 C 1413.296875 424.265625 1412.160156 423.355469 1410.957031 422.523438 C 1409.757812 421.695312 1408.507812 420.949219 1407.203125 420.292969 Z M 966.429688 281.917969 C 972.566406 274.0625 977.90625 266.394531 982.996094 258.722656 C 986.1875 253.875 989.132812 249.089844 992.078125 244.363281 C 992.816406 243.199219 993.738281 241.910156 994.410156 240.683594 C 994.992188 253.183594 995.097656 265.6875 994.726562 278.199219 C 994.351562 290.707031 993.503906 303.183594 992.179688 315.628906 C 990.859375 328.074219 989.0625 340.449219 986.792969 352.757812 C 984.527344 365.066406 981.792969 377.269531 978.59375 389.371094 C 975.398438 401.46875 971.742188 413.429688 967.632812 425.25 C 963.523438 437.070312 958.96875 448.71875 953.96875 460.191406 C 948.96875 471.664062 943.542969 482.929688 937.683594 493.992188 C 931.828125 505.050781 925.554688 515.871094 918.871094 526.453125 C 884.203125 500.066406 841.433594 468.464844 805.410156 444.65625 C 861.089844 398.195312 912.226562 347.179688 958.820312 291.613281 C 961.703125 288.363281 963.976562 285.171875 966.429688 281.917969 Z M 553.636719 163.300781 C 573.578125 132.621094 688.636719 139.554688 750 138.757812 C 924.457031 137.835938 936.789062 148.636719 946.363281 163.300781 C 978.089844 212.394531 794.917969 370.894531 750 408.386719 C 705.941406 371.570312 522.585938 211.964844 553.636719 163.300781 Z M 801.546875 518.71875 L 774.730469 570.757812 L 725.636719 570.757812 L 698.824219 518.71875 C 712.136719 509.269531 736.132812 492.640625 750.308594 484.355469 C 765.953125 493.683594 790.683594 511.171875 801.484375 518.71875 Z M 505.527344 240.683594 C 531.804688 279.207031 560.800781 315.5625 592.515625 349.75 C 624.234375 383.933594 658.320312 415.570312 694.773438 444.65625 C 658.445312 468.710938 616.105469 499.882812 581.3125 526.453125 C 574.640625 515.863281 568.378906 505.039062 562.527344 493.976562 C 556.675781 482.910156 551.25 471.644531 546.253906 460.167969 C 541.253906 448.695312 536.699219 437.046875 532.585938 425.226562 C 528.46875 413.410156 524.808594 401.449219 521.601562 389.351562 C 518.394531 377.257812 515.648438 365.054688 513.363281 352.75 C 511.082031 340.445312 509.265625 328.070312 507.921875 315.628906 C 506.578125 303.183594 505.703125 290.707031 505.304688 278.199219 C 504.90625 265.691406 504.980469 253.183594 505.527344 240.683594 Z M 138.574219 1361.367188 L 138.574219 468.035156 L 413.359375 329.71875 L 243.75 676.363281 C 243.273438 677.3125 242.851562 678.285156 242.472656 679.28125 C 242.097656 680.273438 241.769531 681.28125 241.496094 682.308594 C 241.222656 683.335938 241 684.371094 240.828125 685.421875 C 240.660156 686.46875 240.542969 687.523438 240.476562 688.585938 C 240.414062 689.644531 240.402344 690.707031 240.445312 691.769531 C 240.488281 692.832031 240.585938 693.886719 240.734375 694.9375 C 240.886719 695.992188 241.089844 697.03125 241.34375 698.0625 C 241.597656 699.09375 241.902344 700.109375 242.261719 701.113281 C 242.617188 702.113281 243.027344 703.09375 243.480469 704.050781 C 243.9375 705.011719 244.441406 705.945312 244.992188 706.855469 C 245.542969 707.761719 246.136719 708.640625 246.777344 709.492188 C 247.414062 710.339844 248.09375 711.152344 248.816406 711.933594 C 249.539062 712.714844 250.296875 713.457031 251.09375 714.160156 C 251.886719 714.863281 252.71875 715.527344 253.582031 716.144531 C 254.441406 716.765625 255.335938 717.339844 256.253906 717.871094 C 257.175781 718.402344 258.121094 718.882812 259.089844 719.316406 L 398.386719 781.601562 L 326.039062 898.191406 C 324.808594 900.195312 323.816406 902.304688 323.050781 904.527344 C 322.289062 906.746094 321.777344 909.023438 321.519531 911.355469 C 321.257812 913.691406 321.257812 916.023438 321.511719 918.359375 C 321.765625 920.691406 322.273438 922.972656 323.03125 925.191406 L 473.25 1360.875 Z M 540.136719 1361.367188 L 387.953125 918.996094 L 471.410156 783.996094 C 472.597656 782.082031 473.570312 780.066406 474.328125 777.945312 C 475.085938 775.824219 475.613281 773.648438 475.902344 771.414062 C 476.195312 769.179688 476.246094 766.941406 476.054688 764.695312 C 475.867188 762.453125 475.445312 760.253906 474.785156 758.101562 C 474.113281 755.949219 473.222656 753.886719 472.117188 751.921875 C 471.011719 749.957031 469.714844 748.128906 468.222656 746.4375 C 466.734375 744.746094 465.082031 743.226562 463.273438 741.882812 C 461.460938 740.539062 459.53125 739.398438 457.480469 738.464844 L 314.933594 674.890625 L 455.453125 387.953125 C 465.304688 422.460938 477.417969 456.152344 491.800781 489.027344 C 506.1875 521.902344 522.707031 553.664062 541.363281 584.316406 C 573.027344 861.4375 522.035156 415.566406 630.28125 1361.609375 Z M 637.765625 871.191406 L 605.304688 587.632812 C 623.714844 573.703125 623.714844 573.761719 646.726562 556.398438 L 673.355469 608.066406 Z M 806.148438 1361.367188 L 693.851562 1361.367188 L 667.035156 1126.773438 L 733.675781 634.023438 L 766.324219 634.023438 L 832.964844 1126.773438 Z M 826.644531 608.066406 L 853.273438 556.398438 C 874.136719 571.859375 886.78125 581.558594 894.695312 587.570312 L 862.234375 871.191406 Z M 959.863281 1361.367188 L 869.78125 1361.367188 L 958.636719 584.316406 C 977.535156 553.792969 994.179688 522.082031 1008.566406 489.1875 C 1022.957031 456.296875 1034.953125 422.550781 1044.546875 387.953125 L 1184.945312 674.953125 L 1042.644531 738.710938 C 1040.59375 739.644531 1038.660156 740.785156 1036.851562 742.128906 C 1035.039062 743.472656 1033.390625 744.992188 1031.898438 746.683594 C 1030.40625 748.375 1029.109375 750.203125 1028.003906 752.167969 C 1026.898438 754.132812 1026.011719 756.191406 1025.339844 758.34375 C 1024.679688 760.5 1024.253906 762.699219 1024.066406 764.941406 C 1023.878906 767.1875 1023.929688 769.425781 1024.21875 771.660156 C 1024.511719 773.890625 1025.035156 776.070312 1025.792969 778.191406 C 1026.550781 780.3125 1027.523438 782.328125 1028.714844 784.242188 L 1112.167969 919.242188 Z M 1361.425781 1361.367188 L 1026.75 1361.367188 L 1176.96875 925.683594 C 1177.726562 923.460938 1178.234375 921.183594 1178.488281 918.847656 C 1178.742188 916.515625 1178.742188 914.183594 1178.480469 911.847656 C 1178.222656 909.515625 1177.710938 907.238281 1176.949219 905.015625 C 1176.1875 902.796875 1175.191406 900.683594 1173.960938 898.683594 L 1101.613281 782.09375 L 1240.910156 719.316406 C 1241.882812 718.886719 1242.828125 718.40625 1243.753906 717.878906 C 1244.675781 717.351562 1245.570312 716.777344 1246.4375 716.160156 C 1247.300781 715.542969 1248.136719 714.882812 1248.933594 714.179688 C 1249.734375 713.480469 1250.496094 712.738281 1251.21875 711.960938 C 1251.945312 711.179688 1252.628906 710.367188 1253.269531 709.519531 C 1253.910156 708.671875 1254.507812 707.792969 1255.0625 706.882812 C 1255.617188 705.976562 1256.125 705.042969 1256.582031 704.082031 C 1257.042969 703.125 1257.453125 702.144531 1257.8125 701.140625 C 1258.171875 700.140625 1258.480469 699.125 1258.738281 698.09375 C 1258.996094 697.0625 1259.203125 696.019531 1259.355469 694.964844 C 1259.507812 693.914062 1259.605469 692.855469 1259.652344 691.792969 C 1259.695312 690.730469 1259.6875 689.667969 1259.625 688.605469 C 1259.566406 687.542969 1259.449219 686.488281 1259.28125 685.4375 C 1259.113281 684.386719 1258.894531 683.347656 1258.621094 682.320312 C 1258.347656 681.292969 1258.023438 680.28125 1257.644531 679.285156 C 1257.269531 678.289062 1256.847656 677.316406 1256.371094 676.363281 L 1086.640625 329.71875 L 1361.425781 468.035156 Z M 1361.425781 1361.367188 " fill-opacity="1" fill-rule="nonzero"/></svg>