<svg xmlns="http://www.w3.org/2000/svg" xmlns:xlink="http://www.w3.org/1999/xlink" width="2000" zoomAndPan="magnify" viewBox="0 0 1500 1499.999933" height="2000" preserveAspectRatio="xMidYMid meet" version="1.0"><defs><clipPath id="fe683ec6a6"><path d="M 14 14 L 1487 14 L 1487 1486 L 14 1486 Z M 14 14 " clip-rule="nonzero"/></clipPath><clipPath id="8dcbca7072"><path d="M 0 75 L 0 1425 C 0 1466.421875 33.578125 1500 75 1500 L 1425 1500 C 1466.421875 1500 1500 1466.421875 1500 1425 L 1500 75 C 1500 33.578125 1466.421875 0 1425 0 L 75 0 C 33.578125 0 0 33.578125 0 75 Z M 0 75 " clip-rule="nonzero"/></clipPath><clipPath id="f93286c284"><path d="M 0 75 L 0 1425 C 0 1466.421875 33.578125 1500 75 1500 L 1425 1500 C 1466.421875 1500 1500 1466.421875 1500 1425 L 1500 75 C 1500 33.578125 1466.421875 0 1425 0 L 75 0 C 33.578125 0 0 33.578125 0 75 Z M 0 75 " clip-rule="nonzero"/></clipPath><clipPath id="fc5f481399"><path d="M 206.304688 296 L 456 296 L 456 431 L 206.304688 431 Z M 206.304688 296 " clip-rule="nonzero"/></clipPath></defs><g clip-path="url(#fe683ec6a6)"><g clip-path="url(#8dcbca7072)"><path fill="#ff0000" d="M 1481.808594 762.828125 C 1473.808594 775.96875 1460.210938 783.71875 1446.78125 791.21875 C 1452.460938 799.429688 1452.25 810.449219 1449.71875 820.109375 C 1447.191406 829.769531 1442.589844 838.800781 1440.019531 848.460938 C 1437.449219 858.121094 1438.109375 870.890625 1443.710938 879.128906 C 1436 879.460938 1429.53125 885.640625 1426.378906 892.730469 C 1423.269531 899.820312 1422.769531 907.691406 1422.109375 915.398438 C 1421.449219 923.109375 1420.410156 931.070312 1416.390625 937.660156 L 1416.558594 937.699219 C 1427.628906 942.089844 1439.148438 946.78125 1446.988281 955.769531 C 1449.269531 958.421875 1451.21875 961.410156 1452.421875 964.640625 C 1455.160156 972.101562 1454.039062 980.558594 1450.96875 987.851562 C 1447.898438 995.191406 1443.050781 1001.609375 1438.289062 1007.949219 C 1444.511719 1014.128906 1454.699219 1021.089844 1457.519531 1029.417969 C 1459.300781 1034.730469 1459.46875 1040.449219 1460.261719 1046 C 1463 1065.648438 1473.441406 1084.140625 1472.78125 1103.988281 L 1472.78125 1104.03125 C 1472.738281 1106.058594 1471.25 1107.761719 1469.511719 1108.800781 C 1467.769531 1109.839844 1465.820312 1110.417969 1464.039062 1111.328125 C 1457.859375 1114.480469 1454.589844 1121.488281 1453.300781 1128.328125 C 1452.011719 1135.167969 1452.21875 1142.21875 1450.769531 1149.011719 C 1447.832031 1162.851562 1437.21875 1174.089844 1428.011719 1184.871094 C 1433.03125 1191.171875 1438.121094 1197.550781 1440.980469 1205.058594 C 1443.839844 1212.558594 1444.171875 1221.46875 1439.898438 1228.269531 C 1434.679688 1236.601562 1422.121094 1240.578125 1412.621094 1243.070312 C 1419.628906 1249.871094 1427.050781 1257.371094 1428.449219 1267.03125 C 1429.398438 1273.75 1427.332031 1280.578125 1428.199219 1287.300781 C 1428.949219 1293.101562 1431.890625 1298.449219 1435.660156 1302.890625 C 1439.429688 1307.328125 1444.03125 1311.058594 1448.550781 1314.75 C 1440.339844 1327.058594 1441.171875 1344.679688 1445.03125 1358.980469 C 1448.890625 1373.28125 1455.71875 1386.628906 1459.5 1400.96875 C 1464.351562 1419.25 1464.019531 1438.859375 1458.628906 1456.96875 C 1434.050781 1462.808594 1405.570312 1462.859375 1381.648438 1454.691406 C 1370.671875 1450.917969 1360.140625 1445.738281 1348.78125 1443.289062 C 1337.421875 1440.839844 1323.738281 1441.21875 1314.5 1448.21875 C 1310.269531 1441.261719 1303.761719 1435.699219 1296.21875 1432.679688 C 1287.46875 1429.160156 1277.769531 1429.03125 1268.449219 1427.539062 C 1259.128906 1426.050781 1248.761719 1422.03125 1243.5 1414.191406 C 1241.261719 1424.007812 1236.660156 1433.300781 1230.148438 1441.007812 C 1227.832031 1443.75 1225.011719 1446.441406 1221.449219 1446.980469 C 1218.761719 1447.351562 1216.101562 1446.441406 1213.570312 1445.449219 C 1204.039062 1441.71875 1194.628906 1436 1186.25 1430.109375 C 1181.28125 1429.859375 1176.800781 1433.089844 1173.359375 1436.660156 C 1169.921875 1440.21875 1166.929688 1444.410156 1162.75 1447.058594 C 1152.011719 1453.820312 1137.421875 1448.550781 1125.609375 1453.148438 C 1115.910156 1456.917969 1107.699219 1466.078125 1102.398438 1475.039062 C 1099 1472.140625 1094.441406 1471.140625 1090.011719 1470.769531 C 1085.570312 1470.398438 1081.101562 1470.558594 1076.75 1469.570312 C 1070.238281 1468.121094 1064.519531 1464.257812 1058.179688 1462.230469 C 1049.191406 1459.328125 1039.320312 1460.199219 1030.371094 1457.261719 C 1020.210938 1453.941406 1012.261719 1446.070312 1004.710938 1438.480469 C 995.300781 1445.53125 990.949219 1447.101562 980 1451.449219 C 975.609375 1453.191406 970.839844 1454.71875 966.238281 1453.609375 C 962.429688 1452.660156 959.28125 1450 956.5 1447.230469 C 948.332031 1439.109375 941.738281 1428.660156 937.179688 1418.050781 C 925.238281 1424.179688 910.398438 1419.628906 897.589844 1423.691406 C 888.640625 1426.550781 880.640625 1434.140625 877.53125 1443.050781 C 871.058594 1436.871094 860.738281 1436.828125 852.199219 1439.488281 C 843.660156 1442.140625 835.949219 1446.988281 827.410156 1449.648438 C 815.839844 1453.210938 802.988281 1452.46875 791.929688 1447.539062 L 791.96875 1445.140625 C 787.78125 1461.058594 776.378906 1474.941406 761.589844 1482.121094 C 757.398438 1484.148438 752.761719 1485.679688 748.199219 1484.980469 C 744.351562 1484.359375 740.898438 1482.238281 737.75 1479.960938 C 726.179688 1471.710938 716.320312 1461.058594 708.941406 1448.871094 C 695.800781 1451.109375 682.410156 1453.351562 670.179688 1448.039062 C 663.921875 1445.351562 658.488281 1440.828125 652.109375 1438.460938 C 642.078125 1434.769531 630.058594 1437.167969 622.179688 1444.390625 C 620.601562 1436.71875 614.011719 1430.339844 606.878906 1427.148438 C 599.710938 1423.960938 591.789062 1423.089844 584 1422.261719 C 576.210938 1421.429688 568.289062 1420.519531 561.160156 1417.238281 C 559.921875 1428.640625 555.359375 1437.390625 547.648438 1445.878906 C 544.539062 1449.320312 540.769531 1452.46875 536.210938 1453.179688 C 533.269531 1453.640625 530.238281 1453.011719 527.378906 1452.230469 C 516.929688 1449.410156 507.03125 1444.691406 498.28125 1438.339844 C 484.019531 1443.230469 475.558594 1458.148438 460.851562 1461.429688 C 453.929688 1462.960938 446.550781 1461.601562 439.628906 1463.128906 C 434.199219 1464.328125 429.351562 1467.191406 424 1468.769531 C 414.589844 1471.550781 403.898438 1470.261719 395.480469 1475.28125 C 391.039062 1465.210938 380.230469 1457 369.660156 1453.96875 C 363.441406 1452.191406 356.851562 1452.058594 350.511719 1450.699219 C 338.410156 1448.128906 325.179688 1438.800781 317.851562 1428.859375 C 312.421875 1433.878906 311.421875 1434.828125 305 1438.558594 C 298.570312 1442.289062 291.03125 1444.488281 283.738281 1443.410156 C 277.070312 1442.417969 270.96875 1438.601562 266.699219 1433.417969 C 262.390625 1428.238281 258.910156 1419.621094 258.039062 1412.941406 C 252.441406 1421.890625 242.160156 1427.410156 231.679688 1428.480469 C 224.511719 1429.230469 217.210938 1428.070312 210.128906 1429.390625 C 200.21875 1431.261719 189.738281 1439.710938 185.589844 1448.871094 C 176.839844 1442.398438 165.070312 1441.570312 154.25 1443.070312 C 136.878906 1445.46875 120.71875 1453.058594 103.800781 1457.578125 C 84.28125 1462.800781 57 1462.929688 41.578125 1457 C 36.148438 1438.890625 35.859375 1419.28125 40.710938 1401 C 44.519531 1386.699219 51.359375 1373.308594 55.179688 1359.011719 C 59.039062 1344.710938 59.910156 1327.089844 51.660156 1314.78125 C 56.21875 1311.089844 60.78125 1307.398438 64.550781 1302.917969 C 68.320312 1298.441406 71.269531 1293.140625 72.011719 1287.328125 C 72.878906 1280.609375 70.769531 1273.78125 71.761719 1267.058594 C 73.171875 1257.398438 80.589844 1249.898438 87.589844 1243.101562 C 78.058594 1240.648438 65.539062 1236.628906 60.308594 1228.300781 C 56.039062 1221.5 56.371094 1212.589844 59.230469 1205.089844 C 62.089844 1197.589844 67.191406 1191.160156 72.199219 1184.898438 C 63 1174.121094 52.390625 1162.929688 49.441406 1149.039062 C 47.988281 1142.238281 48.238281 1135.199219 46.910156 1128.359375 C 45.621094 1121.519531 42.351562 1114.519531 36.171875 1111.359375 C 34.390625 1110.449219 32.398438 1109.871094 30.699219 1108.828125 C 28.960938 1107.789062 27.46875 1106.089844 27.429688 1104.058594 L 27.429688 1104.019531 C 26.730469 1084.210938 37.171875 1065.679688 39.949219 1046.03125 C 40.738281 1040.480469 40.898438 1034.761719 42.691406 1029.449219 C 45.511719 1021.121094 55.660156 1014.199219 61.921875 1007.980469 C 57.109375 1001.640625 52.300781 995.210938 49.238281 987.878906 C 46.179688 980.550781 45.011719 972.089844 47.789062 964.671875 C 48.988281 961.398438 50.941406 958.410156 53.21875 955.800781 C 61.011719 946.800781 72.578125 942.078125 83.648438 937.730469 L 83.820312 937.691406 C 79.800781 931.058594 78.800781 923.140625 78.101562 915.429688 C 77.441406 907.71875 76.941406 899.800781 73.828125 892.761719 C 70.71875 885.710938 64.25 879.5 56.5 879.160156 C 62.101562 870.871094 62.761719 858.140625 60.191406 848.488281 C 57.621094 838.839844 53.019531 829.800781 50.488281 820.140625 C 47.960938 810.480469 47.75 799.460938 53.429688 791.25 C 40 783.75 26.398438 776 18.398438 762.859375 C 15.371094 757.929688 13.300781 752.039062 14.339844 746.359375 C 15.128906 742.050781 17.609375 738.238281 20.308594 734.75 C 24.699219 729.070312 29.761719 723.929688 35.398438 719.449219 C 39.171875 716.46875 43.230469 713.691406 46.21875 709.921875 C 49.199219 706.148438 50.988281 701.011719 49.371094 696.449219 C 48.5 688.859375 48.75 679.738281 51.148438 672.449219 C 53.839844 664.28125 59.851562 657.488281 62.300781 649.238281 C 65.121094 639.828125 62.960938 628.71875 56.5 621.339844 C 61.019531 619.429688 65.699219 617.398438 68.941406 613.710938 C 71.839844 610.390625 73.289062 606.078125 74.410156 601.808594 C 77.558594 589.871094 78.640625 577.480469 79.71875 565.210938 C 79.839844 564.011719 79.929688 562.679688 79.261719 561.648438 C 78.640625 560.609375 74.660156 559.578125 73.910156 560.53125 C 60.308594 557.261719 49.160156 545.441406 46.679688 531.640625 C 44.191406 517.839844 50.578125 502.910156 62.21875 495.121094 C 52.058594 488.738281 44.929688 477.539062 41.289062 466.101562 C 37.648438 454.660156 36.480469 442.601562 34.660156 430.738281 C 32.839844 418.878906 30.179688 406.859375 24.011719 396.578125 C 33.671875 389.328125 44.070312 382.320312 47.261719 371.171875 C 49.621094 363.050781 49.078125 354.300781 51.03125 346.050781 C 53.679688 334.648438 61.191406 324.5 71.261719 318.609375 C 66.289062 312.308594 61.390625 304.140625 58.910156 296.519531 C 56.421875 288.890625 56.378906 280.148438 60.53125 273.269531 C 65.75 264.519531 77.398438 260.050781 87.351562 257.730469 L 87.761719 257.730469 C 82.828125 254.078125 83.03125 254.328125 79.46875 249.359375 C 75.160156 243.308594 73.289062 235.808594 72.171875 228.429688 C 71.050781 221.050781 70.550781 213.550781 68.480469 206.378906 C 68.648438 201.28125 65.910156 195.230469 61.640625 192.449219 C 58.820312 190.628906 55.128906 189.46875 53.761719 186.398438 C 52.890625 184.410156 53.300781 182.050781 54.421875 180.21875 C 55.539062 178.398438 57.570312 176.699219 59.480469 175.660156 C 58.859375 155.21875 50.53125 135.910156 45.261719 116.140625 C 38.75 91.890625 36.761719 66.480469 39.421875 41.53125 C 54.878906 35.601562 84.398438 37.050781 103.921875 42.28125 C 120.828125 46.800781 137 54.378906 154.371094 56.789062 C 165.148438 58.28125 176.921875 57.449219 185.710938 50.988281 C 189.859375 60.191406 200.339844 68.648438 210.25 70.46875 C 217.339844 71.800781 224.628906 70.640625 231.800781 71.378906 C 242.328125 72.460938 252.570312 77.96875 258.160156 86.921875 C 259.070312 80.25 262.550781 71.671875 266.820312 66.441406 C 271.128906 61.261719 277.21875 57.488281 283.859375 56.449219 C 291.199219 55.328125 298.699219 57.570312 305.121094 61.300781 C 311.550781 64.988281 312.539062 65.941406 317.96875 71 C 325.351562 61.050781 338.53125 51.71875 350.628906 49.148438 C 356.96875 47.820312 363.558594 47.660156 369.78125 45.878906 C 380.390625 42.851562 391.171875 34.691406 395.601562 24.570312 C 404.058594 29.589844 414.710938 28.261719 424.121094 31.078125 C 429.429688 32.660156 434.320312 35.519531 439.75 36.71875 C 446.710938 38.25 454.050781 36.890625 460.96875 38.421875 C 475.691406 41.691406 484.140625 56.660156 498.398438 61.511719 C 507.148438 55.171875 517.050781 50.398438 527.5 47.621094 C 530.398438 46.828125 533.390625 46.210938 536.328125 46.671875 C 540.890625 47.371094 544.699219 50.53125 547.769531 53.96875 C 555.441406 62.46875 560.039062 71.210938 561.28125 82.609375 C 568.410156 79.339844 576.328125 78.421875 584.121094 77.589844 C 591.910156 76.761719 599.832031 75.890625 607 72.699219 C 614.171875 69.511719 620.71875 63.121094 622.300781 55.460938 C 630.179688 62.710938 642.199219 65.078125 652.230469 61.390625 C 658.648438 59.03125 664.039062 54.511719 670.300781 51.808594 C 682.53125 46.550781 695.921875 48.78125 709.058594 50.980469 C 716.441406 38.789062 726.300781 28.179688 737.871094 19.890625 C 741.058594 17.609375 744.460938 15.5 748.320312 14.871094 C 752.921875 14.171875 757.558594 15.699219 761.710938 17.730469 C 776.511719 24.898438 787.910156 38.789062 792.089844 54.710938 L 792.050781 52.308594 C 803.121094 47.378906 815.96875 46.628906 827.53125 50.199219 C 836.070312 52.851562 843.78125 57.699219 852.320312 60.359375 C 860.859375 63.011719 871.140625 62.929688 877.648438 56.800781 C 880.71875 65.671875 888.71875 73.300781 897.710938 76.160156 C 910.519531 80.21875 925.359375 75.660156 937.300781 81.800781 C 941.859375 71.191406 948.449219 60.78125 956.621094 52.621094 C 959.398438 49.839844 962.550781 47.191406 966.359375 46.238281 C 970.960938 45.121094 975.730469 46.648438 980.121094 48.398438 C 991.019531 52.75 995.421875 54.328125 1004.832031 61.371094 C 1012.371094 53.78125 1020.289062 45.949219 1030.488281 42.589844 C 1039.441406 39.648438 1049.351562 40.519531 1058.300781 37.621094 C 1064.640625 35.589844 1070.359375 31.730469 1076.871094 30.28125 C 1081.21875 29.328125 1085.699219 29.488281 1090.128906 29.078125 C 1094.570312 28.710938 1099.128906 27.671875 1102.519531 24.808594 C 1107.832031 33.761719 1115.988281 42.96875 1125.730469 46.699219 C 1137.589844 51.261719 1152.179688 46 1162.871094 52.789062 C 1167.101562 55.441406 1170.039062 59.628906 1173.480469 63.191406 C 1176.921875 66.75 1181.398438 69.988281 1186.371094 69.738281 C 1194.738281 63.898438 1204.191406 58.171875 1213.691406 54.398438 C 1216.21875 53.410156 1218.871094 52.488281 1221.570312 52.871094 C 1225.128906 53.371094 1227.949219 56.058594 1230.269531 58.839844 C 1236.78125 66.550781 1241.378906 75.839844 1243.621094 85.660156 C 1248.878906 77.828125 1259.25 73.800781 1268.570312 72.308594 C 1277.898438 70.820312 1287.550781 70.691406 1296.339844 67.171875 C 1303.878906 64.140625 1310.390625 58.589844 1314.621094 51.628906 C 1323.859375 58.679688 1337.539062 59.050781 1348.898438 56.558594 C 1360.261719 54.109375 1370.789062 48.890625 1381.769531 45.160156 C 1405.691406 36.988281 1436.398438 35.671875 1461.03125 41.511719 C 1463.679688 66.460938 1461.691406 91.871094 1455.191406 116.121094 C 1449.878906 135.890625 1441.550781 155.171875 1440.96875 175.640625 C 1442.878906 176.628906 1444.871094 178.328125 1446.03125 180.199219 C 1447.191406 182.070312 1447.558594 184.429688 1446.691406 186.378906 C 1445.320312 189.488281 1441.628906 190.609375 1438.808594 192.429688 C 1434.539062 195.210938 1431.800781 201.261719 1431.96875 206.359375 C 1429.941406 213.53125 1429.441406 221.03125 1428.28125 228.410156 C 1427.121094 235.789062 1425.300781 243.25 1420.980469 249.339844 C 1417.421875 254.308594 1417.621094 254.070312 1412.691406 257.710938 L 1413.101562 257.710938 C 1423.050781 260.03125 1434.648438 264.511719 1439.921875 273.25 C 1444.019531 280.128906 1444.019531 288.878906 1441.539062 296.5 C 1439.050781 304.128906 1434.160156 312.289062 1429.191406 318.589844 C 1439.261719 324.480469 1446.769531 334.671875 1449.421875 346.03125 C 1451.332031 354.28125 1450.832031 362.980469 1453.191406 371.148438 C 1456.421875 382.261719 1466.789062 389.308594 1476.441406 396.558594 C 1470.21875 406.839844 1467.609375 418.859375 1465.789062 430.71875 C 1463.96875 442.578125 1462.808594 454.640625 1459.160156 466.078125 C 1455.511719 477.519531 1448.421875 488.710938 1438.230469 495.101562 C 1449.878906 502.890625 1456.21875 517.859375 1453.769531 531.621094 C 1451.320312 545.378906 1440.171875 557.238281 1426.539062 560.511719 C 1425.789062 559.558594 1421.808594 560.589844 1421.191406 561.628906 C 1420.570312 562.671875 1420.648438 563.949219 1420.730469 565.191406 C 1421.808594 577.5 1422.929688 589.851562 1426.039062 601.789062 C 1427.160156 606.058594 1428.609375 610.371094 1431.511719 613.691406 C 1434.742188 617.378906 1439.429688 619.410156 1443.949219 621.320312 C 1437.480469 628.699219 1435.332031 639.808594 1438.148438 649.21875 C 1440.601562 657.46875 1446.609375 664.269531 1449.300781 672.429688 C 1451.699219 679.679688 1451.949219 688.800781 1451.082031 696.429688 C 1449.460938 700.949219 1451.25 706.128906 1454.230469 709.898438 C 1457.210938 713.671875 1461.28125 716.410156 1465.050781 719.429688 C 1470.648438 723.910156 1475.738281 729.050781 1480.140625 734.730469 C 1482.832031 738.210938 1485.320312 742.03125 1486.109375 746.339844 C 1486.949219 752.011719 1484.839844 757.851562 1481.808594 762.828125 Z M 1481.808594 762.828125 " fill-opacity="1" fill-rule="nonzero"/></g></g><g clip-path="url(#f93286c284)"><rect x="-150" width="1800" fill="#709775" y="-149.999993" height="1799.99992" fill-opacity="1"/></g><path fill="#f2eee8" d="M 766.433594 70.503906 C 751.671875 70.386719 736.960938 71.21875 722.304688 73.003906 C 707.652344 74.789062 693.171875 77.507812 678.867188 81.167969 C 664.566406 84.828125 650.558594 89.394531 636.84375 94.863281 C 623.132812 100.335938 609.832031 106.671875 596.9375 113.863281 C 593.585938 115.328125 590.289062 116.902344 587.042969 118.585938 C 583.796875 120.273438 580.613281 122.066406 577.488281 123.964844 C 574.363281 125.863281 571.304688 127.863281 568.3125 129.96875 C 565.324219 132.074219 562.40625 134.273438 559.5625 136.574219 C 556.71875 138.875 553.957031 141.265625 551.273438 143.75 C 548.589844 146.234375 545.996094 148.808594 543.484375 151.46875 C 540.972656 154.125 538.554688 156.867188 536.230469 159.6875 C 533.902344 162.507812 531.671875 165.40625 529.542969 168.375 C 527.410156 171.347656 525.378906 174.386719 523.449219 177.492188 C 521.523438 180.601562 519.699219 183.769531 517.984375 186.996094 C 516.269531 190.226562 514.664062 193.511719 513.167969 196.847656 C 511.671875 200.183594 510.289062 203.566406 509.019531 206.996094 C 507.75 210.425781 506.597656 213.894531 505.5625 217.402344 C 504.527344 220.910156 503.609375 224.445312 502.8125 228.015625 C 502.011719 231.582031 501.332031 235.175781 500.777344 238.789062 C 500.21875 242.402344 499.78125 246.03125 499.46875 249.675781 C 499.789062 253.019531 500.226562 256.347656 500.773438 259.664062 C 501.324219 262.980469 501.984375 266.269531 502.753906 269.542969 C 503.527344 272.8125 504.40625 276.050781 505.398438 279.261719 C 506.390625 282.472656 507.488281 285.644531 508.691406 288.78125 C 509.898438 291.917969 511.210938 295.011719 512.625 298.058594 C 514.039062 301.105469 515.554688 304.101562 517.175781 307.046875 C 518.792969 309.988281 520.507812 312.875 522.324219 315.703125 C 524.136719 318.53125 526.042969 321.296875 528.042969 323.996094 C 530.046875 326.695312 532.136719 329.324219 534.3125 331.882812 C 536.492188 334.4375 538.753906 336.921875 541.101562 339.324219 C 543.449219 341.730469 545.875 344.050781 548.378906 346.292969 C 550.882812 348.53125 553.460938 350.683594 556.109375 352.75 C 558.761719 354.816406 561.476562 356.789062 564.261719 358.671875 C 567.042969 360.550781 569.890625 362.335938 572.792969 364.027344 C 575.699219 365.714844 578.65625 367.304688 581.667969 368.792969 C 584.679688 370.28125 587.738281 371.664062 590.847656 372.949219 C 602.757812 379.238281 615.007812 384.792969 627.59375 389.605469 C 640.179688 394.414062 653.007812 398.453125 666.082031 401.710938 C 679.152344 404.972656 692.375 407.433594 705.746094 409.09375 C 719.117188 410.757812 732.539062 411.609375 746.011719 411.648438 C 759.523438 411.238281 772.964844 410.011719 786.328125 407.964844 C 799.691406 405.917969 812.882812 403.070312 825.898438 399.414062 C 838.914062 395.761719 851.660156 391.332031 864.140625 386.125 C 876.617188 380.917969 888.730469 374.976562 900.484375 368.292969 C 903.546875 366.875 906.558594 365.363281 909.523438 363.75 C 912.488281 362.140625 915.398438 360.4375 918.253906 358.636719 C 921.109375 356.839844 923.902344 354.953125 926.636719 352.976562 C 929.371094 350.996094 932.035156 348.933594 934.636719 346.785156 C 937.238281 344.632812 939.765625 342.402344 942.222656 340.089844 C 944.679688 337.777344 947.058594 335.390625 949.363281 332.921875 C 951.667969 330.457031 953.886719 327.921875 956.027344 325.3125 C 958.167969 322.703125 960.21875 320.027344 962.1875 317.289062 C 964.15625 314.546875 966.03125 311.746094 967.820312 308.882812 C 969.605469 306.023438 971.300781 303.105469 972.898438 300.136719 C 974.5 297.164062 976 294.144531 977.40625 291.078125 C 978.8125 288.011719 980.117188 284.902344 981.320312 281.75 C 982.527344 278.597656 983.628906 275.410156 984.628906 272.1875 C 985.628906 268.964844 986.523438 265.714844 987.3125 262.433594 C 988.101562 259.152344 988.785156 255.851562 989.363281 252.527344 C 989.941406 249.203125 990.410156 245.863281 990.773438 242.511719 C 990.589844 239.292969 990.304688 236.085938 989.917969 232.890625 C 989.527344 229.691406 989.039062 226.511719 988.445312 223.34375 C 987.855469 220.179688 987.164062 217.035156 986.371094 213.914062 C 985.578125 210.789062 984.6875 207.695312 983.699219 204.632812 C 982.707031 201.566406 981.621094 198.535156 980.4375 195.542969 C 979.253906 192.546875 977.976562 189.589844 976.601562 186.675781 C 975.230469 183.761719 973.765625 180.894531 972.210938 178.074219 C 970.65625 175.253906 969.011719 172.488281 967.28125 169.769531 C 965.546875 167.054688 963.730469 164.398438 961.828125 161.796875 C 959.925781 159.199219 957.941406 156.664062 955.878906 154.191406 C 953.816406 151.71875 951.675781 149.3125 949.457031 146.976562 C 947.238281 144.640625 944.949219 142.378906 942.585938 140.1875 C 940.222656 138 937.796875 135.886719 935.296875 133.851562 C 932.800781 131.816406 930.242188 129.867188 927.621094 127.996094 C 924.996094 126.125 922.320312 124.339844 919.582031 122.636719 C 916.847656 120.9375 914.058594 119.328125 911.222656 117.804688 C 900.453125 110.78125 889.273438 104.488281 877.679688 98.929688 C 866.085938 93.371094 854.175781 88.597656 841.957031 84.605469 C 829.734375 80.613281 817.304688 77.433594 804.664062 75.074219 C 792.027344 72.714844 779.289062 71.191406 766.449219 70.503906 Z M 764.976562 118.878906 C 775.578125 119.589844 786.097656 120.964844 796.527344 123 C 806.953125 125.035156 817.214844 127.710938 827.308594 131.035156 C 837.402344 134.359375 847.246094 138.304688 856.84375 142.863281 C 866.441406 147.425781 875.714844 152.570312 884.667969 158.296875 C 888.578125 160.265625 892.355469 162.472656 895.992188 164.914062 C 899.628906 167.351562 903.101562 170.011719 906.40625 172.886719 C 909.710938 175.761719 912.828125 178.828125 915.75 182.089844 C 918.671875 185.355469 921.378906 188.785156 923.875 192.386719 C 926.367188 195.988281 928.628906 199.730469 930.65625 203.613281 C 932.683594 207.496094 934.460938 211.492188 935.988281 215.597656 C 937.515625 219.703125 938.785156 223.886719 939.792969 228.148438 C 940.796875 232.414062 941.535156 236.722656 942.003906 241.078125 C 941.640625 243.390625 941.207031 245.6875 940.703125 247.96875 C 940.195312 250.253906 939.621094 252.519531 938.972656 254.765625 C 938.320312 257.011719 937.601562 259.238281 936.8125 261.441406 C 936.023438 263.640625 935.164062 265.816406 934.238281 267.964844 C 933.3125 270.109375 932.316406 272.226562 931.257812 274.3125 C 930.195312 276.398438 929.070312 278.445312 927.878906 280.460938 C 926.691406 282.472656 925.4375 284.445312 924.121094 286.382812 C 922.808594 288.316406 921.433594 290.207031 920 292.054688 C 918.5625 293.902344 917.074219 295.703125 915.523438 297.457031 C 913.976562 299.207031 912.375 300.910156 910.71875 302.5625 C 909.0625 304.214844 907.355469 305.8125 905.597656 307.359375 C 903.84375 308.902344 902.039062 310.390625 900.1875 311.820312 C 898.335938 313.25 896.441406 314.621094 894.507812 315.929688 C 892.570312 317.242188 890.589844 318.488281 888.574219 319.675781 C 886.558594 320.863281 884.507812 321.980469 882.421875 323.039062 C 880.332031 324.09375 878.214844 325.082031 876.066406 326.003906 C 866.074219 331.582031 855.792969 336.558594 845.21875 340.929688 C 834.644531 345.300781 823.851562 349.042969 812.835938 352.148438 C 801.824219 355.253906 790.667969 357.707031 779.367188 359.503906 C 768.066406 361.300781 756.703125 362.433594 745.269531 362.898438 C 733.859375 362.734375 722.496094 361.910156 711.179688 360.429688 C 699.863281 358.949219 688.671875 356.824219 677.601562 354.046875 C 666.53125 351.273438 655.65625 347.871094 644.980469 343.835938 C 634.304688 339.804688 623.898438 335.167969 613.757812 329.933594 C 573.386719 308.433594 548.019531 280.417969 547.820312 249.304688 C 548.167969 246.753906 548.597656 244.214844 549.109375 241.691406 C 549.625 239.167969 550.21875 236.660156 550.894531 234.175781 C 551.574219 231.691406 552.332031 229.230469 553.171875 226.796875 C 554.011719 224.359375 554.929688 221.957031 555.925781 219.582031 C 556.925781 217.207031 558 214.867188 559.152344 212.5625 C 560.300781 210.257812 561.527344 207.992188 562.828125 205.769531 C 564.128906 203.546875 565.5 201.367188 566.941406 199.234375 C 568.386719 197.101562 569.898438 195.015625 571.476562 192.984375 C 573.058594 190.949219 574.703125 188.96875 576.414062 187.042969 C 578.125 185.117188 579.898438 183.25 581.730469 181.4375 C 583.5625 179.628906 585.453125 177.882812 587.402344 176.195312 C 589.351562 174.511719 591.351562 172.890625 593.40625 171.339844 C 595.460938 169.785156 597.5625 168.300781 599.714844 166.886719 C 601.867188 165.46875 604.066406 164.125 606.304688 162.855469 C 608.546875 161.585938 610.824219 160.386719 613.144531 159.265625 C 615.464844 158.144531 617.816406 157.101562 620.207031 156.136719 C 631.269531 150.105469 642.664062 144.777344 654.386719 140.152344 C 666.109375 135.53125 678.074219 131.648438 690.277344 128.507812 C 702.480469 125.367188 714.832031 122.988281 727.328125 121.378906 C 739.828125 119.765625 752.375 118.929688 764.976562 118.867188 Z M 764.976562 118.878906 " fill-opacity="1" fill-rule="nonzero"/><path fill="#f2eee8" d="M 525.269531 176.933594 L 418.121094 300.917969 C 417.320312 301.835938 416.59375 302.804688 415.941406 303.832031 C 415.285156 304.855469 414.710938 305.925781 414.21875 307.035156 C 413.722656 308.148438 413.316406 309.289062 412.992188 310.464844 C 412.671875 311.636719 412.4375 312.828125 412.296875 314.035156 C 412.152344 315.242188 412.101562 316.457031 412.140625 317.671875 C 412.179688 318.886719 412.308594 320.09375 412.53125 321.289062 C 412.75 322.488281 413.058594 323.660156 413.457031 324.808594 C 413.855469 325.960938 414.335938 327.074219 414.898438 328.152344 L 526.695312 539.574219 C 527.128906 540.394531 527.605469 541.1875 528.132812 541.957031 C 528.65625 542.722656 529.222656 543.453125 529.828125 544.15625 C 530.4375 544.859375 531.085938 545.523438 531.769531 546.148438 C 532.453125 546.777344 533.171875 547.363281 533.925781 547.90625 C 534.675781 548.449219 535.457031 548.949219 536.265625 549.40625 C 537.074219 549.859375 537.90625 550.269531 538.761719 550.628906 C 539.617188 550.988281 540.492188 551.296875 541.382812 551.554688 C 542.273438 551.816406 543.179688 552.023438 544.09375 552.179688 C 545.007812 552.335938 545.929688 552.4375 546.855469 552.488281 C 547.785156 552.535156 548.710938 552.535156 549.636719 552.476562 C 550.5625 552.421875 551.484375 552.3125 552.398438 552.148438 C 553.3125 551.988281 554.214844 551.773438 555.105469 551.507812 C 555.992188 551.242188 556.863281 550.929688 557.71875 550.5625 C 558.570312 550.195312 559.402344 549.785156 560.207031 549.324219 C 561.011719 548.863281 561.789062 548.359375 562.539062 547.808594 C 563.285156 547.257812 564 546.667969 564.679688 546.035156 L 718.058594 403.394531 L 684.734375 367.957031 L 555.011719 489.078125 L 465.421875 320.277344 L 561.820312 208.476562 Z M 525.269531 176.933594 " fill-opacity="1" fill-rule="nonzero"/><path fill="#f2eee8" d="M 971.410156 176.933594 L 934.515625 208.484375 L 1030.914062 320.285156 L 941.6875 489.070312 L 811.589844 367.949219 L 778.636719 403.394531 L 931.652344 546.015625 C 932.332031 546.648438 933.046875 547.238281 933.796875 547.789062 C 934.542969 548.339844 935.320312 548.84375 936.125 549.304688 C 936.933594 549.765625 937.761719 550.179688 938.613281 550.542969 C 939.46875 550.910156 940.339844 551.226562 941.230469 551.488281 C 942.117188 551.753906 943.019531 551.96875 943.933594 552.132812 C 944.847656 552.292969 945.769531 552.402344 946.695312 552.460938 C 947.621094 552.515625 948.546875 552.519531 949.476562 552.46875 C 950.402344 552.417969 951.324219 552.316406 952.238281 552.160156 C 953.152344 552.003906 954.058594 551.796875 954.949219 551.539062 C 955.839844 551.28125 956.714844 550.96875 957.570312 550.609375 C 958.425781 550.25 959.257812 549.84375 960.066406 549.390625 C 960.875 548.933594 961.65625 548.433594 962.410156 547.890625 C 963.160156 547.347656 963.878906 546.761719 964.5625 546.132812 C 965.25 545.507812 965.894531 544.84375 966.503906 544.140625 C 967.113281 543.441406 967.679688 542.707031 968.203125 541.941406 C 968.726562 541.175781 969.207031 540.378906 969.636719 539.558594 L 1081.421875 328.152344 C 1081.996094 327.082031 1082.492188 325.976562 1082.902344 324.832031 C 1083.3125 323.6875 1083.636719 322.523438 1083.871094 321.328125 C 1084.105469 320.136719 1084.25 318.933594 1084.304688 317.722656 C 1084.359375 316.507812 1084.324219 315.296875 1084.195312 314.089844 C 1084.070312 312.882812 1083.855469 311.691406 1083.546875 310.515625 C 1083.242188 309.339844 1082.847656 308.191406 1082.371094 307.074219 C 1081.894531 305.957031 1081.335938 304.882812 1080.695312 303.851562 C 1080.054688 302.816406 1079.34375 301.839844 1078.554688 300.914062 Z M 971.410156 176.933594 " fill-opacity="1" fill-rule="nonzero"/><g clip-path="url(#fc5f481399)"><path fill="#f2eee8" d="M 430.304688 296.597656 C 427.308594 296.78125 424.441406 297.5 421.710938 298.746094 L 221.035156 384.054688 C 220.289062 384.363281 219.5625 384.710938 218.855469 385.09375 C 218.144531 385.472656 217.457031 385.890625 216.789062 386.339844 C 216.121094 386.789062 215.476562 387.273438 214.855469 387.785156 C 214.234375 388.300781 213.640625 388.84375 213.074219 389.414062 C 212.507812 389.988281 211.96875 390.589844 211.464844 391.214844 C 210.957031 391.839844 210.480469 392.488281 210.039062 393.164062 C 209.59375 393.835938 209.1875 394.527344 208.8125 395.242188 C 208.4375 395.957031 208.101562 396.6875 207.796875 397.433594 C 207.496094 398.179688 207.230469 398.941406 207.003906 399.714844 C 206.777344 400.484375 206.589844 401.269531 206.441406 402.058594 C 206.292969 402.851562 206.183594 403.648438 206.113281 404.453125 C 206.042969 405.253906 206.011719 406.058594 206.023438 406.863281 C 206.03125 407.667969 206.082031 408.472656 206.171875 409.273438 C 206.257812 410.074219 206.386719 410.867188 206.554688 411.65625 C 206.722656 412.445312 206.929688 413.222656 207.175781 413.988281 C 207.417969 414.757812 207.703125 415.511719 208.019531 416.25 C 208.339844 416.992188 208.695312 417.710938 209.085938 418.417969 C 209.476562 419.121094 209.902344 419.804688 210.363281 420.46875 C 210.820312 421.128906 211.308594 421.765625 211.832031 422.382812 C 212.355469 422.996094 212.90625 423.582031 213.484375 424.140625 C 214.066406 424.699219 214.671875 425.230469 215.304688 425.726562 C 215.9375 426.226562 216.59375 426.695312 217.269531 427.128906 C 217.949219 427.5625 218.648438 427.960938 219.367188 428.328125 C 220.085938 428.691406 220.820312 429.019531 221.570312 429.3125 C 222.320312 429.605469 223.085938 429.859375 223.859375 430.074219 C 224.636719 430.292969 225.421875 430.46875 226.214844 430.609375 C 227.007812 430.746094 227.808594 430.847656 228.609375 430.90625 C 229.414062 430.964844 230.21875 430.984375 231.023438 430.964844 C 231.828125 430.945312 232.632812 430.886719 233.429688 430.785156 C 234.230469 430.6875 235.023438 430.546875 235.808594 430.371094 C 236.59375 430.191406 237.371094 429.976562 238.132812 429.722656 C 238.898438 429.464844 239.648438 429.175781 240.382812 428.84375 L 440.699219 343.199219 C 441.996094 342.648438 443.234375 341.992188 444.417969 341.226562 C 445.601562 340.460938 446.707031 339.601562 447.738281 338.640625 C 448.773438 337.683594 449.714844 336.644531 450.566406 335.519531 C 451.417969 334.398438 452.164062 333.210938 452.808594 331.960938 C 453.453125 330.707031 453.984375 329.410156 454.402344 328.0625 C 454.820312 326.71875 455.121094 325.347656 455.300781 323.953125 C 455.480469 322.554688 455.539062 321.152344 455.472656 319.746094 C 455.410156 318.339844 455.226562 316.949219 454.917969 315.574219 C 454.613281 314.199219 454.1875 312.859375 453.648438 311.558594 C 453.109375 310.257812 452.464844 309.015625 451.707031 307.824219 C 450.953125 306.636719 450.097656 305.523438 449.148438 304.484375 C 448.199219 303.445312 447.167969 302.492188 446.050781 301.632812 C 444.9375 300.773438 443.753906 300.015625 442.507812 299.359375 C 441.261719 298.707031 439.96875 298.164062 438.625 297.734375 C 437.285156 297.304688 435.914062 296.996094 434.519531 296.804688 C 433.125 296.613281 431.722656 296.542969 430.316406 296.597656 Z M 430.304688 296.597656 " fill-opacity="1" fill-rule="nonzero"/></g><path fill="#f2eee8" d="M 1062.429688 296.597656 C 1061.085938 296.714844 1059.761719 296.941406 1058.457031 297.28125 C 1057.148438 297.621094 1055.882812 298.0625 1054.648438 298.613281 C 1053.417969 299.164062 1052.238281 299.8125 1051.117188 300.558594 C 1049.992188 301.304688 1048.9375 302.136719 1047.953125 303.058594 C 1046.96875 303.980469 1046.066406 304.980469 1045.25 306.050781 C 1044.429688 307.125 1043.707031 308.257812 1043.078125 309.449219 C 1042.449219 310.644531 1041.921875 311.878906 1041.5 313.160156 C 1041.074219 314.441406 1040.761719 315.75 1040.554688 317.082031 C 1040.347656 318.414062 1040.257812 319.753906 1040.273438 321.105469 C 1040.292969 322.453125 1040.421875 323.792969 1040.664062 325.117188 C 1040.90625 326.445312 1041.253906 327.742188 1041.710938 329.011719 C 1042.167969 330.28125 1042.730469 331.503906 1043.390625 332.679688 C 1044.050781 333.855469 1044.804688 334.96875 1045.652344 336.019531 C 1046.5 337.066406 1047.429688 338.039062 1048.4375 338.933594 C 1049.445312 339.832031 1050.523438 340.636719 1051.667969 341.351562 C 1052.808594 342.066406 1054.003906 342.683594 1055.25 343.199219 L 1255.566406 428.839844 C 1256.300781 429.152344 1257.046875 429.429688 1257.808594 429.667969 C 1258.570312 429.90625 1259.339844 430.105469 1260.121094 430.269531 C 1260.902344 430.433594 1261.6875 430.554688 1262.480469 430.640625 C 1263.273438 430.726562 1264.066406 430.773438 1264.863281 430.78125 C 1265.664062 430.789062 1266.457031 430.757812 1267.253906 430.683594 C 1268.046875 430.613281 1268.835938 430.503906 1269.617188 430.355469 C 1270.402344 430.207031 1271.175781 430.019531 1271.941406 429.796875 C 1272.707031 429.570312 1273.457031 429.3125 1274.199219 429.011719 C 1274.9375 428.714844 1275.660156 428.378906 1276.367188 428.011719 C 1277.074219 427.640625 1277.757812 427.238281 1278.425781 426.800781 C 1279.09375 426.363281 1279.734375 425.894531 1280.355469 425.394531 C 1280.976562 424.894531 1281.570312 424.363281 1282.140625 423.804688 C 1282.710938 423.246094 1283.25 422.660156 1283.761719 422.046875 C 1284.269531 421.4375 1284.75 420.800781 1285.199219 420.140625 C 1285.648438 419.480469 1286.0625 418.800781 1286.445312 418.101562 C 1286.828125 417.402344 1287.171875 416.6875 1287.484375 415.953125 C 1287.796875 415.21875 1288.070312 414.46875 1288.308594 413.707031 C 1288.546875 412.949219 1288.746094 412.175781 1288.90625 411.394531 C 1289.070312 410.617188 1289.191406 409.828125 1289.277344 409.035156 C 1289.363281 408.242188 1289.40625 407.449219 1289.414062 406.652344 C 1289.417969 405.855469 1289.386719 405.058594 1289.316406 404.265625 C 1289.242188 403.46875 1289.132812 402.679688 1288.984375 401.898438 C 1288.835938 401.113281 1288.648438 400.339844 1288.421875 399.578125 C 1288.195312 398.8125 1287.933594 398.058594 1287.632812 397.320312 C 1287.335938 396.582031 1287 395.859375 1286.628906 395.152344 C 1286.257812 394.449219 1285.855469 393.761719 1285.417969 393.09375 C 1284.976562 392.429688 1284.507812 391.785156 1284.007812 391.164062 C 1283.507812 390.546875 1282.976562 389.953125 1282.417969 389.382812 C 1281.855469 388.816406 1281.269531 388.277344 1280.65625 387.765625 C 1280.046875 387.253906 1279.410156 386.777344 1278.75 386.328125 C 1278.089844 385.882812 1277.410156 385.46875 1276.710938 385.085938 C 1276.007812 384.707031 1275.292969 384.359375 1274.558594 384.050781 L 1074.242188 298.765625 C 1070.488281 297.046875 1066.550781 296.332031 1062.429688 296.621094 Z M 1062.429688 296.597656 " fill-opacity="1" fill-rule="nonzero"/><path fill="#f2eee8" d="M 766.433594 214.558594 C 751.671875 214.441406 736.960938 215.273438 722.304688 217.058594 C 707.652344 218.84375 693.171875 221.566406 678.867188 225.222656 C 664.566406 228.882812 650.558594 233.449219 636.84375 238.921875 C 623.132812 244.390625 609.832031 250.722656 596.9375 257.917969 C 583.882812 264.855469 571.625 273 560.167969 282.347656 C 548.710938 291.691406 538.269531 302.066406 528.851562 313.460938 L 566.835938 343.558594 C 574.257812 334.679688 582.460938 326.59375 591.445312 319.300781 C 600.425781 312.007812 610.023438 305.636719 620.234375 300.195312 C 631.296875 294.164062 642.691406 288.835938 654.414062 284.214844 C 666.140625 279.59375 678.101562 275.710938 690.304688 272.570312 C 702.507812 269.425781 714.859375 267.050781 727.359375 265.4375 C 739.855469 263.824219 752.40625 262.988281 765.007812 262.925781 C 775.609375 263.640625 786.125 265.015625 796.554688 267.050781 C 806.984375 269.085938 817.242188 271.765625 827.335938 275.089844 C 837.429688 278.414062 847.273438 282.355469 856.871094 286.917969 C 866.46875 291.476562 875.746094 296.621094 884.695312 302.34375 L 884.695312 302.714844 C 893.328125 308.261719 901.449219 314.472656 909.0625 321.351562 C 912.585938 324.636719 915.929688 328.097656 919.09375 331.734375 L 955.648438 299.480469 C 951.355469 294.710938 946.828125 290.179688 942.054688 285.890625 L 942.054688 285.503906 C 932.441406 276.765625 922.167969 268.878906 911.234375 261.855469 C 900.46875 254.820312 889.289062 248.523438 877.691406 242.960938 C 866.097656 237.402344 854.1875 232.625 841.960938 228.632812 C 829.738281 224.636719 817.304688 221.464844 804.660156 219.109375 C 792.019531 216.753906 779.277344 215.234375 766.433594 214.558594 Z M 766.433594 214.558594 " fill-opacity="1" fill-rule="nonzero"/><path fill="#f2eee8" d="M 665.738281 432.074219 L 620.949219 450.34375 C 630.480469 472.960938 641.710938 494.699219 654.632812 515.5625 C 665.09375 532.769531 677.515625 548.414062 691.898438 562.507812 C 695.453125 566.359375 699.335938 569.84375 703.550781 572.960938 C 707.765625 576.078125 712.234375 578.769531 716.957031 581.039062 C 721.683594 583.308594 726.578125 585.117188 731.644531 586.460938 C 736.710938 587.800781 741.855469 588.65625 747.085938 589.027344 C 752.273438 588.847656 757.402344 588.183594 762.464844 587.03125 C 767.527344 585.878906 772.4375 584.257812 777.195312 582.171875 C 781.949219 580.085938 786.46875 577.570312 790.742188 574.621094 C 795.019531 571.675781 798.984375 568.355469 802.628906 564.65625 C 817.429688 551.101562 830.328125 535.933594 841.328125 519.148438 C 854.847656 498.828125 866.675781 477.566406 876.808594 455.359375 L 832.371094 435.652344 C 823.257812 455.195312 812.742188 473.949219 800.816406 491.914062 C 792.230469 505.179688 782.199219 517.246094 770.71875 528.109375 C 767.65625 531.324219 764.164062 533.972656 760.238281 536.054688 C 756.316406 538.140625 752.167969 539.550781 747.789062 540.292969 C 743.417969 539.441406 739.300781 537.910156 735.4375 535.703125 C 731.570312 533.496094 728.164062 530.726562 725.210938 527.394531 C 713.917969 516.023438 704.125 503.480469 695.828125 489.769531 C 684.40625 471.261719 674.378906 452.03125 665.738281 432.074219 Z M 665.738281 432.074219 " fill-opacity="1" fill-rule="nonzero"/><path fill="#f2eee8" d="M 823.785156 527.394531 L 775.050781 530.621094 C 775.050781 530.621094 808.058594 1032.023438 856.394531 1273.109375 L 748.53125 1368.789062 L 617.378906 1237.996094 C 628.5625 1123.1875 644.054688 1008.96875 663.851562 895.328125 C 683.648438 781.691406 707.695312 668.960938 735.992188 557.136719 L 689.390625 544.238281 C 660.238281 658.992188 635.464844 774.683594 615.070312 891.316406 C 594.675781 1007.945312 578.71875 1125.175781 567.195312 1243.011719 C 566.992188 1244.847656 566.996094 1246.683594 567.210938 1248.519531 C 567.425781 1250.351562 567.84375 1252.140625 568.464844 1253.878906 C 569.085938 1255.617188 569.898438 1257.261719 570.894531 1258.816406 C 571.890625 1260.371094 573.050781 1261.792969 574.375 1263.082031 L 730.253906 1419.320312 C 730.800781 1419.859375 731.367188 1420.371094 731.960938 1420.855469 C 732.554688 1421.339844 733.171875 1421.792969 733.808594 1422.21875 C 734.445312 1422.644531 735.101562 1423.039062 735.773438 1423.402344 C 736.449219 1423.769531 737.136719 1424.097656 737.84375 1424.398438 C 738.546875 1424.695312 739.265625 1424.960938 739.996094 1425.191406 C 740.726562 1425.421875 741.46875 1425.617188 742.214844 1425.777344 C 742.964844 1425.9375 743.71875 1426.0625 744.480469 1426.152344 C 745.242188 1426.242188 746.003906 1426.296875 746.769531 1426.3125 C 747.535156 1426.328125 748.300781 1426.308594 749.066406 1426.253906 C 749.828125 1426.199219 750.589844 1426.105469 751.34375 1425.980469 C 752.101562 1425.851562 752.847656 1425.6875 753.585938 1425.492188 C 754.328125 1425.292969 755.058594 1425.058594 755.773438 1424.792969 C 756.492188 1424.523438 757.195312 1424.222656 757.886719 1423.890625 C 758.574219 1423.554688 759.246094 1423.191406 759.902344 1422.792969 C 760.554688 1422.394531 761.191406 1421.96875 761.804688 1421.511719 C 762.417969 1421.050781 763.011719 1420.566406 763.578125 1420.054688 L 897.957031 1301.082031 C 898.757812 1300.367188 899.503906 1299.605469 900.203125 1298.792969 C 900.898438 1297.976562 901.539062 1297.125 902.125 1296.226562 C 902.707031 1295.328125 903.230469 1294.394531 903.691406 1293.429688 C 904.148438 1292.460938 904.546875 1291.46875 904.875 1290.449219 C 905.203125 1289.429688 905.464844 1288.394531 905.65625 1287.339844 C 905.847656 1286.285156 905.96875 1285.226562 906.019531 1284.15625 C 906.070312 1283.085938 906.054688 1282.015625 905.960938 1280.949219 C 905.871094 1279.882812 905.710938 1278.828125 905.484375 1277.78125 C 857.699219 1053.023438 823.785156 527.40625 823.785156 527.40625 Z M 823.785156 527.394531 " fill-opacity="1" fill-rule="nonzero"/><path fill="#f2eee8" d="M 699.066406 1136.222656 C 697.542969 1136.433594 696.113281 1136.921875 694.777344 1137.679688 L 647.117188 1159.179688 C 646.417969 1159.519531 645.757812 1159.925781 645.132812 1160.394531 C 644.511719 1160.863281 643.9375 1161.386719 643.417969 1161.964844 C 642.894531 1162.542969 642.429688 1163.164062 642.027344 1163.832031 C 641.625 1164.496094 641.289062 1165.195312 641.019531 1165.925781 C 640.75 1166.660156 640.554688 1167.410156 640.429688 1168.175781 C 640.304688 1168.945312 640.253906 1169.71875 640.277344 1170.5 C 640.300781 1171.277344 640.394531 1172.046875 640.566406 1172.808594 C 640.738281 1173.566406 640.976562 1174.304688 641.289062 1175.019531 C 641.601562 1175.734375 641.976562 1176.410156 642.421875 1177.050781 C 642.863281 1177.695312 643.359375 1178.289062 643.917969 1178.835938 C 644.472656 1179.378906 645.074219 1179.867188 645.722656 1180.300781 C 646.371094 1180.730469 647.058594 1181.09375 647.777344 1181.394531 C 648.496094 1181.695312 649.234375 1181.921875 650 1182.082031 C 650.761719 1182.238281 651.53125 1182.320312 652.3125 1182.332031 C 653.089844 1182.339844 653.863281 1182.277344 654.628906 1182.136719 C 655.398438 1182 656.144531 1181.789062 656.871094 1181.507812 L 657.152344 1181.378906 L 704.8125 1159.53125 C 705.476562 1159.257812 706.113281 1158.925781 706.71875 1158.539062 C 707.324219 1158.148438 707.890625 1157.710938 708.417969 1157.222656 C 708.945312 1156.734375 709.425781 1156.199219 709.859375 1155.625 C 710.292969 1155.050781 710.671875 1154.445312 711 1153.800781 C 711.324219 1153.160156 711.589844 1152.496094 711.796875 1151.804688 C 712.003906 1151.117188 712.148438 1150.414062 712.226562 1149.699219 C 712.308594 1148.984375 712.328125 1148.269531 712.28125 1147.550781 C 712.238281 1146.832031 712.128906 1146.125 711.957031 1145.425781 C 711.785156 1144.726562 711.554688 1144.046875 711.261719 1143.390625 C 710.96875 1142.734375 710.621094 1142.105469 710.21875 1141.511719 C 709.8125 1140.914062 709.359375 1140.359375 708.859375 1139.84375 C 708.355469 1139.328125 707.8125 1138.863281 707.226562 1138.445312 C 706.640625 1138.027344 706.023438 1137.664062 705.371094 1137.355469 C 704.722656 1137.046875 704.050781 1136.796875 703.355469 1136.609375 C 702.660156 1136.417969 701.957031 1136.292969 701.238281 1136.230469 C 700.523438 1136.167969 699.804688 1136.167969 699.089844 1136.230469 Z M 699.066406 1136.222656 " fill-opacity="1" fill-rule="nonzero"/><path fill="#f2eee8" d="M 711.609375 1167.757812 C 710.085938 1167.96875 708.65625 1168.457031 707.316406 1169.210938 L 635.652344 1206.105469 C 634.882812 1206.433594 634.15625 1206.835938 633.472656 1207.3125 C 632.785156 1207.789062 632.15625 1208.332031 631.582031 1208.9375 C 631.007812 1209.546875 630.503906 1210.203125 630.066406 1210.914062 C 629.628906 1211.625 629.269531 1212.375 628.984375 1213.160156 C 628.703125 1213.945312 628.503906 1214.753906 628.386719 1215.582031 C 628.269531 1216.40625 628.238281 1217.238281 628.292969 1218.070312 C 628.347656 1218.902344 628.488281 1219.722656 628.710938 1220.527344 C 628.9375 1221.332031 629.238281 1222.105469 629.625 1222.847656 C 630.007812 1223.589844 630.460938 1224.285156 630.988281 1224.929688 C 631.515625 1225.578125 632.105469 1226.167969 632.753906 1226.691406 C 633.398438 1227.21875 634.09375 1227.675781 634.835938 1228.058594 C 635.578125 1228.441406 636.351562 1228.742188 637.15625 1228.964844 C 637.960938 1229.191406 638.78125 1229.328125 639.613281 1229.382812 C 640.449219 1229.4375 641.277344 1229.40625 642.105469 1229.289062 C 642.933594 1229.171875 643.738281 1228.972656 644.523438 1228.6875 C 645.308594 1228.40625 646.058594 1228.042969 646.769531 1227.605469 L 718.4375 1190.710938 C 719.074219 1190.398438 719.679688 1190.03125 720.25 1189.609375 C 720.820312 1189.191406 721.351562 1188.722656 721.84375 1188.210938 C 722.332031 1187.695312 722.773438 1187.144531 723.167969 1186.554688 C 723.558594 1185.960938 723.898438 1185.339844 724.183594 1184.691406 C 724.464844 1184.039062 724.691406 1183.371094 724.859375 1182.679688 C 725.023438 1181.992188 725.128906 1181.292969 725.171875 1180.582031 C 725.21875 1179.875 725.199219 1179.167969 725.121094 1178.464844 C 725.039062 1177.757812 724.898438 1177.066406 724.695312 1176.386719 C 724.496094 1175.703125 724.234375 1175.046875 723.917969 1174.410156 C 723.601562 1173.777344 723.230469 1173.175781 722.808594 1172.605469 C 722.386719 1172.035156 721.917969 1171.503906 721.402344 1171.019531 C 720.886719 1170.53125 720.332031 1170.089844 719.738281 1169.699219 C 719.148438 1169.308594 718.523438 1168.972656 717.875 1168.691406 C 717.222656 1168.410156 716.550781 1168.1875 715.859375 1168.023438 C 715.171875 1167.859375 714.472656 1167.757812 713.761719 1167.71875 C 713.054688 1167.675781 712.347656 1167.699219 711.640625 1167.78125 Z M 711.609375 1167.757812 " fill-opacity="1" fill-rule="nonzero"/><path fill="#f2eee8" d="M 726.304688 1200.367188 C 724.332031 1200.640625 722.539062 1201.355469 720.925781 1202.511719 L 670.039062 1237.269531 C 669.320312 1237.613281 668.640625 1238.019531 668 1238.496094 C 667.363281 1238.972656 666.773438 1239.503906 666.238281 1240.097656 C 665.707031 1240.6875 665.234375 1241.324219 664.824219 1242.007812 C 664.414062 1242.691406 664.078125 1243.410156 663.808594 1244.160156 C 663.542969 1244.910156 663.351562 1245.679688 663.234375 1246.46875 C 663.117188 1247.257812 663.078125 1248.050781 663.121094 1248.847656 C 663.160156 1249.640625 663.277344 1250.425781 663.472656 1251.199219 C 663.667969 1251.972656 663.933594 1252.71875 664.277344 1253.4375 C 664.617188 1254.160156 665.027344 1254.839844 665.5 1255.476562 C 665.976562 1256.117188 666.511719 1256.703125 667.101562 1257.238281 C 667.691406 1257.773438 668.328125 1258.246094 669.015625 1258.652344 C 669.699219 1259.0625 670.414062 1259.402344 671.164062 1259.667969 C 671.917969 1259.9375 672.6875 1260.128906 673.472656 1260.246094 C 674.261719 1260.359375 675.054688 1260.398438 675.851562 1260.359375 C 676.648438 1260.320312 677.429688 1260.203125 678.203125 1260.007812 C 678.976562 1259.8125 679.722656 1259.542969 680.445312 1259.203125 C 681.636719 1258.640625 682.707031 1257.902344 683.65625 1256.984375 L 734.898438 1222.582031 C 735.492188 1222.210938 736.042969 1221.789062 736.5625 1221.320312 C 737.082031 1220.851562 737.554688 1220.34375 737.984375 1219.792969 C 738.414062 1219.242188 738.796875 1218.660156 739.125 1218.046875 C 739.453125 1217.429688 739.730469 1216.789062 739.949219 1216.128906 C 740.167969 1215.464844 740.328125 1214.789062 740.429688 1214.097656 C 740.53125 1213.40625 740.574219 1212.710938 740.558594 1212.015625 C 740.539062 1211.316406 740.464844 1210.625 740.328125 1209.941406 C 740.191406 1209.253906 739.996094 1208.585938 739.742188 1207.9375 C 739.492188 1207.285156 739.1875 1206.660156 738.824219 1206.0625 C 738.464844 1205.464844 738.058594 1204.902344 737.601562 1204.371094 C 737.144531 1203.84375 736.644531 1203.359375 736.105469 1202.917969 C 735.5625 1202.476562 734.988281 1202.085938 734.378906 1201.742188 C 733.773438 1201.398438 733.140625 1201.113281 732.480469 1200.878906 C 731.824219 1200.644531 731.148438 1200.46875 730.460938 1200.351562 C 729.773438 1200.234375 729.078125 1200.179688 728.382812 1200.179688 C 727.683594 1200.183594 726.988281 1200.246094 726.304688 1200.367188 Z M 726.304688 1200.367188 " fill-opacity="1" fill-rule="nonzero"/><path fill="#f2eee8" d="M 747.085938 1236.917969 C 744.722656 1237.003906 742.566406 1237.71875 740.625 1239.0625 L 691.890625 1271.675781 C 691.210938 1272.089844 690.578125 1272.570312 689.992188 1273.113281 C 689.40625 1273.65625 688.878906 1274.25 688.414062 1274.898438 C 687.945312 1275.542969 687.542969 1276.230469 687.210938 1276.953125 C 686.878906 1277.679688 686.621094 1278.429688 686.433594 1279.207031 C 686.25 1279.980469 686.144531 1280.769531 686.113281 1281.566406 C 686.085938 1282.363281 686.132812 1283.15625 686.261719 1283.945312 C 686.386719 1284.730469 686.589844 1285.5 686.867188 1286.246094 C 687.144531 1286.996094 687.492188 1287.707031 687.914062 1288.386719 C 688.332031 1289.066406 688.8125 1289.699219 689.355469 1290.28125 C 689.898438 1290.867188 690.496094 1291.390625 691.140625 1291.859375 C 691.789062 1292.324219 692.476562 1292.722656 693.199219 1293.054688 C 693.925781 1293.386719 694.675781 1293.644531 695.453125 1293.828125 C 696.230469 1294.011719 697.015625 1294.117188 697.816406 1294.144531 C 698.613281 1294.171875 699.40625 1294.125 700.191406 1293.996094 C 700.980469 1293.867188 701.746094 1293.664062 702.496094 1293.382812 C 703.242188 1293.105469 703.953125 1292.753906 704.632812 1292.335938 L 705.507812 1291.742188 L 754.238281 1259.488281 C 754.832031 1259.148438 755.394531 1258.753906 755.921875 1258.316406 C 756.449219 1257.878906 756.9375 1257.398438 757.386719 1256.878906 C 757.832031 1256.359375 758.230469 1255.800781 758.582031 1255.214844 C 758.9375 1254.625 759.238281 1254.011719 759.484375 1253.371094 C 759.734375 1252.730469 759.925781 1252.074219 760.0625 1251.402344 C 760.199219 1250.730469 760.28125 1250.050781 760.300781 1249.367188 C 760.324219 1248.679688 760.289062 1247.996094 760.191406 1247.316406 C 760.097656 1246.636719 759.949219 1245.96875 759.742188 1245.316406 C 759.535156 1244.660156 759.273438 1244.03125 758.960938 1243.417969 C 758.644531 1242.808594 758.28125 1242.230469 757.867188 1241.683594 C 757.457031 1241.132812 757 1240.625 756.5 1240.152344 C 756.003906 1239.683594 755.46875 1239.257812 754.894531 1238.875 C 754.324219 1238.496094 753.726562 1238.167969 753.097656 1237.886719 C 752.46875 1237.609375 751.824219 1237.386719 751.160156 1237.21875 C 750.496094 1237.046875 749.820312 1236.9375 749.136719 1236.882812 C 748.453125 1236.828125 747.769531 1236.832031 747.085938 1236.890625 Z M 747.085938 1236.917969 " fill-opacity="1" fill-rule="nonzero"/><path fill="#f2eee8" d="M 761.058594 1270.601562 C 759.09375 1270.875 757.300781 1271.59375 755.6875 1272.746094 L 717.699219 1298.90625 C 717.035156 1299.355469 716.417969 1299.863281 715.851562 1300.429688 C 715.285156 1301 714.777344 1301.617188 714.332031 1302.289062 C 713.886719 1302.957031 713.511719 1303.660156 713.207031 1304.402344 C 712.902344 1305.144531 712.671875 1305.910156 712.515625 1306.699219 C 712.359375 1307.488281 712.285156 1308.28125 712.285156 1309.085938 C 712.285156 1309.886719 712.367188 1310.683594 712.523438 1311.46875 C 712.683594 1312.257812 712.914062 1313.023438 713.222656 1313.761719 C 713.53125 1314.503906 713.910156 1315.207031 714.359375 1315.875 C 714.804688 1316.542969 715.3125 1317.160156 715.882812 1317.726562 C 716.453125 1318.292969 717.070312 1318.796875 717.738281 1319.242188 C 718.40625 1319.6875 719.113281 1320.0625 719.855469 1320.371094 C 720.597656 1320.675781 721.363281 1320.90625 722.152344 1321.0625 C 722.9375 1321.214844 723.734375 1321.292969 724.535156 1321.292969 C 725.339844 1321.289062 726.136719 1321.210938 726.921875 1321.050781 C 727.710938 1320.894531 728.472656 1320.660156 729.214844 1320.351562 C 729.957031 1320.042969 730.660156 1319.664062 731.328125 1319.21875 L 731.675781 1318.976562 L 769.304688 1292.816406 C 769.878906 1292.441406 770.421875 1292.023438 770.925781 1291.5625 C 771.433594 1291.097656 771.894531 1290.59375 772.316406 1290.054688 C 772.734375 1289.511719 773.109375 1288.9375 773.429688 1288.332031 C 773.753906 1287.726562 774.023438 1287.097656 774.242188 1286.445312 C 774.457031 1285.796875 774.617188 1285.132812 774.722656 1284.453125 C 774.824219 1283.773438 774.871094 1283.09375 774.859375 1282.40625 C 774.847656 1281.722656 774.777344 1281.042969 774.652344 1280.367188 C 774.523438 1279.691406 774.339844 1279.035156 774.101562 1278.390625 C 773.863281 1277.746094 773.570312 1277.128906 773.226562 1276.535156 C 772.882812 1275.941406 772.492188 1275.382812 772.054688 1274.855469 C 771.613281 1274.328125 771.132812 1273.839844 770.613281 1273.394531 C 770.089844 1272.949219 769.535156 1272.550781 768.949219 1272.195312 C 768.359375 1271.84375 767.742188 1271.546875 767.105469 1271.296875 C 766.464844 1271.050781 765.808594 1270.859375 765.136719 1270.722656 C 764.464844 1270.585938 763.785156 1270.507812 763.097656 1270.484375 C 762.414062 1270.464844 761.730469 1270.5 761.050781 1270.597656 Z M 761.058594 1270.601562 " fill-opacity="1" fill-rule="nonzero"/></svg>